<svg id="Layer_1" data-name="Layer 1" xmlns="http://www.w3.org/2000/svg" xmlns:xlink="http://www.w3.org/1999/xlink" viewBox="0 0 30 30"><defs><style>.cls-1{fill:url(#未命名的渐变_20);}.cls-2{fill:#191a1a;}.cls-3{fill:url(#未命名的渐变_32);}.cls-4{fill:url(#未命名的渐变_20-2);}.cls-5{fill:none;}.cls-6{fill:url(#未命名的渐变_32-2);}.cls-7{fill:#3597d4;}.cls-8{fill:url(#未命名的渐变_20-3);}.cls-9{fill:url(#未命名的渐变_32-3);}</style><linearGradient id="未命名的渐变_20" x1="3.25" y1="22.59" x2="3.25" y2="24.79" gradientUnits="userSpaceOnUse"><stop offset="0" stop-color="#096baf"/><stop offset="0.28" stop-color="#2385c5"/><stop offset="0.52" stop-color="#3597d4"/><stop offset="0.72" stop-color="#2789c9"/><stop offset="1" stop-color="#0e70b3"/></linearGradient><linearGradient id="未命名的渐变_32" x1="16.79" y1="14.09" x2="17.31" y2="16.58" gradientUnits="userSpaceOnUse"><stop offset="0" stop-color="#096baf"/><stop offset="1" stop-color="#3597d4"/></linearGradient><linearGradient id="未命名的渐变_20-2" x1="12.55" y1="7.33" x2="23.68" y2="18.81" xlink:href="#未命名的渐变_20"/><linearGradient id="未命名的渐变_32-2" x1="-52.77" y1="-20.83" x2="-4.39" y2="5.99" xlink:href="#未命名的渐变_32"/><linearGradient id="未命名的渐变_20-3" x1="8.26" y1="12.39" x2="7.76" y2="17.9" xlink:href="#未命名的渐变_20"/><linearGradient id="未命名的渐变_32-3" x1="-40.22" y1="-20.37" x2="-0.45" y2="1.68" xlink:href="#未命名的渐变_32"/></defs><path class="cls-1" d="M3.93,23a.63.63,0,0,0-.5-.21.86.86,0,0,0,0,1.7A.63.63,0,0,0,4,24.18l.49.36a1.16,1.16,0,0,1-1,.46,1.39,1.39,0,1,1,0-2.78,1.14,1.14,0,0,1,.9.39Z"/><path class="cls-2" d="M4.69,22.1h.57v2.83H4.69Z"/><path class="cls-2" d="M6.6,23.07A1,1,0,1,1,6.6,25a1,1,0,1,1,0-1.91Zm0,1.41A.42.42,0,0,0,7.05,24a.45.45,0,1,0-.9,0A.42.42,0,0,0,6.6,24.48Z"/><path class="cls-2" d="M9.69,24.93H9.15v-.24h0a.58.58,0,0,1-.53.29c-.56,0-.67-.38-.67-.86v-1H8.5V24c0,.21,0,.48.29.48s.34-.22.34-.46v-.91h.56Z"/><path class="cls-2" d="M12,24.93h-.52v-.24h0a.7.7,0,0,1-.56.29,1,1,0,0,1-.06-1.91.68.68,0,0,1,.58.24h0V22.1H12Zm-1-1.37a.43.43,0,0,0-.45.46.45.45,0,1,0,.9,0A.43.43,0,0,0,11,23.56Z"/><path class="cls-2" d="M14.16,23.33h.18c.21,0,.43,0,.43-.3a.3.3,0,0,0-.33-.27.33.33,0,0,0-.33.24l-.62-.12a.88.88,0,0,1,.95-.64c.47,0,.89.23.89.74a.55.55,0,0,1-.45.58h0a.58.58,0,0,1,.5.61c0,.54-.44.8-1,.8a.88.88,0,0,1-.95-.69l.59-.14a.36.36,0,0,0,.4.31.31.31,0,0,0,.35-.34c0-.3-.27-.31-.52-.31h-.13Z"/><path class="cls-2" d="M15.84,22.28h.87c.85,0,1.57.37,1.57,1.34a1.35,1.35,0,0,1-1.49,1.31h-.95Zm.58,2.11h.3c.54,0,1-.2,1-.8s-.41-.77-.91-.77h-.34Z"/><path class="cls-2" d="M19.78,22.28h1c.55,0,1,.18,1,.81s-.42.81-1,.81h-.42v1h-.59Zm.59,1.13h.38c.21,0,.42-.07.42-.32s-.28-.31-.51-.31h-.29Z"/><path class="cls-2" d="M22.07,23.11h.56v.3h0a.55.55,0,0,1,.52-.34.62.62,0,0,1,.19,0v.51a1,1,0,0,0-.24,0c-.43,0-.48.25-.48.61v.76h-.56Z"/><path class="cls-2" d="M23.88,22.22a.32.32,0,0,1,.32.32.32.32,0,0,1-.32.33.33.33,0,0,1-.33-.33A.32.32,0,0,1,23.88,22.22Zm-.28.89h.56v1.82H23.6Z"/><path class="cls-2" d="M24.56,23.11h.54v.25h0a.59.59,0,0,1,.53-.29c.57,0,.67.37.67.86v1h-.56V24c0-.21,0-.48-.29-.48s-.34.23-.34.47v.9h-.56Z"/><path class="cls-2" d="M28,23.56h-.5v.61c0,.19,0,.34.27.34a.38.38,0,0,0,.23-.06v.47a1.11,1.11,0,0,1-.4.06c-.37,0-.66-.16-.66-.55v-.87h-.36v-.45h.36v-.53h.56v.53H28Z"/><path class="cls-3" d="M14.88,12.84h0a2.38,2.38,0,0,1,1.16.29,2.43,2.43,0,0,1,1.19,1.5,2.65,2.65,0,0,1,.08.63,2.45,2.45,0,0,1-.86,1.86h2.43C18.92,12.51,14.88,12.84,14.88,12.84Z"/><path class="cls-4" d="M20.35,8.5A6.94,6.94,0,0,0,16.6,5.34c-7.61.91-7,7.47-7,7.47l0-.86a4.94,4.94,0,0,1,4.83-4.76A4.56,4.56,0,0,1,18.65,10l.28.63.69,0a3.52,3.52,0,0,1,3.44,3.54,6.75,6.75,0,0,1-3.13,5.7H20l.21,0A5.73,5.73,0,0,0,20.35,8.5Z"/><path class="cls-5" d="M12.5,15.43a2.67,2.67,0,0,0,.08.48A3.42,3.42,0,0,1,12.5,15.43Z"/><path class="cls-6" d="M12.49,15.26c0,.05,0,.11,0,.17S12.49,15.32,12.49,15.26Z"/><path class="cls-7" d="M20,17.68h-5a2.44,2.44,0,0,1-2.34-1.78,2.67,2.67,0,0,1-.08-.48c0-.06,0-.12,0-.17a2.43,2.43,0,0,1,2.39-2.42s4-.33,4,4.28a4,4,0,0,0,.57-1.8,4.27,4.27,0,0,0-1.2-3.22,4.7,4.7,0,0,0-3.41-1.45,4.62,4.62,0,0,0,0,9.23h5a6.75,6.75,0,0,0,3.13-5.7A3.54,3.54,0,0,1,20,17.68Z"/><path class="cls-8" d="M7.48,10.91a4.38,4.38,0,0,0-2.15,1.15A4.61,4.61,0,0,0,4,15.35a4.54,4.54,0,0,0,4.05,4.52h3.52A4,4,0,0,1,9.8,17.69H8.24a2.35,2.35,0,0,1-2-2.34,2.47,2.47,0,0,1,.68-1.74A2.24,2.24,0,0,1,8.47,13H9.54A11.1,11.1,0,0,1,7.48,10.91Z"/><path class="cls-9" d="M16.6,5.34A6.2,6.2,0,0,0,14.3,5,6.74,6.74,0,0,0,8.36,8.58a8.76,8.76,0,0,0-.83,2.32h0A11.1,11.1,0,0,0,9.54,13v-.19S9,6.25,16.6,5.34Z"/></svg>