<?xml version="1.0" encoding="UTF-8" standalone="no"?>
<!-- Generator: Adobe Illustrator 19.2.1, SVG Export Plug-In . SVG Version: 6.00 Build 0)  -->

<svg
   version="1.1"
   id="Layer_1"
   x="0px"
   y="0px"
   viewBox="0 0 198 106.1"
   xml:space="preserve"
   preserveAspectRatio="xMinYMin meet"
   width="198"
   height="106.1"
   xmlns="http://www.w3.org/2000/svg"
   xmlns:svg="http://www.w3.org/2000/svg"><defs
   id="defs76795" />
<style
   type="text/css"
   id="style76706">
	.st0{fill:#FF2841;}
	.st1{fill:#29B664;}
	.st2{fill:#888888;}
	.st3{fill:#99CCCC;}
	.st4{fill:#E67E22;}
	.st5{fill:#231F20;}
</style>
<g
   id="g76720"
   style="fill:#cc0000;fill-opacity:1"
   transform="translate(-10,-1)">
	<g
   id="g76718"
   style="fill:#cc0000;fill-opacity:1">
		<path
   class="st0"
   d="m 33,56.2 3,0.4 c 1.3,0.2 1.5,1.3 1.5,2 v 3.5 H 23.6 v -3.5 c 0,-0.7 0.1,-1.8 1.5,-2 l 3,-0.4 v -3 h -18 v 3 l 3,0.4 c 1.3,0.2 1.5,1.3 1.5,2 v 11.6 c 0,0.7 -0.1,1.8 -1.5,2 l -3,0.4 v 3 h 18 v -3 l -3,-0.4 c -1.3,-0.2 -1.5,-1.3 -1.5,-2 v -3.5 h 13.8 v 3.5 c 0,0.7 -0.1,1.8 -1.5,2 l -3,0.4 v 3 h 18 v -3 l -3,-0.4 C 46.6,72 46.4,70.9 46.4,70.2 V 58.5 c 0,-0.7 0.1,-1.8 1.5,-2 l 3,-0.4 v -3 H 33 Z"
   id="path76708"
   style="fill:#cc0000;fill-opacity:1" />
		<path
   class="st0"
   d="m 152.7,53.1 h -22.2 v 3 l 2.7,0.3 c 0.9,0.1 1.6,0.5 1.6,1.8 v 11.9 c 0,0.7 -0.1,1.8 -1.5,2 l -3,0.4 v 3 h 22.4 c 8,0 14.6,-3.2 14.6,-11.2 0,-7.9 -6.6,-11.2 -14.6,-11.2 z m -1.6,18.2 h -7.5 V 57.4 h 7.5 c 4.4,0 5.9,2.1 5.9,6.9 0,4.8 -1.5,7 -5.9,7 z"
   id="path76710"
   style="fill:#cc0000;fill-opacity:1" />
		<path
   class="st0"
   d="m 205.1,72.2 c -1.4,-0.2 -1.9,-1.1 -2.3,-1.8 -10.3,-15.8 -10.3,-15.8 -10.3,-15.8 -0.7,-1.1 -1.3,-1.5 -2.4,-1.5 h -17 v 3 l 4.1,0.5 c 0.6,0.1 1.4,0.8 0.7,1.9 L 170.2,71 c -0.3,0.5 -0.7,1.1 -1.6,1.2 l -3,0.3 v 3 h 14.3 v -3 l -2.5,-0.3 c -1.1,-0.1 -1.6,-0.8 -1.1,-1.7 l 1.1,-1.9 h 13.8 l 1,1.5 c 0.9,1.4 -0.2,1.9 -1.2,2 l -2.5,0.3 v 3 h 19.4 v -3 z m -25.2,-7.5 4.2,-6.9 4.5,6.9 z"
   id="path76712"
   style="fill:#cc0000;fill-opacity:1" />
		<path
   class="st0"
   d="m 114.5,56.2 3,0.4 c 1.3,0.2 1.5,1.3 1.5,2 V 69.8 L 107.1,54.2 c -0.5,-0.7 -1,-1 -2.3,-1 -0.8,0 -15.4,0 -15.4,0 v 3 l 3,0.4 c 1.3,0.2 1.5,1.3 1.5,2 v 11.6 c 0,0.7 -0.1,1.8 -1.5,2 l -3,0.4 v 3 h 14.3 v -3 l -3,-0.4 C 99.4,72 99.2,70.9 99.2,70.2 V 59 l 11.9,15.6 c 0.5,0.7 1,1 2.3,1 0.1,0 0.1,0 0.1,0 0.6,0 2.8,0 10.8,0 v -17 c 0,-0.7 0.1,-1.8 1.5,-2 l 3,-0.4 v -3 h -14.3 z"
   id="path76714"
   style="fill:#cc0000;fill-opacity:1" />
		<path
   class="st0"
   d="m 70.1,52.4 c -14.6,0 -18.3,6.4 -18.3,12 0,5.6 3.8,12 18.3,12 14.6,0 18.3,-6.4 18.3,-12 0.1,-5.6 -3.7,-12 -18.3,-12 z m 0,19.6 c -5.7,0 -8,-2.4 -8,-7.7 0,-5.3 2.4,-7.7 8,-7.7 5.7,0 8,2.4 8,7.7 0.1,5.4 -2.3,7.7 -8,7.7 z"
   id="path76716"
   style="fill:#cc0000;fill-opacity:1" />
	</g>
</g>
<polyline
   class="st0"
   points="190.6,30.2 190.6,26.8 195.9,26.8 195.1,25.2 203.4,19.5 201.4,18.2 202.3,14.9 198.9,15.6  198.1,13.3 194,16.2 194,7.3 191.5,8.6 189.5,4.9 189.5,4.9 189.5,4.9 189.5,4.9 189.5,4.9 189.5,4.9 189.5,4.9 187.5,8.6  184.9,7.3 184.9,16.2 180.9,13.3 180.1,15.6 176.7,14.9 177.6,18.2 175.6,19.5 183.9,25.2 183.1,26.8 188.3,26.8 188.3,30.2  190.4,30.2 "
   id="polyline76722"
   style="fill:#cc0000;fill-opacity:1"
   transform="translate(-10,-1)" />
<path
   class="st1"
   d="M 62,13.6 C 59.7,6 55.6,1.6 54.5,0.5 54.4,0.2 54,0 53.6,0 c 0,0 0,0 -0.1,0 v 0 c -0.4,0 -0.8,0.2 -1,0.6 -1,1.1 -5.1,5.6 -7.3,13.2 -1.1,3.9 -0.6,8 1.6,10.8 1.5,1.9 3.4,3.1 5.7,3.4 v 2.6 h 1.1 1.3 V 28 c 2.3,-0.3 4.2,-1.5 5.7,-3.5 2.1,-2.9 2.6,-6.9 1.4,-10.9 z m -9.7,-9 v 6.5 L 49.8,8.6 c 0.9,-1.7 1.8,-3 2.5,-4 z m -3.5,6.3 3.6,3.6 V 19 l -4.8,-4.8 c 0.3,-1.2 0.7,-2.3 1.2,-3.3 z m -0.1,12.2 c -1.2,-1.6 -1.8,-3.7 -1.6,-5.9 l 5.4,5.3 v 3 C 51,25.2 49.7,24.3 48.7,23.1 Z M 54.8,4.5 c 0.8,1 1.6,2.3 2.5,4 L 54.8,11 Z m 0,9.9 3.6,-3.6 c 0.4,1 0.9,2.1 1.2,3.3 L 54.8,19 Z m 3.8,8.6 c -1,1.3 -2.3,2.1 -3.7,2.5 v -3 l 5.3,-5.4 c 0.1,2.2 -0.4,4.3 -1.6,5.9 z"
   id="path76724"
   style="fill:#a3bf45;fill-opacity:1" />
<g
   id="g76728"
   style="fill:#a6a6a6;fill-opacity:1"
   transform="translate(-10,-1)">
	<path
   class="st2"
   d="m 111.6,17.5 c 0,-0.4 0,-0.8 -0.1,-1.2 l 3.2,-1 -1.3,-4.1 -3.2,1 c -0.4,-0.7 -0.9,-1.4 -1.4,-2 l 2,-2.7 -3.5,-2.5 -2,2.7 C 104.6,7.4 103.8,7.1 103,6.9 V 3.6 h -2.1 -2.1 V 7 C 98,7.2 97.2,7.4 96.5,7.8 l -2,-2.7 -3.5,2.5 2,2.7 c -0.6,0.6 -1,1.3 -1.4,2 l -3.2,-1 -1.3,4.1 3.2,1 c 0,0.4 -0.1,0.8 -0.1,1.2 0,0.4 0,0.8 0.1,1.2 l -3.2,1 1.3,4.1 3.2,-1 c 0.4,0.7 0.9,1.4 1.4,2 l -2,2.7 3.5,2.5 2,-2.7 c 0.7,0.3 1.5,0.6 2.3,0.8 v 3.4 h 2.1 2.1 v -3.4 c 0.8,-0.2 1.6,-0.4 2.3,-0.8 l 2,2.7 3.5,-2.5 -2,-2.7 c 0.6,-0.6 1,-1.3 1.4,-2 l 3.2,1 1.3,-4.1 -3.2,-1 c 0.1,-0.4 0.1,-0.8 0.1,-1.3 z M 100.8,24 v 0 c -3.6,0 -6.5,-2.9 -6.5,-6.5 0,-3.6 2.9,-6.5 6.5,-6.5 v 0 c 3.6,0 6.5,2.9 6.5,6.5 0,3.6 -2.9,6.5 -6.5,6.5 z"
   id="path76726"
   style="fill:#a6a6a6;fill-opacity:1" />
</g>
<g
   id="g76732"
   style="fill:#a0ccca;fill-opacity:1;stroke:none"
   transform="translate(-10,-1)">
	<path
   class="st3"
   d="M 163.6,13 146.2,5.7 c -0.2,-0.1 -0.4,-0.1 -0.7,-0.1 -0.2,0 -0.4,0 -0.6,0.1 l -18,7 c -0.6,0.2 -1,0.8 -1,1.5 0,0.7 0.4,1.3 0.9,1.5 l 9.4,4.4 v 5.4 c 0,0.3 0.1,0.6 0.2,0.8 0.1,0.2 2.6,4.4 9,4.4 0,0 0,0 0,0 6.4,0 9,-4.2 9.1,-4.3 0.2,-0.3 0.2,-0.6 0.2,-0.9 v -6.4 c 0,-0.6 -0.3,-1.1 -0.8,-1.4 -0.5,-0.3 -1.1,-0.3 -1.6,-0.1 l -7,3.3 v 0 l -13.8,-6.5 14,-5.4 v 0 l 13.4,5.6 -0.8,0.4 c -0.6,0.3 -1,0.9 -1,1.5 v 4 c -0.4,0.4 -0.7,1 -0.7,1.7 0,0.6 0.3,1.2 0.7,1.6 l -0.7,3.9 c 0,0 0.8,0.8 2.4,0.8 1.5,0 2.5,-0.8 2.5,-0.8 l -0.7,-3.9 c 0.4,-0.4 0.7,-1 0.7,-1.7 0,-0.7 -0.3,-1.3 -0.7,-1.7 v -2.9 l 3.3,-1.5 c 0.6,-0.3 1,-0.9 1,-1.5 -0.3,-0.7 -0.7,-1.3 -1.3,-1.5 z m -24.1,8.6 5.3,2.5 c 0.2,0.1 0.5,0.2 0.7,0.2 0.2,0 0.5,0 0.7,-0.2 l 5.4,-2.5 v 3.3 c -0.6,0.7 -2.5,2.4 -6.1,2.4 0,0 0,0 0,0 -3.6,0 -5.4,-1.7 -6,-2.4 z"
   id="path76730"
   style="fill:#a0ccca;fill-opacity:1;stroke:none" />
</g>
<g
   id="g76746"
   style="fill:#f7943e;fill-opacity:1"
   transform="translate(-10,-1)">
	<circle
   class="st4"
   cx="18.200001"
   cy="12.9"
   r="3.0999999"
   id="circle76734"
   style="fill:#f7943e;fill-opacity:1" />
	<path
   class="st4"
   d="m 18.2,17.5 c -1.5,0 -2.7,1.2 -2.7,2.7 V 30.5 H 21 V 20.2 c 0,-1.5 -1.2,-2.7 -2.8,-2.7 z"
   id="path76736"
   style="fill:#f7943e;fill-opacity:1" />
	<circle
   class="st4"
   cx="36.799999"
   cy="10.7"
   r="3.0999999"
   id="circle76738"
   style="fill:#f7943e;fill-opacity:1" />
	<path
   class="st4"
   d="m 36.8,15.3 c -1.5,0 -2.7,1.2 -2.7,2.7 v 12.5 h 5.5 V 18 c -0.1,-1.5 -1.3,-2.7 -2.8,-2.7 z"
   id="path76740"
   style="fill:#f7943e;fill-opacity:1" />
	<path
   class="st4"
   d="m 27.5,21.7 v 0 c 1.4,0 2.5,-1.1 2.5,-2.5 0,-1.4 -1.1,-2.5 -2.5,-2.5 v 0 c -1.4,0 -2.5,1.1 -2.5,2.5 0,1.4 1.1,2.5 2.5,2.5 z"
   id="path76742"
   style="fill:#f7943e;fill-opacity:1" />
	<path
   class="st4"
   d="m 27.5,23 c -1.5,0 -2.7,1.2 -2.7,2.7 v 4.8 h 2.7 2.7 V 25.7 C 30.2,24.2 29,23 27.5,23 Z"
   id="path76744"
   style="fill:#f7943e;fill-opacity:1" />
</g>
<g
   id="g76790"
   style="fill:#000000;fill-opacity:1"
   transform="translate(-10,-1)">
	<path
   class="st5"
   d="m 10,106.9 v -9 h 2.1 v 3.5 h 3.5 v -3.5 h 2.1 v 9 h -2.1 v -3.7 h -3.5 v 3.7 z"
   id="path76748"
   style="fill:#000000;fill-opacity:1" />
	<path
   class="st5"
   d="m 19.4,102.4 c 0,-3 1.6,-4.7 4.3,-4.7 2.7,0 4.3,1.7 4.3,4.7 0,3 -1.6,4.7 -4.3,4.7 -2.7,0 -4.3,-1.7 -4.3,-4.7 z m 2.2,0 c 0,1.8 0.7,2.9 2.1,2.9 1.4,0 2.1,-1.1 2.1,-2.9 0,-1.8 -0.7,-2.9 -2.1,-2.9 -1.4,0.1 -2.1,1.2 -2.1,2.9 z"
   id="path76750"
   style="fill:#000000;fill-opacity:1" />
	<path
   class="st5"
   d="m 34.9,102.3 c 0.5,0.7 0.7,1.2 0.7,1.2 h 0.1 c 0,0 0,-0.8 0,-1.9 v -3.7 h 2.1 v 9 h -1.9 l -3.2,-4.3 c -0.6,-0.8 -0.9,-1.3 -0.9,-1.3 h -0.1 c 0,0 0.1,0.7 0.1,2 v 3.6 h -2.1 v -9 h 2 z"
   id="path76752"
   style="fill:#000000;fill-opacity:1" />
	<path
   class="st5"
   d="m 40.1,106.9 v -9 h 3.3 c 2.5,0 4.4,1.2 4.4,4.4 0,3.3 -1.9,4.6 -4.5,4.6 z m 3,-1.7 c 1.6,0 2.6,-0.7 2.6,-2.7 0,-2.1 -0.9,-2.8 -2.4,-2.8 h -1 v 5.5 z"
   id="path76754"
   style="fill:#000000;fill-opacity:1" />
	<path
   class="st5"
   d="m 54.7,105 h -3.4 l -0.6,1.9 h -2.2 l 3.3,-9 h 2.6 l 3.3,9 h -2.2 z m -2.8,-1.7 h 2.2 l -0.4,-1 C 53.2,100.8 53,99.7 53,99.7 v 0 c 0,0 -0.2,1.1 -0.7,2.6 z"
   id="path76756"
   style="fill:#000000;fill-opacity:1" />
	<path
   class="st5"
   d="m 69.8,105 c -0.8,1.4 -1.9,2.1 -3.9,2.1 -2.4,0 -4.1,-1.7 -4.1,-4.7 0,-3 1.7,-4.7 4.4,-4.7 1.8,0 3,0.8 3.7,2.3 l -2,1 c -0.3,-0.9 -0.8,-1.4 -1.7,-1.4 -1.4,0 -2.2,1.1 -2.2,2.9 0,1.8 0.7,2.8 2.2,2.8 0.8,0 1.5,-0.4 1.9,-1.3 z"
   id="path76758"
   style="fill:#000000;fill-opacity:1" />
	<path
   class="st5"
   d="m 76.5,105 h -3.4 l -0.6,1.9 h -2.2 l 3.3,-9 h 2.6 l 3.3,9 h -2.2 z m -2.9,-1.7 h 2.2 l -0.4,-1 c -0.5,-1.5 -0.7,-2.6 -0.7,-2.6 h -0.1 c 0,0 -0.2,1.1 -0.7,2.6 z"
   id="path76760"
   style="fill:#000000;fill-opacity:1" />
	<path
   class="st5"
   d="m 85.8,102.3 c 0.5,0.7 0.7,1.2 0.7,1.2 h 0.1 c 0,0 0,-0.8 0,-1.9 v -3.7 h 2.1 v 9 h -1.9 l -3.2,-4.3 c -0.6,-0.8 -0.9,-1.3 -0.9,-1.3 h -0.1 c 0,0 0.1,0.7 0.1,2 v 3.6 h -2.1 v -9 h 2 z"
   id="path76762"
   style="fill:#000000;fill-opacity:1" />
	<path
   class="st5"
   d="m 96.2,105 h -3.4 l -0.6,1.9 H 90 l 3.3,-9 h 2.6 l 3.3,9 H 97 Z m -2.8,-1.7 h 2.2 l -0.4,-1 c -0.5,-1.5 -0.7,-2.6 -0.7,-2.6 h -0.1 c 0,0 -0.2,1.1 -0.7,2.6 z"
   id="path76764"
   style="fill:#000000;fill-opacity:1" />
	<path
   class="st5"
   d="m 100.4,106.9 v -9 h 3.3 c 2.5,0 4.4,1.2 4.4,4.4 0,3.3 -1.9,4.6 -4.5,4.6 z m 3,-1.7 c 1.6,0 2.6,-0.7 2.6,-2.7 0,-2.1 -0.9,-2.8 -2.4,-2.8 h -1 v 5.5 z"
   id="path76766"
   style="fill:#000000;fill-opacity:1" />
	<path
   class="st5"
   d="m 115.1,105 h -3.4 l -0.6,1.9 h -2.2 l 3.3,-9 h 2.6 l 3.3,9 h -2.2 z m -2.9,-1.7 h 2.2 l -0.4,-1 c -0.5,-1.5 -0.7,-2.6 -0.7,-2.6 h -0.1 c 0,0 -0.2,1.1 -0.7,2.6 z"
   id="path76768"
   style="fill:#000000;fill-opacity:1" />
	<path
   class="st5"
   d="m 122.7,106.9 v -9 h 5.9 v 1.8 h -3.8 v 2.2 h 3.3 v 1.7 h -3.3 v 3.3 z"
   id="path76770"
   style="fill:#000000;fill-opacity:1" />
	<path
   class="st5"
   d="m 129.6,102.4 c 0,-3 1.6,-4.7 4.3,-4.7 2.7,0 4.3,1.7 4.3,4.7 0,3 -1.6,4.7 -4.3,4.7 -2.7,0 -4.3,-1.7 -4.3,-4.7 z m 2.1,0 c 0,1.8 0.7,2.9 2.1,2.9 1.4,0 2.1,-1.1 2.1,-2.9 0,-1.8 -0.7,-2.9 -2.1,-2.9 -1.4,0.1 -2.1,1.2 -2.1,2.9 z"
   id="path76772"
   style="fill:#000000;fill-opacity:1" />
	<path
   class="st5"
   d="m 147.1,97.9 v 6 c 0,2.4 -1.7,3.2 -3.7,3.2 -2,0 -3.7,-0.8 -3.7,-3.2 v -6 h 2.1 v 5.4 c 0,1.3 0.3,2 1.6,2 1.3,0 1.7,-0.8 1.7,-2.1 v -5.4 h 2 z"
   id="path76774"
   style="fill:#000000;fill-opacity:1" />
	<path
   class="st5"
   d="m 154.4,102.3 c 0.5,0.7 0.7,1.2 0.7,1.2 h 0.1 c 0,0 0,-0.8 0,-1.9 v -3.7 h 2.1 v 9 h -1.9 l -3.2,-4.3 c -0.6,-0.8 -0.9,-1.3 -0.9,-1.3 h -0.1 c 0,0 0.1,0.7 0.1,2 v 3.6 h -2.1 v -9 h 2 z"
   id="path76776"
   style="fill:#000000;fill-opacity:1" />
	<path
   class="st5"
   d="m 159.6,106.9 v -9 h 3.3 c 2.5,0 4.4,1.2 4.4,4.4 0,3.3 -1.9,4.6 -4.5,4.6 z m 2.9,-1.7 c 1.6,0 2.6,-0.7 2.6,-2.7 0,-2.1 -0.9,-2.8 -2.4,-2.8 h -1 v 5.5 z"
   id="path76778"
   style="fill:#000000;fill-opacity:1" />
	<path
   class="st5"
   d="m 174.2,105 h -3.4 l -0.6,1.9 H 168 l 3.3,-9 h 2.6 l 3.3,9 H 175 Z m -2.8,-1.7 h 2.2 l -0.4,-1 c -0.5,-1.5 -0.7,-2.6 -0.7,-2.6 h -0.1 c 0,0 -0.2,1.1 -0.7,2.6 z"
   id="path76780"
   style="fill:#000000;fill-opacity:1" />
	<path
   class="st5"
   d="m 179.8,106.9 v -7.2 h -2.5 v -1.8 h 7 v 1.8 h -2.5 v 7.2 z"
   id="path76782"
   style="fill:#000000;fill-opacity:1" />
	<path
   class="st5"
   d="m 187.8,97.9 v 9 h -2.1 v -9 z"
   id="path76784"
   style="fill:#000000;fill-opacity:1" />
	<path
   class="st5"
   d="m 189.6,102.4 c 0,-3 1.6,-4.7 4.3,-4.7 2.7,0 4.3,1.7 4.3,4.7 0,3 -1.6,4.7 -4.3,4.7 -2.7,0 -4.3,-1.7 -4.3,-4.7 z m 2.2,0 c 0,1.8 0.7,2.9 2.1,2.9 1.4,0 2.1,-1.1 2.1,-2.9 0,-1.8 -0.7,-2.9 -2.1,-2.9 -1.4,0.1 -2.1,1.2 -2.1,2.9 z"
   id="path76786"
   style="fill:#000000;fill-opacity:1" />
	<path
   class="st5"
   d="m 205.1,102.3 c 0.5,0.7 0.7,1.2 0.7,1.2 h 0.1 c 0,0 0,-0.8 0,-1.9 v -3.7 h 2.1 v 9 h -2 l -3.2,-4.3 c -0.6,-0.8 -0.9,-1.3 -0.9,-1.3 h -0.1 c 0,0 0.1,0.7 0.1,2 v 3.6 h -2.1 v -9 h 2 z"
   id="path76788"
   style="fill:#000000;fill-opacity:1" />
</g>
</svg>
