<svg width="1249" height="460" viewBox="0 0 1249 460" fill="none" xmlns="http://www.w3.org/2000/svg">
<path d="M438.6 213.755C438.6 155.115 485.866 106.5 544.552 106.5C581.223 106.5 613.284 124.902 632.341 152.711L595.396 178.392C584.525 161.5 568.426 151.201 546.685 151.201C511.597 151.201 486.416 179.285 486.416 213.755C486.416 248.225 510.634 277.201 546.341 277.201C568.426 277.201 584.456 266.902 595.396 250.01L632.341 275.691C613.284 303.5 581.154 321.903 544.552 321.903C485.797 321.971 438.6 273.013 438.6 213.755Z" fill="#333333"/>
<path d="M639.909 318.332V100.457H684.698V318.332H639.909Z" fill="#333333"/>
<path d="M695.911 247.882C695.911 203.181 732.238 173.517 772.486 173.517C812.734 173.517 849.404 203.112 849.404 247.882C849.404 292.308 812.734 321.903 772.486 321.903C732.238 321.903 695.911 292.308 695.911 247.882ZM803.652 247.882C803.652 228.518 789.754 214.923 772.486 214.923C755.217 214.923 741.319 228.518 741.319 247.882C741.319 267.246 755.217 280.498 772.486 280.498C789.754 280.498 803.652 267.246 803.652 247.882Z" fill="#333333"/>
<path d="M852.365 272.67H894.746C894.746 279.605 899.906 287.776 912.634 287.776C921.99 287.776 929.903 282.97 929.903 276.309C929.903 271.777 926.6 269.649 916.005 267.246L897.566 262.439C856.08 251.247 854.842 227.694 854.842 215.884C854.842 195.01 878.44 173.586 912.703 173.586C939.328 173.586 971.733 185.946 971.114 221.309H928.733C928.733 212.245 922.403 207.713 913.597 207.713C906.029 207.713 899.699 211.352 899.699 217.395C899.699 222.819 904.515 225.84 911.808 227.694L936.301 234.355C971.733 244.037 974.76 266.353 974.76 276.035C974.76 307.14 942.355 321.972 913.941 321.972C882.362 321.972 852.365 304.737 852.365 272.67Z" fill="#333333"/>
<path d="M1128.18 260.928H1024.64C1028.91 274.524 1040.67 282.97 1057.66 282.97C1071.01 282.97 1084.63 276.927 1093.37 268.481L1116.35 297.458C1102.45 312.565 1078.24 321.903 1054.57 321.903C1009.78 321.903 978.27 291.072 978.27 248.157C978.27 202.22 1013.7 173.517 1054.29 173.517C1094.89 173.517 1128.8 201.945 1128.8 244.861C1128.8 248.843 1128.53 253.924 1128.18 260.928ZM1084.29 234.63C1083.67 220.759 1071.29 211.352 1055.26 211.352C1041.91 211.352 1028.91 217.669 1024.37 234.63H1084.29Z" fill="#333333"/>
<path d="M1246.86 177.774L1236.27 220.415C1227.46 215.265 1220.51 214.991 1215.97 214.991C1198.43 214.991 1183.84 229.822 1183.84 271.502V318.332H1139.05V177.225H1183.22V207.163C1191.41 183.885 1208.34 173.654 1225.61 173.654C1232.35 173.586 1239.57 174.204 1246.86 177.774Z" fill="#333333"/>
<path d="M215.551 430.256C96.6642 430.256 0 333.713 0 215.128C0 96.4747 96.6642 0 215.551 0C273.137 0 327.282 22.3849 367.943 63.0347L376.612 71.6865L332.236 115.976L323.567 107.255C294.671 78.4157 256.349 62.554 215.482 62.554C131.202 62.554 62.6769 130.945 62.6769 215.06C62.6769 299.174 131.202 367.565 215.482 367.565C252.153 367.565 286.897 354.725 314.485 331.241L304.922 321.697C279.879 342.708 248.575 354.107 215.482 354.107C138.632 354.107 76.1618 291.759 76.1618 215.06C76.1618 138.36 138.632 76.0124 215.482 76.0124C252.703 76.0124 287.722 90.5008 314.004 116.731C318.82 121.537 318.82 129.297 314.004 134.103C309.188 138.91 301.413 138.91 296.597 134.103C274.925 112.474 246.098 100.595 215.482 100.595C152.255 100.595 100.792 151.956 100.792 215.06C100.792 278.163 152.255 329.525 215.482 329.525C246.098 329.525 274.925 317.645 296.597 296.016L305.266 287.295L349.642 331.585L340.974 340.236C307.468 373.676 262.885 392.079 215.482 392.079C117.648 392.079 38.0465 312.633 38.0465 214.991C38.0465 117.349 117.717 38.0406 215.551 38.0406C258.826 38.0406 299.762 53.4216 332.03 81.5057L341.593 71.9612C306.711 41.3365 262.404 24.5822 215.551 24.5822C110.287 24.5822 24.6305 110.07 24.6305 215.128C24.6305 320.186 110.287 405.674 215.551 405.674C266.532 405.674 314.485 385.83 350.537 349.849C355.353 345.043 363.127 345.043 367.943 349.849C372.759 354.656 372.759 362.415 367.943 367.222C327.282 407.872 273.137 430.256 215.551 430.256Z" fill="#158449"/>
<path d="M846.745 413.555C846.745 421.244 852.406 425.806 858.827 425.806C865.417 425.806 870.74 420.821 870.74 413.555C870.74 406.289 865.417 401.557 858.827 401.557C852.913 401.557 846.745 405.866 846.745 413.555ZM846.66 433.411H837.957V372.492H846.66V399.614C849.11 395.305 854.264 393.108 859.925 393.108C870.656 393.108 879.612 401.05 879.612 413.724C879.612 426.144 870.402 434.256 859.841 434.256C854.433 434.256 849.11 431.974 846.66 427.665V433.411ZM923.328 393.953L898.91 452.675H889.785L898.318 431.552L882.687 393.953H891.981L902.965 420.99L914.034 393.953H923.328ZM947.184 433.411V375.196H959.605V422.511H981.404V433.411H947.184ZM1012.09 433.411V428.933C1009.64 432.65 1003.56 434.171 1000.6 434.171C990.545 434.171 980.491 426.229 980.491 413.64C980.491 401.05 990.545 393.108 1000.6 393.108C1003.22 393.108 1008.88 394.037 1012.09 398.346V393.953H1023.75V433.411H1012.09ZM992.657 413.64C992.657 419.3 997.558 423.018 1002.54 423.018C1007.36 423.018 1012.09 419.554 1012.09 413.64C1012.09 407.81 1007.36 404.261 1002.54 404.261C997.558 404.261 992.657 407.979 992.657 413.64ZM1087.17 393.953L1073.32 433.411H1063.52L1055.74 408.317L1048.31 433.411H1038.51L1024.23 393.953H1036.73L1043.74 417.442L1050.67 393.953H1060.73L1067.66 417.442L1074.67 393.953H1087.17ZM1089.96 433.411V375.196H1098.92V425.215H1122.24V433.411H1089.96ZM1155.07 433.411V427.75C1152.37 432.059 1146.87 434.256 1141.8 434.256C1131.24 434.256 1121.78 426.229 1121.78 413.64C1121.78 401.05 1131.24 393.108 1141.8 393.108C1146.54 393.108 1152.37 395.051 1155.07 399.529V393.953H1163.69V433.411H1155.07ZM1130.74 413.555C1130.74 420.821 1136.31 425.806 1142.82 425.806C1149.24 425.806 1154.98 421.328 1154.98 413.555C1154.98 405.866 1148.73 401.557 1142.82 401.557C1136.31 401.557 1130.74 406.289 1130.74 413.555ZM1179.04 413.555C1179.04 421.244 1184.7 425.806 1191.12 425.806C1197.71 425.806 1203.03 420.821 1203.03 413.555C1203.03 406.289 1197.71 401.557 1191.12 401.557C1185.21 401.557 1179.04 405.866 1179.04 413.555ZM1178.95 433.411H1170.25V372.492H1178.95V399.614C1181.4 395.305 1186.56 393.108 1192.22 393.108C1202.95 393.108 1211.91 401.05 1211.91 413.724C1211.91 426.144 1202.7 434.256 1192.13 434.256C1186.73 434.256 1181.4 431.974 1178.95 427.665V433.411ZM1230.56 417.611L1225.23 416.343C1216.78 414.062 1213.74 409.922 1214.33 403.5C1214.76 397.671 1221.26 393.108 1228.44 393.108C1235.37 393.108 1242.38 396.319 1242.81 404.768H1234.53C1234.19 401.811 1231.48 400.543 1228.78 400.543C1226.5 400.543 1224.13 401.388 1223.2 402.74C1222.53 403.838 1222.44 405.021 1222.87 406.289C1223.46 407.894 1225.57 408.739 1227.68 409.33L1233.77 410.851C1242.22 412.879 1244.07 418.456 1244.07 422.342C1244.07 429.946 1237.4 434.256 1228.36 434.256C1220.92 434.256 1213.49 429.693 1213.23 421.328H1221.26C1221.68 424.708 1224.39 426.989 1229.03 426.989C1233.01 426.989 1236.05 425.215 1236.05 422.258C1236.05 419.638 1233.51 418.287 1230.56 417.611Z" fill="#4F4F4F"/>
</svg>
