<?xml version="1.0" encoding="UTF-8" standalone="no"?>
<!-- Created with Inkscape (http://www.inkscape.org/) -->

<svg
   version="1.1"
   id="svg10"
   xml:space="preserve"
   width="384"
   height="192"
   viewBox="0 0 384 192"
   xmlns="http://www.w3.org/2000/svg"
   xmlns:svg="http://www.w3.org/2000/svg"
   xmlns:rdf="http://www.w3.org/1999/02/22-rdf-syntax-ns#"
   xmlns:cc="http://creativecommons.org/ns#"
   xmlns:dc="http://purl.org/dc/elements/1.1/"><metadata
     id="metadata16"><rdf:RDF><cc:Work
         rdf:about=""><dc:format>image/svg+xml</dc:format><dc:type
           rdf:resource="http://purl.org/dc/dcmitype/StillImage" /></cc:Work></rdf:RDF></metadata><defs
     id="defs14"><clipPath
       clipPathUnits="userSpaceOnUse"
       id="clipPath28"><path
         d="M 0,144 H 288 V 0 H 0 Z"
         id="path26" /></clipPath></defs><g
     id="g18"
     transform="matrix(1.3333333,0,0,-1.3333333,0,192)"><path
       d="M 0,0 H 288 V 144 H 0 Z"
       style="fill:#0779b6;fill-opacity:1;fill-rule:nonzero;stroke:none"
       id="path20" /><g
       id="g22"><g
         id="g24"
         clip-path="url(#clipPath28)"><path
           d="M 290.904,-4.342 H -2.247 v 150.411 h 293.151 z"
           style="fill:none;stroke:#231f20;stroke-width:1;stroke-linecap:butt;stroke-linejoin:miter;stroke-miterlimit:10;stroke-dasharray:none;stroke-opacity:1"
           id="path30" /></g></g><g
       aria-label="monster mobile"
       transform="matrix(0.84745763,0,0,-1,8,95)"
       style="font-variant:normal;font-weight:900;font-stretch:normal;font-size:37.76px;font-family:'Arial Black';-inkscape-font-specification:Arial-Black;writing-mode:lr-tb;fill:#ffffff;fill-opacity:1;fill-rule:nonzero;stroke:none"
       id="text34"><path
         d="m 2.3231249,-19.580624 h 7.0062497 v 2.857812 q 1.5118754,-1.788437 3.0421874,-2.544375 1.54875,-0.755937 3.724375,-0.755937 2.341562,0 3.705937,0.829687 1.364375,0.829688 2.230938,2.470625 1.769999,-1.9175 3.226562,-2.599687 1.456562,-0.700625 3.595312,-0.700625 3.152813,0 4.922812,1.880625 1.77,1.862187 1.77,5.844687 V 0 h -7.522499 v -11.154687 q 0,-1.3275 -0.51625,-1.972812 -0.755938,-1.014063 -1.880625,-1.014063 -1.3275,0 -2.13875,0.95875 -0.81125,0.95875 -0.81125,3.079062 V 0 h -7.5225 v -10.785937 q 0,-1.290625 -0.1475,-1.751562 -0.239687,-0.7375 -0.829687,-1.18 -0.59,-0.460938 -1.382813,-0.460938 -1.290625,0 -2.120312,0.977188 -0.8296874,0.977187 -0.8296874,3.2081244 V 0 H 2.3231249 Z"
         id="path44" /><path
         d="m 39.105936,-9.7349996 q 0,-4.4803124 3.02375,-7.3749994 3.023749,-2.913125 8.167812,-2.913125 5.881562,0 8.886874,3.410937 2.415313,2.747188 2.415313,6.7665624 0,4.5171873 -3.005313,7.4118747 -2.986874,2.87624988 -8.278437,2.87624988 -4.72,0 -7.633124,-2.39687488 -3.576875,-2.9684374 -3.576875,-7.7806247 z m 7.522499,-0.018437 q 0,2.6181249 1.050938,3.8718749 1.069375,1.2537499 2.673437,1.2537499 1.6225,0 2.655,-1.2353124 1.050938,-1.2353125 1.050938,-3.9640624 0,-2.5443754 -1.050938,-3.7796874 -1.050937,-1.25375 -2.599687,-1.25375 -1.640938,0 -2.710313,1.272187 -1.069375,1.25375 -1.069375,3.8350004 z"
         id="path46" /><path
         d="m 65.213731,-19.580624 h 6.987813 v 3.189687 q 1.567187,-1.954375 3.171249,-2.784062 1.604063,-0.848125 3.90875,-0.848125 3.115938,0 4.8675,1.862187 1.77,1.84375 1.77,5.715625 V 0 h -7.540937 v -10.7675 q 0,-1.843749 -0.682188,-2.599687 -0.682187,-0.774375 -1.9175,-0.774375 -1.364374,0 -2.212499,1.0325 -0.848125,1.0325 -0.848125,3.7059374 V 0 h -7.504063 z"
         id="path48" /><path
         d="m 89.072156,-5.4206248 7.44875,-0.7006249 q 0.460937,1.3274999 1.290625,1.8990624 0.829687,0.5715625 2.212499,0.5715625 1.51188,0 2.34156,-0.6453125 0.64532,-0.479375 0.64532,-1.1984375 0,-0.8112499 -0.84813,-1.2537499 -0.60844,-0.3134375 -3.226562,-0.774375 -3.90875,-0.6821874 -5.439062,-1.2537499 -1.511875,-0.59 -2.562813,-1.9728124 -1.0325,-1.382812 -1.0325,-3.152812 0,-1.935938 1.124688,-3.337188 1.124687,-1.40125 3.0975,-2.083437 1.972812,-0.700625 5.291562,-0.700625 3.503127,0 5.162497,0.534687 1.67782,0.534688 2.78407,1.659375 1.12468,1.124688 1.86218,3.042188 l -7.11687,0.700625 q -0.27656,-0.940313 -0.92188,-1.382813 -0.885,-0.59 -2.138747,-0.59 -1.272187,0 -1.862187,0.460938 -0.571563,0.4425 -0.571563,1.087812 0,0.719063 0.7375,1.087813 0.7375,0.36875 3.208127,0.66375 3.74281,0.424062 5.56812,1.18 1.82532,0.755937 2.78407,2.1571869 0.97718,1.40125 0.97718,3.0790624 0,1.6962499 -1.0325,3.3003123 -1.01406,1.6040625 -3.22656,2.56281242 -2.19406,0.94031246 -5.992187,0.94031246 -5.365312,0 -7.651562,-1.53031248 -2.267813,-1.5303124 -2.913125,-4.3512498 z"
         id="path50" /><path
         d="m 122.52383,-27.029374 v 7.44875 h 4.13 v 5.475937 h -4.13 v 6.9509373 q 0,1.25375 0.23968,1.6593749 0.36875,0.626875 1.29063,0.626875 0.82969,0 2.32312,-0.479375 l 0.55313,5.18093731 q -2.78406,0.60843747 -5.19938,0.60843747 -2.8025,0 -4.13,-0.71906247 -1.3275,-0.71906247 -1.97281,-2.17562491 -0.62687,-1.4749999 -0.62687,-4.7568748 v -6.8956248 h -2.76563 v -5.475937 h 2.76563 v -3.595312 z"
         id="path52" /><path
         d="m 151.97427,-7.9281246 h -15.045 q 0.20281,1.8068749 0.97719,2.6918748 1.08781,1.2721875 2.83937,1.2721875 1.10625,0 2.10188,-0.553125 0.60843,-0.3503125 1.30906,-1.2353124 l 7.39343,0.6821874 q -1.69625,2.9499999 -4.09312,4.24062484 -2.39688,1.27218744 -6.87719,1.27218744 -3.89031,0 -6.12125,-1.08781245 -2.23093,-1.10624993 -3.70593,-3.48468733 -1.45657,-2.3968749 -1.45657,-5.6234373 0,-4.5909369 2.93157,-7.4303119 2.95,-2.839375 8.13093,-2.839375 4.20375,0 6.6375,1.272187 2.43375,1.272188 3.70594,3.6875 1.27219,2.415313 1.27219,6.2871874 z m -7.63313,-3.5953124 q -0.22125,-2.175625 -1.18,-3.115937 -0.94031,-0.940313 -2.48906,-0.940313 -1.78844,0 -2.85781,1.419688 -0.68219,0.885 -0.86656,2.636562 z"
         id="path54" /><path
         d="m 155.49612,-19.580624 h 7.02469 v 3.208125 q 1.01406,-2.083438 2.08343,-2.857813 1.08782,-0.792812 2.67344,-0.792812 1.65938,0 3.63219,1.0325 l -2.32313,5.346875 q -1.3275,-0.553125 -2.10187,-0.553125 -1.475,0 -2.28625,1.216875 -1.16156,1.714687 -1.16156,6.4162493 V 0 h -7.54094 z"
         id="path56" /><path
         d="m 184.8172,-19.580624 h 7.00625 v 2.857812 q 1.51188,-1.788437 3.04219,-2.544375 1.54875,-0.755937 3.72438,-0.755937 2.34156,0 3.70593,0.829687 1.36438,0.829688 2.23094,2.470625 1.77,-1.9175 3.22656,-2.599687 1.45657,-0.700625 3.59532,-0.700625 3.15281,0 4.92281,1.880625 1.77,1.862187 1.77,5.844687 V 0 h -7.5225 v -11.154687 q 0,-1.3275 -0.51625,-1.972812 -0.75594,-1.014063 -1.88063,-1.014063 -1.3275,0 -2.13875,0.95875 -0.81125,0.95875 -0.81125,3.079062 V 0 h -7.5225 v -10.785937 q 0,-1.290625 -0.1475,-1.751562 -0.23968,-0.7375 -0.82968,-1.18 -0.59,-0.460938 -1.38282,-0.460938 -1.29062,0 -2.12031,0.977188 -0.82969,0.977187 -0.82969,3.2081244 V 0 h -7.5225 z"
         id="path58" /><path
         d="m 221.60001,-9.7349996 q 0,-4.4803124 3.02375,-7.3749994 3.02375,-2.913125 8.16781,-2.913125 5.88157,0 8.88688,3.410937 2.41531,2.747188 2.41531,6.7665624 0,4.5171873 -3.00531,7.4118747 -2.98688,2.87624988 -8.27844,2.87624988 -4.72,0 -7.63312,-2.39687488 -3.57688,-2.9684374 -3.57688,-7.7806247 z m 7.5225,-0.018437 q 0,2.6181249 1.05094,3.8718749 1.06937,1.2537499 2.67344,1.2537499 1.6225,0 2.655,-1.2353124 1.05093,-1.2353125 1.05093,-3.9640624 0,-2.5443754 -1.05093,-3.7796874 -1.05094,-1.25375 -2.59969,-1.25375 -1.64094,0 -2.71031,1.272187 -1.06938,1.25375 -1.06938,3.8350004 z"
         id="path60" /><path
         d="m 247.74469,-27.029374 h 7.57781 v 9.36625 q 1.12469,-1.18 2.54438,-1.77 1.43812,-0.59 3.17125,-0.59 3.57687,0 5.91843,2.58125 2.34157,2.562812 2.34157,7.374999 0,3.2081253 -1.06938,5.6603127 -1.06937,2.4337499 -2.96844,3.65062483 -1.88062,1.19843745 -4.18531,1.19843745 -1.97281,0 -3.61375,-0.84812496 -1.23531,-0.66375002 -2.69187,-2.48906242 V 0 h -7.02469 z m 7.5225,17.1837494 q 0,2.5259374 0.94031,3.6690624 0.95875,1.1246874 2.41531,1.1246874 1.34594,0 2.24938,-1.1062499 0.92187,-1.1246875 0.92187,-3.7612499 0,-2.3231244 -0.90343,-3.4109374 -0.885,-1.087812 -2.15719,-1.087812 -1.53031,0 -2.5075,1.143125 -0.95875,1.124687 -0.95875,3.4293744 z"
         id="path62" /><path
         d="m 273.17029,-27.029374 h 7.50406 v 5.107187 h -7.50406 z m 0,7.44875 h 7.50406 V 0 h -7.50406 z"
         id="path64" /><path
         d="m 285.72595,-27.029374 h 7.5225 V 0 h -7.5225 z"
         id="path66" /><path
         d="m 319.7797,-7.9281246 h -15.045 q 0.20282,1.8068749 0.97719,2.6918748 1.08781,1.2721875 2.83938,1.2721875 1.10625,0 2.10187,-0.553125 0.60844,-0.3503125 1.30906,-1.2353124 l 7.39344,0.6821874 q -1.69625,2.9499999 -4.09312,4.24062484 -2.39688,1.27218744 -6.87719,1.27218744 -3.89031,0 -6.12125,-1.08781245 -2.23094,-1.10624993 -3.70594,-3.48468733 -1.45656,-2.3968749 -1.45656,-5.6234373 0,-4.5909369 2.93156,-7.4303119 2.95,-2.839375 8.13094,-2.839375 4.20375,0 6.6375,1.272187 2.43375,1.272188 3.70593,3.6875 1.27219,2.415313 1.27219,6.2871874 z m -7.63312,-3.5953124 q -0.22125,-2.175625 -1.18,-3.115937 -0.94031,-0.940313 -2.48906,-0.940313 -1.78844,0 -2.85782,1.419688 -0.68218,0.885 -0.86656,2.636562 z"
         id="path68" /></g><g
       aria-label="Bridlewood Mall"
       transform="matrix(1,0,0,-1,19.3335,46.9531)"
       style="font-variant:normal;font-weight:900;font-stretch:normal;font-size:28px;font-family:'Arial Black';-inkscape-font-specification:Arial-Black;writing-mode:lr-tb;fill:#ffffff;fill-opacity:1;fill-rule:nonzero;stroke:none"
       id="text38"><path
         d="M 2.0644531,-20.042969 H 13.658203 q 2.898438,0 4.443359,1.435547 1.558594,1.435547 1.558594,3.554688 0,1.777343 -1.107422,3.048828 -0.738281,0.847656 -2.160156,1.339843 2.160156,0.519532 3.171875,1.7910161 1.025391,1.2578125 1.025391,3.171875 0,1.5585938 -0.72461,2.8027344 -0.724609,1.2441406 -1.982422,1.96875 -0.779296,0.45117187 -2.351562,0.65625 Q 13.439453,0 12.755859,0 H 2.0644531 Z M 8.3125,-12.181641 h 2.693359 q 1.449219,0 2.009766,-0.492187 0.574219,-0.50586 0.574219,-1.449219 0,-0.875 -0.574219,-1.367187 -0.560547,-0.492188 -1.96875,-0.492188 H 8.3125 Z m 0,7.8750004 h 3.158203 q 1.59961,0 2.25586,-0.5605469 0.65625,-0.5742187 0.65625,-1.53125 0,-0.8886719 -0.65625,-1.421875 -0.642579,-0.546875 -2.269532,-0.546875 H 8.3125 Z"
         id="path71" /><path
         d="m 23.520329,-14.519531 h 5.208984 v 2.378906 q 0.751953,-1.544922 1.544922,-2.119141 0.80664,-0.58789 1.982422,-0.58789 1.230468,0 2.693359,0.765625 l -1.722656,3.964843 q -0.984375,-0.410156 -1.558594,-0.410156 -1.09375,0 -1.695312,0.902344 -0.861329,1.2714844 -0.861329,4.7578125 V 0 h -5.591796 z"
         id="path73" /><path
         d="m 36.102718,-20.042969 h 5.564453 v 3.78711 h -5.564453 z m 0,5.523438 h 5.564453 V 0 h -5.564453 z"
         id="path75" /><path
         d="M 60.506798,-20.042969 V 0 h -5.208985 v -2.1464844 q -1.09375,1.36718753 -1.996093,1.84570315 -1.203125,0.62890625 -2.679688,0.62890625 -2.966797,0 -4.539062,-2.2558594 -1.558594,-2.2558593 -1.558594,-5.4824218 0,-3.6093748 1.722656,-5.5234378 1.736328,-1.914062 4.402344,-1.914062 1.298828,0 2.351562,0.4375 1.066407,0.4375 1.886719,1.3125 v -6.945313 z m -5.578125,12.7421878 q 0,-1.7089844 -0.72461,-2.5429688 -0.724609,-0.847656 -1.832031,-0.847656 -0.970703,0 -1.626953,0.8066404 -0.65625,0.8066406 -0.65625,2.7070312 0,1.7773438 0.669922,2.6113282 0.683594,0.8203124 1.681641,0.8203124 1.066406,0 1.777343,-0.8339843 0.710938,-0.8339844 0.710938,-2.7207031 z"
         id="path77" /><path
         d="m 64.089046,-20.042969 h 5.578125 V 0 h -5.578125 z"
         id="path79" /><path
         d="m 89.340782,-5.8789062 h -11.15625 q 0.150391,1.3398437 0.72461,1.9960937 0.80664,0.9433594 2.105468,0.9433594 0.820313,0 1.558594,-0.4101563 0.451172,-0.2597656 0.970703,-0.9160156 l 5.482422,0.5058594 q -1.257812,2.1875 -3.035156,3.14453123 -1.777344,0.94335937 -5.09961,0.94335937 -2.884765,0 -4.539062,-0.80664063 Q 74.698204,-1.2988281 73.604454,-3.0625 q -1.080078,-1.7773437 -1.080078,-4.1699219 0,-3.4042971 2.173828,-5.5097661 2.1875,-2.105468 6.029297,-2.105468 3.117187,0 4.921875,0.943359 1.804687,0.943359 2.748047,2.734375 0.943359,1.7910157 0.943359,4.6621095 z m -5.660156,-2.6660157 q -0.164063,-1.6132811 -0.875,-2.3105471 -0.697266,-0.697265 -1.845703,-0.697265 -1.326172,0 -2.119141,1.052734 -0.505859,0.65625 -0.642578,1.9550781 z"
         id="path81" /><path
         d="m 90.257019,-14.519531 h 5.386719 l 2.33789,9.1464841 2.953122,-9.1464841 h 5.01758 l 3.0625,9.1464841 2.33789,-9.1464841 h 5.34571 L 111.35272,0 H 106.4035 L 103.46405,-8.7363281 100.6203,0 h -4.976562 z"
         id="path83" /><path
         d="m 117.15324,-7.21875 q 0,-3.322266 2.24219,-5.46875 2.24219,-2.160156 6.05664,-2.160156 4.36133,0 6.58985,2.529297 1.79101,2.037109 1.79101,5.0175778 0,3.3496093 -2.22851,5.4960937 -2.21485,2.1328125 -6.13868,2.1328125 -3.5,0 -5.66015,-1.7773437 -2.65235,-2.2011719 -2.65235,-5.7695313 z m 5.57813,-0.013672 q 0,1.9414063 0.7793,2.8710938 0.79296,0.9296875 1.98242,0.9296875 1.20312,0 1.96875,-0.9160156 0.77929,-0.9160157 0.77929,-2.9394532 0,-1.8867187 -0.77929,-2.8027345 -0.7793,-0.929687 -1.92774,-0.929687 -1.21679,0 -2.00976,0.943359 -0.79297,0.9296875 -0.79297,2.84375 z"
         id="path85" /><path
         d="m 135.82925,-7.21875 q 0,-3.322266 2.24219,-5.46875 2.24219,-2.160156 6.05664,-2.160156 4.36133,0 6.58985,2.529297 1.79101,2.037109 1.79101,5.0175778 0,3.3496093 -2.22851,5.4960937 -2.21485,2.1328125 -6.13868,2.1328125 -3.5,0 -5.66015,-1.7773437 -2.65235,-2.2011719 -2.65235,-5.7695313 z m 5.57813,-0.013672 q 0,1.9414063 0.7793,2.8710938 0.79296,0.9296875 1.98242,0.9296875 1.20312,0 1.96875,-0.9160156 0.77929,-0.9160157 0.77929,-2.9394532 0,-1.8867187 -0.77929,-2.8027345 -0.7793,-0.929687 -1.92774,-0.929687 -1.21679,0 -2.00976,0.943359 -0.79297,0.9296875 -0.79297,2.84375 z"
         id="path87" /><path
         d="M 170.474,-20.042969 V 0 h -5.20899 v -2.1464844 q -1.09375,1.36718753 -1.99609,1.84570315 -1.20312,0.62890625 -2.67969,0.62890625 -2.96679,0 -4.53906,-2.2558594 -1.55859,-2.2558593 -1.55859,-5.4824218 0,-3.6093748 1.72265,-5.5234378 1.73633,-1.914062 4.40235,-1.914062 1.29883,0 2.35156,0.4375 1.06641,0.4375 1.88672,1.3125 v -6.945313 z m -5.57813,12.7421878 q 0,-1.7089844 -0.72461,-2.5429688 -0.7246,-0.847656 -1.83203,-0.847656 -0.9707,0 -1.62695,0.8066404 -0.65625,0.8066406 -0.65625,2.7070312 0,1.7773438 0.66992,2.6113282 0.6836,0.8203124 1.68164,0.8203124 1.06641,0 1.77735,-0.8339843 0.71093,-0.8339844 0.71093,-2.7207031 z"
         id="path89" /><path
         d="m 183.48962,-20.042969 h 8.14844 l 3.14453,12.1953128 3.13086,-12.1953128 h 8.1211 V 0 h -5.0586 V -15.285156 L 197.05212,0 h -4.58007 l -3.91016,-15.285156 V 0 h -5.07227 z"
         id="path91" /><path
         d="m 214.6931,-9.8164063 -5.31836,-0.5605467 q 0.30078,-1.394531 0.86133,-2.1875 0.57422,-0.806641 1.64062,-1.394531 0.76563,-0.423829 2.10547,-0.65625 1.33985,-0.232422 2.89844,-0.232422 2.50195,0 4.01953,0.287109 1.51758,0.273438 2.5293,1.162109 0.71094,0.615235 1.12109,1.75 0.41016,1.121094 0.41016,2.1464849 v 6.4121093 q 0,1.0253907 0.12304,1.6132813 Q 225.22044,-0.90234375 225.65794,0 h -5.22265 q -0.31446,-0.56054687 -0.41016,-0.84765625 -0.0957,-0.30078125 -0.19141,-0.92968745 -1.09375,1.05273433 -2.17382,1.5039062 -1.47657,0.6015625 -3.43164,0.6015625 -2.59766,0 -3.95118,-1.203125 -1.33984,-1.203125 -1.33984,-2.9667969 0,-1.6542968 0.9707,-2.7207031 0.97071,-1.0664062 3.58203,-1.5859375 3.13086,-0.6289063 4.06055,-0.875 0.92969,-0.2597656 1.96875,-0.6699219 0,-1.0253906 -0.42383,-1.4355466 -0.42382,-0.410157 -1.49023,-0.410157 -1.36719,0 -2.05078,0.4375 -0.53321,0.341797 -0.86133,1.2851567 z m 4.82617,2.9257813 q -1.14844,0.4101563 -2.39258,0.7246094 -1.69531,0.4511719 -2.14648,0.8886719 -0.46484,0.4511718 -0.46484,1.0253906 0,0.65625 0.45117,1.0800781 0.46484,0.4101562 1.35351,0.4101562 0.92969,0 1.72266,-0.4511718 0.80664,-0.4511719 1.13476,-1.09375 0.3418,-0.65625 0.3418,-1.6953125 z"
         id="path93" /><path
         d="m 228.48825,-20.042969 h 5.57813 V 0 h -5.57813 z"
         id="path95" /><path
         d="m 237.81224,-20.042969 h 5.57813 V 0 h -5.57813 z"
         id="path97" /></g><g
       aria-label="(Finch Av./Warden Av.)"
       transform="matrix(1,0,0,-1,19.3335,22.353)"
       style="font-variant:normal;font-weight:900;font-stretch:normal;font-size:20.5px;font-family:'Arial Black';-inkscape-font-specification:Arial-Black;writing-mode:lr-tb;fill:#ffffff;fill-opacity:1;fill-rule:nonzero;stroke:none"
       id="text42"><path
         d="M 4.6345215,-14.924561 H 7.177002 q -1.3112793,2.902832 -1.8918458,5.3652348 -0.4904785,2.092041 -0.4904785,4.4643555 0,4.57446289 2.3823243,9.4091797 H 4.6345215 Q 2.692627,1.5615234 1.9018555,-0.66064453 1.1210937,-2.8928223 1.1210937,-5.3352051 q 0,-2.5324707 0.8208008,-4.8146969 0.8308106,-2.282227 2.692627,-4.774659 z"
         id="path100" /><path
         d="M 9.4959846,-14.674316 H 20.706922 v 3.153076 h -6.656494 v 2.5624998 h 5.685547 v 2.9628906 H 14.050428 V 0 H 9.4959846 Z"
         id="path102" /><path
         d="m 23.029348,-14.674316 h 4.073975 v 2.772705 h -4.073975 z m 0,4.043945 h 4.073975 V 0 h -4.073975 z"
         id="path104" /><path
         d="m 29.705702,-10.630371 h 3.793701 v 1.7316894 q 0.85083,-1.0610352 1.72168,-1.5114744 0.870849,-0.460449 2.12207,-0.460449 1.69165,0 2.642578,1.0109859 0.960938,1.0009765 0.960938,3.1030273 V 0 h -4.093995 v -5.8457031 q 0,-1.0009766 -0.370361,-1.411377 -0.370361,-0.4204101 -1.041015,-0.4204101 -0.740723,0 -1.201172,0.5605468 -0.46045,0.5605469 -0.46045,2.0119629 V 0 h -4.073974 z"
         id="path106" /><path
         d="m 51.306934,-4.1540527 3.87378,0.4404297 q -0.320313,1.2111816 -1.051026,2.1020507 -0.730713,0.88085941 -1.871826,1.37133792 -1.131103,0.49047852 -2.882812,0.49047852 -1.691651,0 -2.822754,-0.31030273 -1.121094,-0.3203125 -1.931885,-1.02099611 -0.810791,-0.7106933 -1.27124,-1.6616211 -0.46045,-0.9509277 -0.46045,-2.5224609 0,-1.6416016 0.560547,-2.732666 0.410401,-0.8007813 1.121094,-1.4313965 0.710693,-0.6406248 1.461426,-0.9509278 1.191162,-0.490478 3.052978,-0.490478 2.602539,0 3.963868,0.9309077 1.371337,0.9309082 1.921875,2.7226563 l -3.833741,0.510498 q -0.180175,-0.680664 -0.660644,-1.0209961 -0.470459,-0.3503418 -1.27124,-0.3503418 -1.010987,0 -1.641602,0.7307129 -0.620605,0.7207032 -0.620605,2.1921387 0,1.3112793 0.620605,1.9919434 0.620605,0.680664 1.581543,0.680664 0.800781,0 1.341309,-0.4104004 0.550537,-0.4104004 0.8208,-1.2612304 z"
         id="path108" /><path
         d="m 56.702152,-14.674316 h 4.073975 v 5.405273 q 0.83081,-0.86084 1.651611,-1.231201 0.820801,-0.370361 1.941895,-0.370361 1.661621,0 2.612549,1.0109859 0.960937,1.0109863 0.960937,3.1030273 V 0 h -4.093994 v -5.8457031 q 0,-1.0009766 -0.370361,-1.411377 -0.370362,-0.4204101 -1.041016,-0.4204101 -0.740723,0 -1.201172,0.5605468 -0.460449,0.5605469 -0.460449,2.0119629 V 0 h -4.073975 z"
         id="path110" /><path
         d="M 86.501221,-2.4223633 H 81.336182 L 80.625488,0 h -4.634521 l 5.515381,-14.674316 h 4.944824 L 91.966553,0 h -4.744629 z m -0.950928,-3.1730957 -1.621582,-5.275146 -1.611572,5.275146 z"
         id="path112" /><path
         d="m 91.587372,-10.630371 h 4.24414 l 2.062012,6.7365722 2.132076,-6.7365722 h 4.11402 L 99.625214,0 h -3.613526 z"
         id="path114" /><path
         d="m 103.42961,-4.0839844 h 4.35425 V 0 h -4.35425 z"
         id="path116" /><path
         d="m 112.68848,-14.924561 h 2.08204 l -3.6836,15.16479538 h -2.06201 z"
         id="path118" /><path
         d="m 114.70389,-14.674316 h 4.3042 l 1.55151,8.1979976 2.26221,-8.1979976 h 4.29419 l 2.27221,8.1979976 1.55152,-8.1979976 h 4.28418 L 131.99075,0 h -4.44433 L 124.97391,-9.2390137 122.41141,0 h -4.44434 z"
         id="path120" /><path
         d="m 139.80818,-7.1870117 -3.8938,-0.4104004 q 0.22022,-1.0209961 0.63062,-1.6015625 0.42041,-0.5905762 1.20117,-1.0209964 0.56055,-0.310302 1.5415,-0.480468 0.98096,-0.170166 2.12207,-0.170166 1.83179,0 2.94288,0.210205 1.11108,0.200195 1.8518,0.8508297 0.52051,0.4504394 0.8208,1.28125 0.3003,0.8208008 0.3003,1.5715332 v 4.6945801 q 0,0.7507324 0.0901,1.1811523 Q 147.5157,-0.66064453 147.83601,0 h -3.82373 q -0.23022,-0.41040039 -0.30029,-0.62060547 -0.0701,-0.22021484 -0.14014,-0.68066403 -0.80078,0.77075192 -1.59155,1.10107419 -1.08105,0.44042969 -2.51245,0.44042969 -1.90186,0 -2.89282,-0.88085938 -0.98096,-0.8808594 -0.98096,-2.1721191 0,-1.2111817 0.71069,-1.9919434 0.7107,-0.7807617 2.62256,-1.1611328 2.29224,-0.4604492 2.9729,-0.640625 0.68067,-0.1901856 1.44141,-0.4904785 0,-0.7507324 -0.3103,-1.0510254 -0.31031,-0.300293 -1.09107,-0.300293 -1.00097,0 -1.50146,0.3203125 -0.39038,0.2502442 -0.63062,0.940918 z m 3.53345,2.1420898 q -0.84082,0.300293 -1.75171,0.5305176 -1.24121,0.3303223 -1.57153,0.6506348 -0.34034,0.3303222 -0.34034,0.7507324 0,0.4804687 0.33033,0.7907715 0.34033,0.3002929 0.99096,0.3002929 0.68067,0 1.26123,-0.3303222 0.59058,-0.3303223 0.83081,-0.8007813 0.25025,-0.4804687 0.25025,-1.2412109 z"
         id="path122" /><path
         d="m 149.80809,-10.630371 h 3.81372 v 1.7416991 q 0.55054,-1.1311031 1.1311,-1.5515141 0.59058,-0.430419 1.45142,-0.430419 0.90088,0 1.97192,0.560546 l -1.26123,2.9028324 q -0.7207,-0.3002929 -1.14111,-0.3002929 -0.80078,0 -1.24121,0.6606445 -0.63062,0.9309082 -0.63062,3.4833984 V 0 h -4.09399 z"
         id="path124" /><path
         d="M 170.56732,-14.674316 V 0 h -3.81372 v -1.5715332 q -0.80078,1.00097656 -1.46142,1.35131836 -0.88086,0.46044922 -1.96192,0.46044922 -2.17212,0 -3.32324,-1.65161138 -1.14111,-1.6516113 -1.14111,-4.013916 0,-2.6425781 1.26123,-4.0439453 1.27124,-1.4013667 3.22314,-1.4013667 0.95093,0 1.72168,0.320312 0.78076,0.320313 1.38135,0.9609375 v -5.0849605 z m -4.08398,9.3291012 q 0,-1.2512207 -0.53052,-1.8618164 -0.53052,-0.6206055 -1.34131,-0.6206055 -0.71069,0 -1.19116,0.5905762 -0.48047,0.5905761 -0.48047,1.9819335 0,1.3012696 0.49048,1.9118653 0.50049,0.6005859 1.2312,0.6005859 0.78076,0 1.30127,-0.6105957 0.52051,-0.6105957 0.52051,-1.9919433 z"
         id="path126" /><path
         d="m 184.85141,-4.3041992 h -8.16797 q 0.11011,0.980957 0.53052,1.4614258 0.59057,0.6906738 1.5415,0.6906738 0.60059,0 1.14112,-0.300293 0.33032,-0.1901855 0.71069,-0.6706543 l 4.01392,0.3703614 q -0.9209,1.6015625 -2.22217,2.30224605 -1.30127,0.69067383 -3.73365,0.69067383 -2.11206,0 -3.32324,-0.59057618 -1.21118,-0.60058593 -2.01196,-1.8918457 -0.79077,-1.3012695 -0.79077,-3.0529785 0,-2.4924317 1.59155,-4.0339356 1.60156,-1.5415034 4.41431,-1.5415034 2.28222,0 3.60351,0.690673 1.32129,0.6906742 2.01197,2.0019535 0.69067,1.3112793 0.69067,3.4133301 z m -4.14404,-1.9519043 q -0.12012,-1.1811524 -0.64063,-1.6916504 -0.5105,-0.5104981 -1.35132,-0.5104981 -0.97094,0 -1.55151,0.770752 -0.37036,0.4804688 -0.47046,1.4313965 z"
         id="path128" /><path
         d="m 186.7234,-10.630371 h 3.79371 v 1.7316894 q 0.85083,-1.0610352 1.72167,-1.5114744 0.87085,-0.460449 2.12208,-0.460449 1.69165,0 2.64257,1.0109859 0.96094,1.0009765 0.96094,3.1030273 V 0 h -4.09399 v -5.8457031 q 0,-1.0009766 -0.37036,-1.411377 -0.37037,-0.4204101 -1.04102,-0.4204101 -0.74072,0 -1.20117,0.5605468 -0.46045,0.5605469 -0.46045,2.0119629 V 0 h -4.07398 z"
         id="path130" /><path
         d="m 216.52248,-2.4223633 h -5.16504 L 210.64674,0 h -4.63452 l 5.51538,-14.674316 h 4.94483 L 221.98781,0 h -4.74463 z m -0.95093,-3.1730957 -1.62158,-5.275146 -1.61158,5.275146 z"
         id="path132" /><path
         d="m 221.60861,-10.630371 h 4.24414 l 2.06201,6.7365722 2.13208,-6.7365722 h 4.11402 L 229.64645,0 h -3.61352 z"
         id="path134" /><path
         d="m 233.44881,-4.0839844 h 4.35424 V 0 h -4.35424 z"
         id="path136" /><path
         d="m 242.37737,-14.924561 h -2.54249 q 1.31128,2.902832 1.89185,5.3652348 0.49048,2.092041 0.49048,4.4643555 0,4.57446289 -2.38233,9.4091797 h 2.54249 q 1.94189,-2.7526856 2.72265,-4.97485353 0.79077,-2.23217777 0.79077,-4.67456057 0,-2.5324707 -0.83081,-4.8146969 -0.8208,-2.282227 -2.68261,-4.774659 z"
         id="path138" /></g></g></svg>
