<?xml version="1.0" encoding="UTF-8" standalone="no"?>
<!-- Created with Inkscape (http://www.inkscape.org/) -->

<svg
   width="29.313894mm"
   height="34.666618mm"
   viewBox="0 0 29.313895 34.666619"
   version="1.1"
   id="svg3804"
   inkscape:version="1.1 (c68e22c387, 2021-05-23)"
   sodipodi:docname="7902-Logo-Icon_MonoWhite.svg"
   xmlns:inkscape="http://www.inkscape.org/namespaces/inkscape"
   xmlns:sodipodi="http://sodipodi.sourceforge.net/DTD/sodipodi-0.dtd"
   xmlns:xlink="http://www.w3.org/1999/xlink"
   xmlns="http://www.w3.org/2000/svg"
   xmlns:svg="http://www.w3.org/2000/svg">
  <sodipodi:namedview
     id="namedview3806"
     pagecolor="#505050"
     bordercolor="#eeeeee"
     borderopacity="1"
     inkscape:pageshadow="0"
     inkscape:pageopacity="0"
     inkscape:pagecheckerboard="0"
     inkscape:document-units="mm"
     showgrid="false"
     inkscape:zoom="2"
     inkscape:cx="7.25"
     inkscape:cy="-8.75"
     inkscape:window-width="1920"
     inkscape:window-height="1051"
     inkscape:window-x="-9"
     inkscape:window-y="-9"
     inkscape:window-maximized="1"
     inkscape:current-layer="layer1" />
  <defs
     id="defs3801">
    <inkscape:path-effect
       effect="spiro"
       id="path-effect9538"
       is_visible="true"
       lpeversion="1" />
    <inkscape:path-effect
       effect="spiro"
       id="path-effect8607"
       is_visible="true"
       lpeversion="1" />
    <inkscape:path-effect
       effect="spiro"
       id="path-effect7953"
       is_visible="true"
       lpeversion="1" />
    <inkscape:path-effect
       effect="spiro"
       id="path-effect4909"
       is_visible="true"
       lpeversion="1" />
    <linearGradient
       inkscape:collect="always"
       id="Light_Blue_Gradient">
      <stop
         style="stop-color:#65e9ff;stop-opacity:1;"
         offset="0"
         id="stop5861" />
      <stop
         style="stop-color:#b2eff0;stop-opacity:1"
         offset="1"
         id="stop5863" />
    </linearGradient>
    <linearGradient
       inkscape:collect="always"
       id="Paired_with_Light_Blue_Clarinet">
      <stop
         style="stop-color:#0b32b0;stop-opacity:1;"
         offset="0"
         id="stop7350" />
      <stop
         style="stop-color:#4caeff;stop-opacity:1"
         offset="1"
         id="stop7352" />
    </linearGradient>
    <linearGradient
       id="_Linear1"
       x1="0"
       y1="0"
       x2="1"
       y2="0"
       gradientUnits="userSpaceOnUse"
       gradientTransform="matrix(1,0,0,-1,0,4.43368e-5)">
      <stop
         offset="0"
         style="stop-color:rgb(236,219,158);stop-opacity:1"
         id="stop4675" />
      <stop
         offset="0.07"
         style="stop-color:rgb(236,219,158);stop-opacity:1"
         id="stop4677" />
      <stop
         offset="0.3"
         style="stop-color:rgb(251,179,106);stop-opacity:1"
         id="stop4679" />
      <stop
         offset="0.58"
         style="stop-color:rgb(235,144,83);stop-opacity:1"
         id="stop4681" />
      <stop
         offset="0.88"
         style="stop-color:rgb(231,106,76);stop-opacity:1"
         id="stop4683" />
      <stop
         offset="1"
         style="stop-color:rgb(231,106,76);stop-opacity:1"
         id="stop4685" />
    </linearGradient>
    <radialGradient
       id="radialGradient16626-9-5-5-9-9-5-5-6"
       cx="-62.826"
       cy="38.674999"
       r="62.849998"
       gradientTransform="matrix(0.90162,0.60578,-0.58626,0.87258,10.798,34.317)"
       gradientUnits="userSpaceOnUse">
      <stop
         stop-color="#f35e5e"
         offset="0"
         id="stop7052" />
      <stop
         stop-color="#f03737"
         offset="1"
         id="stop7054" />
    </radialGradient>
    <linearGradient
       id="linearGradient39939"
       x1="-11.942"
       x2="-76.394997"
       y1="73.220001"
       y2="-11.117"
       gradientUnits="userSpaceOnUse">
      <stop
         stop-color="#001498"
         offset="0"
         id="stop7057" />
      <stop
         stop-color="#b4007a"
         offset="1"
         id="stop7059" />
    </linearGradient>
    <linearGradient
       id="linearGradient39937"
       x1="-86.053001"
       x2="-23.153"
       y1="7.8832002"
       y2="74.710999"
       gradientUnits="userSpaceOnUse"
       xlink:href="#Paired_with_Light_Blue_Clarinet" />
    <linearGradient
       id="linearGradient39943"
       x1="-7.7529998"
       x2="144.89999"
       y1="18.666"
       y2="-26.424"
       gradientUnits="userSpaceOnUse"
       xlink:href="#linearGradient5360" />
    <linearGradient
       id="linearGradient5360">
      <stop
         stop-color="#00a8b4"
         offset="0"
         id="stop7069" />
      <stop
         stop-color="#90e0ef"
         offset="1"
         id="stop7071" />
    </linearGradient>
    <linearGradient
       id="linearGradient39941"
       x1="79.050003"
       x2="126.04"
       y1="40.539001"
       y2="-32.618999"
       gradientUnits="userSpaceOnUse"
       xlink:href="#Light_Blue_Gradient" />
    <linearGradient
       id="linearGradient39947"
       x1="15.056"
       x2="117.36"
       y1="67"
       y2="-0.88132"
       gradientUnits="userSpaceOnUse"
       xlink:href="#linearGradient5360" />
    <linearGradient
       id="linearGradient39945"
       x2="138.44"
       y1="104.27"
       y2="-27.177999"
       gradientUnits="userSpaceOnUse"
       xlink:href="#Light_Blue_Gradient" />
    <linearGradient
       id="linearGradient39949"
       x1="11.448"
       x2="-78.149002"
       y1="-78.487"
       y2="84.490997"
       gradientUnits="userSpaceOnUse"
       xlink:href="#Paired_with_Light_Blue_Clarinet" />
    <linearGradient
       id="linearGradient39953"
       x1="-129.75999"
       x2="32.405998"
       y1="52.285"
       y2="29.621"
       gradientUnits="userSpaceOnUse"
       xlink:href="#linearGradient5360" />
    <linearGradient
       id="linearGradient39951"
       x1="-106.78"
       x2="62.125"
       y1="97.519997"
       y2="-23.360001"
       gradientUnits="userSpaceOnUse"
       xlink:href="#Light_Blue_Gradient" />
    <linearGradient
       id="linearGradient39955"
       x2="1"
       gradientTransform="matrix(1,0,0,-1,0,4.4337e-5)"
       gradientUnits="userSpaceOnUse">
      <stop
         stop-color="#ecdb9e"
         offset="0"
         id="stop7085" />
      <stop
         stop-color="#ecdb9e"
         offset=".07"
         id="stop7087" />
      <stop
         stop-color="#fbb36a"
         offset=".3"
         id="stop7089" />
      <stop
         stop-color="#eb9053"
         offset=".58"
         id="stop7091" />
      <stop
         stop-color="#e76a4c"
         offset=".88"
         id="stop7093" />
      <stop
         stop-color="#e76a4c"
         offset="1"
         id="stop7095" />
    </linearGradient>
    <linearGradient
       id="linearGradient39959"
       x2="17.261"
       y1="0.88749999"
       y2="0.88749999"
       gradientUnits="userSpaceOnUse"
       xlink:href="#Light_Blue_Gradient" />
    <linearGradient
       id="linearGradient39963"
       x2="8.6309996"
       y1="5.4805002"
       y2="5.4805002"
       gradientUnits="userSpaceOnUse"
       xlink:href="#Light_Blue_Gradient" />
    <linearGradient
       id="linearGradient39965"
       x1="-63.271"
       x2="-96.143997"
       y1="161.07001"
       y2="71.083"
       gradientUnits="userSpaceOnUse"
       xlink:href="#Paired_with_Light_Blue_Clarinet" />
    <linearGradient
       id="linearGradient39969"
       x1="735.47998"
       x2="1350"
       y1="2209.7"
       y2="1884.5"
       gradientUnits="userSpaceOnUse"
       xlink:href="#linearGradient5360" />
    <linearGradient
       id="linearGradient39967"
       x1="918.37"
       x2="965.66998"
       y1="1725.3"
       y2="2248.8"
       gradientUnits="userSpaceOnUse"
       xlink:href="#Light_Blue_Gradient" />
  </defs>
  <g
     inkscape:label="Layer 1"
     inkscape:groupmode="layer"
     id="layer1"
     transform="translate(-49.68829,-104.03335)">
    <g
       id="g4633-2-2-9-2-0-1-9-5-8-0-6-4-3-0-1-3-8-1"
       transform="matrix(0.42032989,-0.35887312,-0.35887312,-0.42032989,128.91976,91.769939)"
       style="clip-rule:evenodd;fill-rule:evenodd;stroke:#902fa5;stroke-width:2.1712;stroke-linejoin:round;stroke-miterlimit:1.41421;stroke-dasharray:none;stroke-opacity:1;paint-order:stroke fill markers" />
    <g
       id="g1191"
       style="fill:#ffffff;fill-opacity:1"
       inkscape:export-filename="C:\Users\argon\Downloads\g1191.png"
       inkscape:export-xdpi="935.80176"
       inkscape:export-ydpi="935.80176"
       transform="translate(-47.81169,44.993539)">
      <path
         id="path24883-9"
         style="color:#000000;clip-rule:evenodd;fill:#ffffff;fill-opacity:1;stroke-width:1.2;stroke-linejoin:round;stroke-miterlimit:1.41421;-inkscape-stroke:none;paint-order:stroke fill markers"
         d="m 125.428,67.669773 c -3.4846,3.604825 -4.53524,7.925967 -4.12068,8.311121 0.44456,-0.085 0.62873,-0.014 0.93379,0.178282 -1.45514,1.855761 0.70762,6.356765 -3.44268,10.627775 -2.42664,2.497185 -5.4649,4.082108 -9.84281,2.904215 0.23844,0.390231 0.6987,0.514008 1.0768,0.63468 4.19914,1.329409 10.36786,-0.915959 13.03707,-8.396997 0.5869,-1.872588 1.11719,-3.711398 1.2596,-5.300226 2.23964,1.908487 2.28214,5.799307 1.96139,7.979119 0.374,-1.065099 0.568,-2.325851 0.51469,-3.853511 -0.20225,-3.368198 -3.40033,-8.806251 -1.37717,-13.084471 z"
         sodipodi:nodetypes="cccscccccccc" />
      <path
         id="path24875-2"
         style="color:#000000;clip-rule:evenodd;fill:#ffffff;fill-opacity:1;stroke-width:1.2;stroke-linejoin:round;stroke-miterlimit:1.41421;-inkscape-stroke:none;paint-order:stroke fill markers"
         d="m 124.68179,77.816957 c -0.22557,1.591141 -0.58242,3.029323 -1.04335,4.321183 -2.66503,7.469306 -8.81985,10.038789 -13.33045,8.89713 0.33798,0.258413 0.69118,0.48537 1.04903,0.68213 1.47203,0.809379 3.81453,1.077019 4.38578,0.98392 0.0631,-0.0105 0.11654,-0.01173 0.16278,-0.0067 2.46879,-0.27441 5.09622,-1.205386 7.03575,-2.963646 0.13839,-0.125409 0.30351,-0.2175 0.44545,-0.331761 l -0.23668,-0.70745 c 0.78985,-0.31363 0.93477,-0.507133 1.41283,-0.949812 1.84281,-3.050892 1.44547,-7.408886 0.11886,-9.924976 z" />
      <path
         id="path4619-8-7-7-7-3-2-2-0-7-0-3-2-7-1-0-6"
         style="clip-rule:evenodd;fill:#ffffff;fill-opacity:1;fill-rule:nonzero;stroke:none;stroke-width:1.2;stroke-linejoin:round;stroke-miterlimit:1.41421;stroke-dasharray:none;stroke-opacity:1;paint-order:stroke fill markers"
         d="m 120.53837,77.404061 c -0.70367,0.01371 -2.52322,2.068436 -2.93212,4.144968 -0.2993,1.51987 -0.59031,3.134537 -2.22828,4.882388 -1.9048,2.032603 -4.41866,2.835008 -6.69469,2.556433 4.4263,1.360959 7.26546,-0.127838 9.6852,-2.617927 0.44931,-0.462373 0.82562,-0.886802 1.06498,-1.382861 0.2368,-0.490749 0.33107,-0.993645 0.38351,-1.450557 0.13137,-1.207722 -0.22045,-5.170053 0.81649,-6.119524 -0.0289,-0.009 -0.0605,-0.01363 -0.0951,-0.01291 z"
         sodipodi:nodetypes="csscsscccc" />
      <path
         id="path24843-0"
         style="color:#000000;clip-rule:evenodd;fill:#ffffff;fill-opacity:1;stroke-width:1.2;stroke-linejoin:round;stroke-miterlimit:1.41421;-inkscape-stroke:none;paint-order:stroke fill markers"
         d="m 117.04246,59.039809 c -0.0285,0.25555 -1.04466,1.996945 0.52659,4.603337 -0.48793,-0.34785 -0.73697,-0.337275 -1.22422,-1.366327 -0.0592,0.203592 0.002,1.047904 0.10439,1.496034 -1.06646,-0.384572 -2.13621,-0.505656 -2.96106,-0.466638 0.64407,1.510765 1.8452,4.951484 1.11414,8.25686 0.71583,-0.123725 1.76058,-0.05811 2.78485,0.897101 1.81253,1.690402 0.78222,3.437427 0.6475,3.571875 0,0 3.78111,-2.473968 2.7435,-7.246067 -0.26998,-1.123151 -0.90368,-2.783707 -1.89032,-4.759917 -0.16388,-0.32824 -1.20992,-2.278015 -1.5875,-3.503144 -0.1478,-0.47956 -0.25787,-1.483114 -0.25787,-1.483114 z" />
      <g
         id="g4609-3-9-0-7-5-9-0-8-2-8-6-3-2-1-6-5-8-5-9"
         transform="matrix(0.09218112,0,0,0.09218112,110.03837,73.595392)"
         style="clip-rule:evenodd;fill:#ffffff;fill-opacity:1;fill-rule:evenodd;stroke:none;stroke-width:13.0178;stroke-linejoin:round;stroke-miterlimit:1.41421;stroke-dasharray:none;stroke-opacity:1;paint-order:stroke fill markers">
        <path
           id="path4607-6-9-7-8-5-3-1-1-5-5-5-6-5-6-2-4-2-4-2"
           style="fill:#ffffff;fill-opacity:1;fill-rule:nonzero;stroke:none;stroke-width:13.0178;stroke-miterlimit:1.41421;stroke-dasharray:none;stroke-opacity:1;paint-order:stroke fill markers"
           d="m 0,42.622 c 0,0 -18.907,-5.517 -24.103,-9.34 l 5.391,-12.662 c 0,0 -14.089,4.376 -22.103,3.249 0,0 19.855,-19.337 34.98,-38.48 0,0 -28.511,11.274 -29.379,10.049 0,0 10.654,-15.935 18.651,-39.916 0,0 -26.443,16.106 -29.906,22.17 -3.464,6.062 -4.299,-9.527 -10.361,-14.724 0,0 -15.543,21.812 -21.607,47.795 0,0 -11,-13.528 -7.714,-32.793 0,0 -8.599,10.456 -10.328,15.653 0,0 -6.91,-13.015 -10.946,-20.81 -4.038,-7.795 -7.145,37.51 -4.546,41.841 0,0 -10.033,2.605 -13.73,-2.293 0,0 9.999,25.374 27.747,35.412 0,0 -8.356,-1.089 -13.551,2.882 0,0 20.415,3.655 20.415,9.718 0,0 -6.118,17.522 -2.804,26.727 l 6.79,-7.999 c 0,0 -3.075,-15.983 5.588,-16.849 0,0 22.138,3.674 31.663,17.531 0,0 1.428,-7.6 -8.411,-18.158 0,0 14.13,2.984 38.697,3.182 0,0 -6.238,-2.892 -10.259,-8.894 0,0 19.443,0.766 29.826,-13.291"
           inkscape:connector-curvature="0" />
      </g>
      <path
         style="color:#000000;clip-rule:evenodd;fill:#ffffff;fill-opacity:1;stroke-width:1.2;stroke-linejoin:round;stroke-miterlimit:1.41421;-inkscape-stroke:none;paint-order:stroke fill markers"
         d="m 101.15095,71.798602 c 0.19017,-0.57106 1.8239,-1.73273 1.8239,-1.73273 0,1.23726 -0.1003,2.64919 -0.1003,2.64919 0.66629,-2.85512 2.1705,-4.02103 2.1705,-4.02103 0.66629,0.57106 0.86862,1.5256 0.86862,1.5256 l 3.86543,-2.5218 c -0.39545,3.10844 -1.49517,4.19111 -1.49517,4.19111 0.0951,0.13467 2.35559,-0.56812 2.35559,-0.56812 -0.56488,1.94152 -2.75538,3.52556 -2.75538,3.52556 1.38788,-0.25985 1.82177,-0.64222 1.82177,-0.64222 l -0.80087,2.11713 c 0.28798,0.21211 1.29865,0.56295 1.66793,0.63549 0.19072,0.0375 0.51889,-0.16408 0.54774,-0.20021 1.19033,-1.05474 2.03794,-2.52937 2.70376,-4.60897 1.3652,-4.26375 -1.23827,-9.36367 -1.23827,-9.36367 0,0 -1.44291,0.37794 -3.45458,0.91766 -3.65673,0.98219 -5.09964,1.69743 -7.10652,3.90489 -0.59521,0.65393 -1.24545,1.522 -1.62146,2.06108 -0.0139,0.0199 -0.10878,0.14776 -0.12131,0.16841 0.37868,0.8194 0.86862,1.96263 0.86862,1.96263"
         id="path24851-8" />
      <g
         id="g4637-5-3-5-59-3-1-0-6-6-0-3-6-4-1-2-1-5-4-3"
         transform="matrix(0.09218112,0,0,0.09218112,108.56159,78.855332)"
         style="clip-rule:evenodd;fill:#ffffff;fill-opacity:1;fill-rule:evenodd;stroke:none;stroke-width:13.0178;stroke-linejoin:round;stroke-miterlimit:1.41421;stroke-dasharray:none;stroke-opacity:1;paint-order:stroke fill markers">
        <path
           id="path4635-0-8-8-9-6-9-5-4-8-8-5-7-4-2-21-14-9-6-2"
           style="fill:#ffffff;fill-opacity:1;fill-rule:nonzero;stroke:none;stroke-width:13.0178;stroke-miterlimit:1.41421;stroke-dasharray:none;stroke-opacity:1;paint-order:stroke fill markers"
           d="M 0,2.382 C 1.698,5.496 4.852,7.228 6.537,7.228 10.155,2.317 12.717,0.089 17.261,-5.453 8.554,0.584 0,2.382 0,2.382"
           inkscape:connector-curvature="0" />
      </g>
      <g
         id="g4641-09-9-0-8-9-9-5-8-7-8-0-6-6-9-7-3-8-3-0"
         transform="matrix(0.09218112,0,0,0.09218112,98.289873,72.547472)"
         style="clip-rule:evenodd;fill:#ffffff;fill-opacity:1;fill-rule:evenodd;stroke:none;stroke-width:13.0178;stroke-linejoin:round;stroke-miterlimit:1.41421;stroke-dasharray:none;stroke-opacity:1;paint-order:stroke fill markers">
        <path
           id="path4639-0-7-9-6-4-6-7-8-8-7-8-7-2-1-29-1-7-1-7"
           style="fill:#ffffff;fill-opacity:1;fill-rule:nonzero;stroke:none;stroke-width:13.0178;stroke-miterlimit:1.41421;stroke-dasharray:none;stroke-opacity:1;paint-order:stroke fill markers"
           d="m 0,14.901 c 3.508,2.442 7.914,3.854 7.901,3.204 C 6.886,16.413 7.884,1.564 8.631,-7.302 1.407,7.862 1.723,9.629 0,14.901"
           inkscape:connector-curvature="0" />
      </g>
      <path
         id="path24867-0"
         style="color:#000000;clip-rule:evenodd;fill:#ffffff;fill-opacity:1;stroke-width:1.2;stroke-linejoin:round;stroke-miterlimit:1.41421;-inkscape-stroke:none;paint-order:stroke fill markers"
         d="m 100.04815,84.049135 c 0.0275,0.18129 -0.0309,0.185492 0.008,0.382921 0.11157,0.687816 0.23769,1.439318 0.284,1.476944 0,0 -0.787457,-0.131165 -1.313397,-0.95553 0,0 -0.14024,-0.158075 -0.34726,-0.458369 0.57352,1.502794 1.458907,3.114786 2.833927,4.567679 1.50044,1.720192 3.57221,3.208105 6.43269,4.643647 0,0 -0.61327,-0.4693 -1.51102,-1.3193 3.32193,1.592059 5.767,1.52713 8.66148,0.88315 -1.66258,0.27083 -6.49502,-1.190284 -7.75818,-5.461683 -0.18133,-0.613309 -0.3128,-1.31882 -0.38602,-1.845365 -0.0567,0.105497 -0.12472,0.286237 -0.14918,0.57431 -0.26428,-0.04979 -0.72073,-0.314323 -0.87143,-0.438917 0,0 -0.53697,-0.346946 -1.08314,-1.438156 -0.12605,0.782441 -0.1269,1.864005 0.28319,2.738334 0.20512,0.434271 -0.15767,0.921549 -0.63252,0.849561 0,0 -1.27175,-0.199631 -2.5275,-1.226283 -0.74705,-0.610759 -1.40711,-1.661403 -1.92391,-2.972943 z"
         sodipodi:nodetypes="ccccccccccccccccscc" />
      <path
         style="color:#000000;clip-rule:evenodd;fill:#ffffff;fill-opacity:1;fill-rule:evenodd;stroke-width:1.2;stroke-linejoin:round;stroke-miterlimit:1.41421;-inkscape-stroke:none;paint-order:stroke fill markers"
         d="m 108.56369,80.238522 c 0,0 -1.75061,2.08055 -2.12687,5.58303 0,0 -1.12627,-0.48974 -1.42725,-2.09888 -0.29594,-1.58173 -1.49748,1.63419 -0.41977,3.93191 0,0 -4.40247,-0.67318 -4.687507,-6.75841 -0.0467,-0.99725 -1.11765,0.2103 -0.43377,3.65206 0,0 -3.036213,-3.31162 -1.56717,-9.08119 0,0 0.4725,1.18924 1.74907,2.32278 0,0 -0.768,0.17099 -1.48321,0.99347 0,0 2.522797,0.026 2.518657,0.62966 -0.004,0.60364 -0.33716,2.47347 0.40578,3.47016 l 1.53919,-1.80504 c 0,0 -0.12861,-1.01992 0.13992,-1.06344 0.26853,-0.0435 2.18858,0.66997 3.17632,2.25281 0,0 0.54613,-0.9792 -0.014,-2.05691 0,0 1.60047,0.10592 2.6306,0.028 z"
         id="path24859-1" />
    </g>
  </g>
</svg>
