<?xml version="1.0" encoding="UTF-8" standalone="no"?>
<!-- Generator: Adobe Illustrator 23.0.6, SVG Export Plug-In . SVG Version: 6.00 Build 0)  -->

<svg
   version="1.1"
   id="Layer_1"
   x="0px"
   y="0px"
   viewBox="0 0 666.7851 86.580083"
   xml:space="preserve"
   width="666.7851"
   height="86.580086"
   xmlns="http://www.w3.org/2000/svg"
   xmlns:svg="http://www.w3.org/2000/svg"><defs
   id="defs829" />
<path
   id="rect33840"
   style="fill:#000000;fill-opacity:1;stroke-width:3.77953;stroke-linecap:square;paint-order:markers stroke fill"
   d="M 17.066406,0 0,86.580082 H 72.390625 L 89.45508,0 Z m 10.052735,22.392578 h 8.4375 L 44.15625,46.568359 60.818359,22.392578 h 8.857422 l -7.232422,41.734374 h -9.591797 l 3.78125,-21.980468 -12.21875,17.867188 h -4.560546 l -6.648438,-17.88086 -3.884766,21.99414 H 19.78125 Z" />
<g
   aria-label="ADVISORS"
   transform="matrix(0.94316235,0,0,1.0602629,-20.65625,-46.523438)"
   id="text2880"
   style="font-size:54.8594px;font-family:'Cooper Hewitt';-inkscape-font-specification:'Cooper Hewitt';letter-spacing:15.6173px;fill:#000000;fill-opacity:1;stroke-width:1.37149"><path
     d="m 315.02659,91.261429 16.95155,-38.401581 h 10.69758 l 17.00642,38.401581 H 348.3811 L 335.10513,58.18121 h 4.27903 l -13.27598,33.080219 z m 9.27123,-7.460879 2.79783,-8.009472 h 18.76192 l 2.79783,8.009472 z"
     style="-inkscape-font-specification:'Montserrat, @wght=800';fill:#000000;fill-opacity:1"
     id="path34249" /><path
     d="M 378.37152,91.261429 V 52.859848 h 18.15846 q 6.3637,0 11.19132,2.358954 4.82763,2.358954 7.51574,6.637988 2.74297,4.279033 2.74297,10.203848 0,5.869956 -2.74297,10.203849 -2.68811,4.279033 -7.51574,6.637988 -4.82762,2.358954 -11.19132,2.358954 z m 10.86216,-8.667786 h 6.85743 q 3.29156,0 5.70538,-1.206906 2.46867,-1.261767 3.84016,-3.620721 1.37148,-2.413814 1.37148,-5.705378 0,-3.346423 -1.37148,-5.705378 -1.37149,-2.358954 -3.84016,-3.565861 -2.41382,-1.261766 -5.70538,-1.261766 h -6.85743 z"
     style="-inkscape-font-specification:'Montserrat, @wght=800';fill:#000000;fill-opacity:1"
     id="path34251" /><path
     d="M 449.77707,91.261429 433.37411,52.859848 h 11.73991 l 13.82457,33.244797 h -6.91228 l 14.15372,-33.244797 h 10.75245 l -16.45782,38.401581 z"
     style="-inkscape-font-specification:'Montserrat, @wght=800';fill:#000000;fill-opacity:1"
     id="path34253" /><path
     d="M 494.79908,91.261429 V 52.859848 h 10.86216 v 38.401581 z"
     style="-inkscape-font-specification:'Montserrat, @wght=800';fill:#000000;fill-opacity:1"
     id="path34255" /><path
     d="m 542.50917,92.02946 q -4.71791,0 -9.10666,-1.152047 -4.33389,-1.206907 -7.07686,-3.072126 l 3.56586,-8.009473 q 2.57839,1.645782 5.92481,2.74297 3.40129,1.042329 6.74771,1.042329 2.24924,0 3.62072,-0.384016 1.37149,-0.438875 1.97494,-1.097188 0.65831,-0.713172 0.65831,-1.645782 0,-1.316626 -1.20691,-2.084658 -1.2069,-0.768031 -3.12698,-1.261766 -1.92008,-0.493734 -4.27903,-0.987469 -2.3041,-0.493735 -4.66305,-1.261766 -2.3041,-0.768032 -4.22418,-1.974939 -1.92008,-1.261766 -3.12698,-3.236704 -1.20691,-2.029798 -1.20691,-5.101925 0,-3.456142 1.86522,-6.253972 1.92008,-2.797829 5.70538,-4.498471 3.7853,-1.700641 9.43581,-1.700641 3.7853,0 7.40602,0.87775 3.67558,0.822891 6.52827,2.468674 l -3.34642,8.064332 q -2.74297,-1.481204 -5.43108,-2.194376 -2.68811,-0.768032 -5.21165,-0.768032 -2.24923,0 -3.62072,0.493734 -1.37148,0.438876 -1.97493,1.206907 -0.60346,0.768032 -0.60346,1.755501 0,1.261766 1.15205,2.029798 1.20691,0.713172 3.12699,1.206907 1.97493,0.438875 4.27903,0.93261 2.35895,0.493734 4.66305,1.261766 2.35895,0.713172 4.27903,1.974938 1.92008,1.206907 3.07213,3.236705 1.2069,1.974939 1.2069,4.992206 0,3.346423 -1.92007,6.199112 -1.86522,2.79783 -5.65052,4.498471 -3.73044,1.700641 -9.43582,1.700641 z"
     style="-inkscape-font-specification:'Montserrat, @wght=800';fill:#000000;fill-opacity:1"
     id="path34257" /><path
     d="m 599.49044,92.02946 q -4.60819,0 -8.50321,-1.481203 -3.89502,-1.481204 -6.80256,-4.169315 -2.85269,-2.74297 -4.44362,-6.363691 -1.59092,-3.62072 -1.59092,-7.954613 0,-4.333892 1.59092,-7.954613 1.59093,-3.620721 4.44362,-6.308831 2.90754,-2.74297 6.80256,-4.224174 3.89502,-1.481204 8.50321,-1.481204 4.66305,0 8.50321,1.481204 3.89501,1.481204 6.7477,4.224174 2.85269,2.68811 4.44361,6.308831 1.64579,3.620721 1.64579,7.954613 0,4.333893 -1.64579,8.009473 -1.59092,3.62072 -4.44361,6.308831 -2.85269,2.688111 -6.7477,4.169315 -3.84016,1.481203 -8.50321,1.481203 z m 0,-8.996941 q 2.19438,0 4.05959,-0.768032 1.92008,-0.768032 3.29157,-2.194376 1.42634,-1.481204 2.19437,-3.511002 0.8229,-2.029798 0.8229,-4.498471 0,-2.523532 -0.8229,-4.498471 -0.76803,-2.029798 -2.19437,-3.456142 -1.37149,-1.481204 -3.29157,-2.249235 -1.86521,-0.768032 -4.05959,-0.768032 -2.19438,0 -4.11446,0.768032 -1.86522,0.768031 -3.29156,2.249235 -1.37149,1.426344 -2.19438,3.456142 -0.76803,1.974939 -0.76803,4.498471 0,2.468673 0.76803,4.498471 0.82289,2.029798 2.19438,3.511002 1.42634,1.426344 3.29156,2.194376 1.92008,0.768032 4.11446,0.768032 z"
     style="-inkscape-font-specification:'Montserrat, @wght=800';fill:#000000;fill-opacity:1"
     id="path34259" /><path
     d="M 642.15345,91.261429 V 52.859848 h 17.55501 q 5.2665,0 9.0518,1.700641 3.84016,1.700642 5.92482,4.937346 2.08465,3.181846 2.08465,7.570598 0,4.333892 -2.08465,7.515738 -2.08466,3.126986 -5.92482,4.827627 -3.7853,1.645782 -9.0518,1.645782 h -11.52047 l 4.82762,-4.55333 v 14.757179 z m 23.75412,0 -9.54553,-13.989148 h 11.57533 l 9.6004,13.989148 z m -12.89196,-13.605132 -4.82762,-4.992205 h 10.86216 q 3.40128,0 5.04706,-1.481204 1.70064,-1.481204 1.70064,-4.114455 0,-2.688111 -1.70064,-4.169315 -1.64578,-1.481204 -5.04706,-1.481204 h -10.86216 l 4.82762,-4.992205 z"
     style="-inkscape-font-specification:'Montserrat, @wght=800';fill:#000000;fill-opacity:1"
     id="path34261" /><path
     d="m 711.86212,92.02946 q -4.71791,0 -9.10666,-1.152047 -4.33389,-1.206907 -7.07686,-3.072126 l 3.56586,-8.009473 q 2.57839,1.645782 5.92481,2.74297 3.40129,1.042329 6.74771,1.042329 2.24924,0 3.62072,-0.384016 1.37149,-0.438875 1.97494,-1.097188 0.65831,-0.713172 0.65831,-1.645782 0,-1.316626 -1.2069,-2.084658 -1.20691,-0.768031 -3.12699,-1.261766 -1.92008,-0.493734 -4.27903,-0.987469 -2.3041,-0.493735 -4.66305,-1.261766 -2.3041,-0.768032 -4.22418,-1.974939 -1.92008,-1.261766 -3.12698,-3.236704 -1.20691,-2.029798 -1.20691,-5.101925 0,-3.456142 1.86522,-6.253972 1.92008,-2.797829 5.70538,-4.498471 3.7853,-1.700641 9.43582,-1.700641 3.78529,0 7.40601,0.87775 3.67558,0.822891 6.52827,2.468674 l -3.34642,8.064332 q -2.74297,-1.481204 -5.43108,-2.194376 -2.68811,-0.768032 -5.21164,-0.768032 -2.24924,0 -3.62072,0.493734 -1.37149,0.438876 -1.97494,1.206907 -0.60346,0.768032 -0.60346,1.755501 0,1.261766 1.15205,2.029798 1.20691,0.713172 3.12699,1.206907 1.97494,0.438875 4.27903,0.93261 2.35895,0.493734 4.66305,1.261766 2.35895,0.713172 4.27903,1.974938 1.92008,1.206907 3.07213,3.236705 1.20691,1.974939 1.20691,4.992206 0,3.346423 -1.92008,6.199112 -1.86522,2.79783 -5.65052,4.498471 -3.73044,1.700641 -9.43582,1.700641 z"
     style="-inkscape-font-specification:'Montserrat, @wght=800';fill:#000000;fill-opacity:1"
     id="path34263" /></g><g
   aria-label="PLANNING &amp; APPRAISAL"
   transform="matrix(1.0026258,0,0,0.99738108,-20.65625,-46.523438)"
   id="text12139"
   style="font-size:19.1889px;font-family:Montserrat;-inkscape-font-specification:'Montserrat, @wght=500';font-variation-settings:'wght' 500;letter-spacing:3.48493px;fill:#000000;fill-opacity:1;stroke-width:0.479724"><path
     d="m 299.16771,127.38801 v -13.43223 h 5.5264 q 1.78457,0 3.05104,0.57567 1.28565,0.57566 1.97645,1.65024 0.6908,1.07458 0.6908,2.55212 0,1.47755 -0.6908,2.55213 -0.6908,1.07458 -1.97645,1.65024 -1.26647,0.57567 -3.05104,0.57567 h -4.1448 l 1.11296,-1.17052 v 5.04668 z m 2.49456,-4.77804 -1.11296,-1.2089 h 4.02967 q 1.65024,0 2.47537,-0.6908 0.84431,-0.70999 0.84431,-1.97646 0,-1.28565 -0.84431,-1.97645 -0.82513,-0.6908 -2.47537,-0.6908 h -4.02967 l 1.11296,-1.22809 z"
     style="-inkscape-font-specification:'Montserrat, @wght=600';fill:#000000;fill-opacity:1"
     id="path34176" /><path
     d="m 316.39188,127.38801 v -13.43223 h 2.49456 v 11.32145 h 7.02314 v 2.11078 z"
     style="-inkscape-font-specification:'Montserrat, @wght=600';fill:#000000;fill-opacity:1"
     id="path34178" /><path
     d="m 329.4961,127.38801 6.0445,-13.43223 h 2.45618 l 6.06369,13.43223 h -2.60969 l -5.20019,-12.1082 h 0.99782 l -5.181,12.1082 z m 2.78239,-3.1086 0.67161,-1.95727 h 7.2534 l 0.67161,1.95727 z"
     style="-inkscape-font-specification:'Montserrat, @wght=600';fill:#000000;fill-opacity:1"
     id="path34180" /><path
     d="m 349.25322,127.38801 v -13.43223 h 2.05322 l 8.42392,10.34282 h -1.01701 v -10.34282 h 2.47537 v 13.43223 h -2.05321 l -8.42393,-10.34282 h 1.01701 v 10.34282 z"
     style="-inkscape-font-specification:'Montserrat, @wght=600';fill:#000000;fill-opacity:1"
     id="path34182" /><path
     d="m 368.28115,127.38801 v -13.43223 h 2.05321 l 8.42393,10.34282 h -1.01701 v -10.34282 h 2.47537 v 13.43223 h -2.05322 l -8.42392,-10.34282 h 1.01701 v 10.34282 z"
     style="-inkscape-font-specification:'Montserrat, @wght=600';fill:#000000;fill-opacity:1"
     id="path34184" /><path
     d="m 387.30908,127.38801 v -13.43223 h 2.49456 v 13.43223 z"
     style="-inkscape-font-specification:'Montserrat, @wght=600';fill:#000000;fill-opacity:1"
     id="path34186" /><path
     d="m 396.91528,127.38801 v -13.43223 h 2.05321 l 8.42392,10.34282 h -1.01701 v -10.34282 h 2.47537 v 13.43223 h -2.05321 l -8.42393,-10.34282 h 1.01701 v 10.34282 z"
     style="-inkscape-font-specification:'Montserrat, @wght=600';fill:#000000;fill-opacity:1"
     id="path34188" /><path
     d="m 422.21798,127.5799 q -1.57349,0 -2.89753,-0.49891 -1.30484,-0.5181 -2.28348,-1.43917 -0.97863,-0.94026 -1.51592,-2.20673 -0.53729,-1.26646 -0.53729,-2.7632 0,-1.49673 0.53729,-2.7632 0.53729,-1.26647 1.51592,-2.18753 0.99783,-0.94026 2.32186,-1.43917 1.32403,-0.5181 2.89752,-0.5181 1.70782,0 3.07023,0.55648 1.3816,0.55648 2.32186,1.63105 l -1.57349,1.53512 q -0.78675,-0.78675 -1.70782,-1.15134 -0.90187,-0.38378 -1.99564,-0.38378 -1.05539,0 -1.95727,0.3454 -0.90188,0.3454 -1.5543,0.97864 -0.65242,0.63323 -1.01701,1.49673 -0.3454,0.8635 -0.3454,1.8997 0,1.01701 0.3454,1.88052 0.36459,0.8635 1.01701,1.51592 0.65242,0.63323 1.53511,0.97863 0.88269,0.3454 1.95727,0.3454 0.99782,0 1.91889,-0.30702 0.94026,-0.32621 1.78457,-1.07458 l 1.41998,1.86133 q -1.05539,0.84431 -2.45618,1.28565 -1.3816,0.42216 -2.80158,0.42216 z m 2.89752,-2.03403 v -5.02749 h 2.36024 v 5.35371 z"
     style="-inkscape-font-specification:'Montserrat, @wght=600';fill:#000000;fill-opacity:1"
     id="path34190" /><path
     d="m 446.89915,127.5799 q -1.40079,0 -2.51374,-0.46054 -1.11296,-0.46053 -1.74619,-1.26646 -0.63324,-0.80594 -0.63324,-1.86133 0,-0.95944 0.42216,-1.727 0.42215,-0.76755 1.34322,-1.45835 0.92107,-0.70999 2.36024,-1.41998 1.13214,-0.55648 1.76538,-0.97864 0.65242,-0.42215 0.90187,-0.80593 0.26865,-0.38378 0.26865,-0.80593 0,-0.57567 -0.40297,-0.92107 -0.40297,-0.36459 -1.15133,-0.36459 -0.80594,0 -1.26647,0.40297 -0.44134,0.38377 -0.44134,1.01701 0,0.32621 0.11513,0.63323 0.13432,0.30702 0.46053,0.6908 0.32621,0.38378 0.94026,0.97864 l 7.09989,6.81206 -1.32403,1.5543 -7.67556,-7.36854 q -0.65243,-0.63324 -1.05539,-1.17052 -0.40297,-0.53729 -0.57567,-1.03621 -0.1727,-0.5181 -0.1727,-1.05538 0,-0.94026 0.47972,-1.65025 0.47973,-0.72918 1.36242,-1.11296 0.88268,-0.40296 2.05321,-0.40296 1.09376,0 1.88051,0.36459 0.80593,0.3454 1.24728,1.01701 0.46053,0.65242 0.46053,1.57349 0,0.80593 -0.40297,1.49673 -0.40296,0.67161 -1.26646,1.28566 -0.84431,0.61404 -2.26429,1.28565 -1.05539,0.5181 -1.66944,0.97864 -0.61404,0.46053 -0.88269,0.92107 -0.26864,0.46053 -0.26864,1.01701 0,0.55648 0.32621,0.97863 0.3454,0.42216 0.95945,0.67161 0.61404,0.23027 1.43916,0.23027 1.22809,0 2.22592,-0.53729 1.01701,-0.55648 1.70781,-1.65025 0.6908,-1.09376 0.99782,-2.70563 l 1.93808,0.63323 q -0.40297,1.93808 -1.40079,3.33887 -0.97863,1.3816 -2.4178,2.12997 -1.43917,0.74837 -3.22374,0.74837 z"
     style="-inkscape-font-specification:'Montserrat, @wght=600';fill:#000000;fill-opacity:1"
     id="path34192" /><path
     d="m 466.93663,127.38801 6.04451,-13.43223 h 2.45618 l 6.06369,13.43223 h -2.60969 l -5.20019,-12.1082 h 0.99782 l -5.181,12.1082 z m 2.78239,-3.1086 0.67162,-1.95727 h 7.2534 l 0.67161,1.95727 z"
     style="-inkscape-font-specification:'Montserrat, @wght=600';fill:#000000;fill-opacity:1"
     id="path34194" /><path
     d="m 486.69376,127.38801 v -13.43223 h 5.5264 q 1.78457,0 3.05103,0.57567 1.28566,0.57566 1.97646,1.65024 0.6908,1.07458 0.6908,2.55212 0,1.47755 -0.6908,2.55213 -0.6908,1.07458 -1.97646,1.65024 -1.26646,0.57567 -3.05103,0.57567 h -4.1448 l 1.11295,-1.17052 v 5.04668 z m 2.49455,-4.77804 -1.11295,-1.2089 h 4.02967 q 1.65024,0 2.47536,-0.6908 0.84432,-0.70999 0.84432,-1.97646 0,-1.28565 -0.84432,-1.97645 -0.82512,-0.6908 -2.47536,-0.6908 h -4.02967 l 1.11295,-1.22809 z"
     style="-inkscape-font-specification:'Montserrat, @wght=600';fill:#000000;fill-opacity:1"
     id="path34196" /><path
     d="m 503.91794,127.38801 v -13.43223 h 5.5264 q 1.78457,0 3.05104,0.57567 1.28565,0.57566 1.97645,1.65024 0.6908,1.07458 0.6908,2.55212 0,1.47755 -0.6908,2.55213 -0.6908,1.07458 -1.97645,1.65024 -1.26647,0.57567 -3.05104,0.57567 h -4.1448 l 1.11296,-1.17052 v 5.04668 z m 2.49456,-4.77804 -1.11296,-1.2089 h 4.02967 q 1.65024,0 2.47537,-0.6908 0.84431,-0.70999 0.84431,-1.97646 0,-1.28565 -0.84431,-1.97645 -0.82513,-0.6908 -2.47537,-0.6908 h -4.02967 l 1.11296,-1.22809 z"
     style="-inkscape-font-specification:'Montserrat, @wght=600';fill:#000000;fill-opacity:1"
     id="path34198" /><path
     d="m 521.1421,127.38801 v -13.43223 h 5.52641 q 1.78457,0 3.05103,0.57567 1.28566,0.57566 1.97646,1.65024 0.6908,1.07458 0.6908,2.55212 0,1.47755 -0.6908,2.55213 -0.6908,1.05539 -1.97646,1.63105 -1.26646,0.55648 -3.05103,0.55648 h -4.1448 l 1.11295,-1.13214 v 5.04668 z m 8.78852,0 -3.39643,-4.87398 h 2.66725 l 3.41563,4.87398 z m -6.29396,-4.77804 -1.11295,-1.18971 h 4.02966 q 1.65025,0 2.47537,-0.70999 0.84431,-0.70999 0.84431,-1.97646 0,-1.28565 -0.84431,-1.97645 -0.82512,-0.6908 -2.47537,-0.6908 h -4.02966 l 1.11295,-1.22809 z"
     style="-inkscape-font-specification:'Montserrat, @wght=600';fill:#000000;fill-opacity:1"
     id="path34200" /><path
     d="m 536.75444,127.38801 6.04451,-13.43223 h 2.45618 l 6.06369,13.43223 h -2.60969 l -5.20019,-12.1082 h 0.99782 l -5.181,12.1082 z m 2.78239,-3.1086 0.67162,-1.95727 h 7.2534 l 0.67161,1.95727 z"
     style="-inkscape-font-specification:'Montserrat, @wght=600';fill:#000000;fill-opacity:1"
     id="path34202" /><path
     d="m 556.51158,127.38801 v -13.43223 h 2.49456 v 13.43223 z"
     style="-inkscape-font-specification:'Montserrat, @wght=600';fill:#000000;fill-opacity:1"
     id="path34204" /><path
     d="m 570.28174,127.5799 q -1.57349,0 -3.01265,-0.44135 -1.43917,-0.46053 -2.28348,-1.17052 l 0.8635,-1.93808 q 0.80593,0.63323 1.99564,1.05539 1.18971,0.42216 2.43699,0.42216 1.05539,0 1.70782,-0.23027 0.65242,-0.23027 0.95944,-0.61405 0.30702,-0.40296 0.30702,-0.90187 0,-0.61405 -0.44134,-0.97864 -0.44135,-0.38378 -1.15134,-0.59485 -0.6908,-0.23027 -1.5543,-0.42216 -0.84431,-0.19189 -1.70781,-0.44134 -0.84431,-0.26865 -1.5543,-0.67162 -0.6908,-0.42215 -1.13214,-1.11295 -0.44135,-0.6908 -0.44135,-1.76538 0,-1.09377 0.57567,-1.99565 0.59485,-0.92106 1.78457,-1.45835 1.2089,-0.55648 3.05103,-0.55648 1.2089,0 2.39861,0.30702 1.18971,0.30702 2.0724,0.88269 l -0.78674,1.93808 q -0.90188,-0.53729 -1.86132,-0.78675 -0.95945,-0.26864 -1.84214,-0.26864 -1.0362,0 -1.68862,0.24946 -0.63324,0.24945 -0.94026,0.65242 -0.28783,0.40297 -0.28783,0.92107 0,0.61404 0.42215,0.99782 0.44135,0.36459 1.13215,0.57567 0.70999,0.21107 1.57349,0.42215 0.8635,0.19189 1.70781,0.44135 0.8635,0.24945 1.5543,0.65242 0.70999,0.40297 1.13215,1.09377 0.44134,0.6908 0.44134,1.74619 0,1.07457 -0.59485,1.99564 -0.57567,0.90188 -1.78457,1.45836 -1.2089,0.53729 -3.05104,0.53729 z"
     style="-inkscape-font-specification:'Montserrat, @wght=600';fill:#000000;fill-opacity:1"
     id="path34206" /><path
     d="m 579.7728,127.38801 6.0445,-13.43223 h 2.45618 l 6.06369,13.43223 h -2.60969 l -5.20019,-12.1082 h 0.99782 l -5.181,12.1082 z m 2.78239,-3.1086 0.67161,-1.95727 h 7.25341 l 0.67161,1.95727 z"
     style="-inkscape-font-specification:'Montserrat, @wght=600';fill:#000000;fill-opacity:1"
     id="path34208" /><path
     d="m 599.52992,127.38801 v -13.43223 h 2.49456 v 11.32145 h 7.02314 v 2.11078 z"
     style="-inkscape-font-specification:'Montserrat, @wght=600';fill:#000000;fill-opacity:1"
     id="path34210" /></g><path
   id="rect33840-9"
   style="fill:#000000;fill-opacity:1;stroke-width:3.77953;stroke-linecap:square;paint-order:markers stroke fill"
   d="M 101.86328,0 84.79883,86.580082 H 157.1875 L 174.25195,0 Z m 14.70899,22.392578 h 15.51367 c 4.75184,0 8.4203,1.172454 11.00586,3.517578 2.58556,2.345123 3.8789,5.643464 3.8789,9.896484 0,3.497811 -0.73369,6.558282 -2.20117,9.181641 -1.46748,2.623358 -3.56374,4.651108 -6.28906,6.082031 -2.72532,1.430923 -5.94089,2.146484 -9.64453,2.146484 h -7.3125 l -1.91016,10.910156 h -10.37695 z m 8.71093,9.300781 -2.14843,12.222656 h 6.17382 c 2.2711,0 4.03513,-0.617426 5.29297,-1.849609 1.25784,-1.232184 1.88672,-2.980466 1.88672,-5.246094 0,-1.748906 -0.50627,-3.040295 -1.51953,-3.875 -1.01326,-0.834705 -2.42921,-1.251953 -4.24609,-1.251953 z" /><path
   id="rect33840-3"
   style="fill:#000000;fill-opacity:1;stroke-width:3.77953;stroke-linecap:square;paint-order:markers stroke fill"
   d="M 186.66016,0 169.5957,86.580082 h 72.39063 L 259.05078,0 Z m 14.66992,22.392578 H 217 c 4.7169,0 8.34977,1.172454 10.90039,3.517578 2.58556,2.345123 3.87891,5.603819 3.87891,9.777344 0,3.497811 -0.75149,6.558282 -2.25391,9.18164 -1.46748,2.583611 -3.56374,4.590562 -6.28906,6.021484 -0.52437,0.275318 -1.07223,0.515937 -1.63281,0.738282 l 6.24609,12.498046 H 217 l -5.4668,-11.089843 h -5.22265 l -1.94141,11.089843 h -10.37695 z m 8.75,9.300781 -2.17578,12.222656 h 6.16015 c 2.30604,0 4.08787,-0.617426 5.34571,-1.849609 1.25784,-1.232184 1.88671,-2.980466 1.88671,-5.246094 10e-6,-1.748906 -0.50627,-3.040295 -1.51953,-3.875 -1.01326,-0.834705 -2.42726,-1.251953 -4.24414,-1.251953 z" /></svg>
