<?xml version="1.0" encoding="UTF-8" standalone="no"?>
<!-- Created with Inkscape (http://www.inkscape.org/) -->

<svg
   width="188.63477mm"
   height="243.03906mm"
   viewBox="0 0 188.63477 243.03906"
   version="1.1"
   id="svg27465"
   xmlns="http://www.w3.org/2000/svg"
   xmlns:svg="http://www.w3.org/2000/svg">
  <defs
     id="defs27462" />
  <g
     id="layer1"
     transform="translate(-10.519531,-15.523438)">
    <g
       aria-label="Academic, Art &amp; Music Centre"
       transform="scale(0.86074982,1.1617778)"
       id="text6836"
       style="font-size:14.3674px;font-family:'Cooper Hewitt';-inkscape-font-specification:'Cooper Hewitt';fill:#72337d;fill-opacity:1;stroke-width:0.359189" />
    <g
       aria-label="StudentScholars"
       transform="scale(0.92840432,1.0771169)"
       id="text1465"
       style="font-size:25.1406px;font-family:'Cooper Hewitt';-inkscape-font-specification:'Cooper Hewitt';fill:#72337d;fill-opacity:1;stroke-width:0.628514">
      <path
         id="path49305"
         style="-inkscape-font-specification:'Jalal LT, Normal';fill:#72337d;fill-opacity:1"
         d="m 180.85132,67.457972 h 0.38055 q 0.67516,1.583563 2.56562,1.583563 0.72426,0 1.14164,-0.441924 0.41737,-0.441925 0.41737,-1.043434 0,-0.589232 -0.51558,-0.932952 -0.29461,-0.220962 -1.27667,-0.589232 -0.62606,-0.220963 -1.4117,-0.527855 -1.64494,-0.810195 -1.64494,-2.639272 0,-1.411703 0.96977,-2.307828 0.96978,-0.908401 2.65155,-0.908401 1.30122,0 2.81113,0.613784 -0.44192,0.834747 -0.52785,1.865904 h -0.33144 q -0.36827,-0.711989 -0.65062,-0.982054 -0.51557,-0.478752 -1.3626,-0.478752 -0.74881,0 -1.22756,0.380546 -0.46648,0.368271 -0.46648,0.99433 0,0.638336 0.55241,0.982055 0.36827,0.233238 1.73087,0.699714 1.37487,0.4542 1.89045,0.859298 0.93295,0.748817 0.93295,2.074591 0,1.227568 -0.88385,2.209623 -1.10481,1.239844 -3.10574,1.239844 -1.2153,0 -3.09348,-0.810195 0.11049,-0.306893 0.3069,-0.871574 0.0736,-0.392822 0.1473,-0.969779 z m -7.66003,2.356931 0.0859,-2.050039 q 0.0368,-1.006606 0.0368,-3.32671 0,-2.074591 -0.13504,-4.640209 0.72427,0.110482 1.37488,0.110482 0.68744,0 1.19074,-0.110482 -0.13503,1.055709 -0.13503,2.185072 0.66289,-1.043433 1.12936,-1.473082 0.8593,-0.822471 1.95184,-0.822471 0.29461,0 0.54013,0.06138 -0.18414,0.355994 -0.18414,1.497633 0,0.478752 0.11048,0.908401 l -0.14731,0.09821 q -0.35599,-0.282341 -1.23984,-0.282341 -1.33805,0 -1.85363,1.117088 -0.24551,0.552405 -0.24551,2.07459 0,2.712926 0.17186,4.652484 l -0.54013,-0.06138 q -0.39282,-0.06138 -0.66289,-0.06138 -0.19641,0 -1.44853,0.122757 z m -7.75823,-5.511782 0.71199,-0.184135 q 0.44193,-0.110481 0.84703,-0.220962 0.62605,-0.196411 0.72426,-0.515579 0.0246,-0.09821 0.0246,-0.257789 0,-2.221899 -2.03776,-2.221899 -1.87818,0 -2.24645,1.473082 -0.20869,-0.03683 -0.31917,-0.03683 -0.12276,0 -0.33144,0.03683 0.11048,-0.662887 0.11048,-1.018882 0,-0.36827 -0.0368,-0.564681 1.05571,-0.62606 1.59584,-0.847022 0.8102,-0.306893 1.7186,-0.306893 1.76769,0 2.78658,0.785644 1.01888,0.785644 1.01888,2.33238 0,0.405098 -0.0246,1.829077 -0.0246,1.411704 -0.0246,1.743147 0,1.632666 0.0982,2.050039 0.12276,0.491028 0.62606,0.491028 0.20869,0 0.58923,-0.17186 -0.0737,0.257789 -0.0737,0.392822 0,0.122757 0.0737,0.36827 -1.19074,0.466476 -1.77997,0.466476 -0.83475,0 -1.22757,-0.405097 -0.25779,-0.220962 -0.5033,-0.871574 -1.06799,1.42398 -2.79886,1.42398 -1.58356,0 -2.33238,-0.969779 -0.54013,-0.675163 -0.54013,-1.583564 0,-1.559011 0.94523,-2.283277 0.58923,-0.4542 2.40603,-0.932952 z m 2.23418,2.50424 v -2.172796 q -2.00094,0.527854 -2.50424,0.859298 -0.72427,0.466476 -0.72427,1.509909 0,0.822471 0.36827,1.313498 0.36827,0.478752 0.99433,0.478752 0.83475,0 1.35033,-0.576958 0.51558,-0.576957 0.51558,-1.411703 z M 157.22063,54.347542 q 0.79792,0.122757 1.44853,0.122757 0.49103,0 1.32578,-0.122757 -0.20869,2.24645 -0.20869,7.672302 0,6.015085 0.19641,7.795059 -1.26439,-0.122757 -1.27667,-0.122757 -0.33144,0 -1.44853,0.122757 0.20869,-1.460806 0.20869,-8.310638 0,-4.357867 -0.24552,-7.156723 z m -12.75444,10.520261 q 0,-2.393759 1.42398,-3.805462 1.43626,-1.411704 3.80546,-1.411704 2.45514,0 3.84229,1.350325 1.39943,1.33805 1.39943,3.866841 0,2.418309 -1.4117,3.817737 -1.39943,1.387153 -3.83002,1.387153 -2.3692,0 -3.80546,-1.399428 -1.42398,-1.399428 -1.42398,-3.805462 z m 2.60245,-0.02455 q 0,4.382419 2.62699,4.382419 2.627,0 2.627,-4.382419 0,-4.357867 -2.627,-4.357867 -2.62699,0 -2.62699,4.357867 z m -11.49004,-10.495711 -0.0368,0.662887 q -0.1473,2.33238 -0.1473,6.395631 1.22756,-1.718596 3.26533,-1.718596 2.00093,0 2.89706,1.399428 0.47875,0.761093 0.47875,2.553342 0,0.196411 -0.0246,1.043433 -0.0123,0.847023 -0.0123,1.203017 0,2.258726 0.12276,3.928219 -0.62606,-0.122757 -1.28895,-0.122757 -0.27006,0 -0.74881,0.06138 -0.62606,0.06138 -0.65061,0.06138 0.23323,-2.148244 0.23323,-4.357867 0,-2.430586 -0.15958,-2.970716 -0.31917,-1.301222 -1.79225,-1.301222 -1.63267,0 -2.06231,1.362601 -0.25779,0.773368 -0.25779,2.442861 0,2.946164 0.11048,4.824343 -0.83475,-0.122757 -1.3135,-0.122757 -0.0246,0 -1.27667,0.122757 l 0.0123,-0.392822 q 0.17186,-2.933888 0.15959,-7.795059 l -0.0245,-4.063251 q 0,-0.699714 -0.14731,-3.216229 0.63833,0.122757 1.42398,0.122757 0.66288,0 1.23984,-0.122757 z m -4.78752,13.319117 0.34372,0.184135 q -0.22096,0.331443 -0.41737,1.460806 -1.42398,0.761093 -3.06892,0.761093 -2.44286,0 -3.89139,-1.608115 -1.3135,-1.448531 -1.3135,-3.486294 0,-2.24645 1.33805,-3.707257 1.48536,-1.632666 4.1369,-1.632666 1.46081,0 3.19168,0.71199 -0.35599,0.662887 -0.47875,1.976385 h -0.39282 q -0.0859,-0.466476 -0.44193,-0.9084 -0.65061,-0.834747 -1.77997,-0.834747 -1.41171,0 -2.2219,1.227568 -0.66289,0.945228 -0.66289,2.811132 0,1.779974 0.66289,2.897061 0.79792,1.374877 2.46741,1.374877 0.79792,0 1.43626,-0.355995 0.35599,-0.208686 1.09253,-0.871573 z M 111.7024,66.684604 h 0.29462 q 0.66288,1.436255 1.52218,1.976385 0.66289,0.429649 1.7186,0.429649 1.22756,0 1.97638,-0.724265 0.74882,-0.736541 0.74882,-1.890456 0,-1.669493 -1.70632,-2.406034 -0.79792,-0.319167 -2.14825,-0.871573 -1.48535,-0.650611 -2.06231,-1.509909 -0.56468,-0.859298 -0.56468,-2.185072 0,-1.669493 1.0066,-2.774305 1.28895,-1.399427 3.85457,-1.399427 1.57128,0 3.47402,0.859297 -0.42965,1.031158 -0.65062,1.976385 h -0.29461 q -0.24552,-0.883849 -0.98206,-1.350325 -0.72426,-0.466476 -1.7677,-0.466476 -1.17846,0 -1.8168,0.638336 -0.62606,0.62606 -0.62606,1.608114 0,1.055709 0.7611,1.632666 0.47875,0.380546 2.12369,1.018882 1.38715,0.54013 1.80453,0.761092 0.62605,0.319168 1.04343,0.773369 1.01888,1.092535 1.01888,2.749753 0,1.816801 -1.20302,3.093472 -1.44853,1.485358 -4.10008,1.485358 -1.76769,0 -3.90366,-1.067985 0.34372,-1.043433 0.47875,-2.356931 z m -3.97733,-10.569364 0.13503,0.07365 q -0.0737,0.25779 -0.13503,3.75636 1.19074,0 1.43626,-0.01228 l 0.77336,-0.06138 q -0.0614,0.282341 -0.0614,0.515579 0,0.319168 0.0614,0.638336 -0.9084,-0.08593 -2.271,-0.08593 0,0.466476 -0.0368,2.025488 -0.0245,1.546736 -0.0245,1.988661 0,2.467412 0.22097,3.15485 0.28234,0.834747 1.27667,0.834747 0.63833,0 1.25212,-0.441925 -0.0859,0.417373 -0.0859,0.491027 0,0.196411 0.0859,0.491028 -1.17847,0.613784 -2.35693,0.613784 -1.19075,0 -1.87818,-0.564681 -0.87158,-0.675163 -0.87158,-2.344656 0,-0.380546 0.0614,-2.847959 0.0614,-2.479688 0.0614,-3.400364 h -0.62606 q -0.23324,0 -0.98206,0.07365 0.0614,-0.319168 0.0614,-0.466476 0,-0.294616 -0.0614,-0.675163 0.57696,0.07365 0.71199,0.07365 h 0.9084 q 0,-1.411704 -0.0368,-2.369207 1.49763,-0.687439 2.38148,-1.460807 z m -5.8555,7.095345 q 0,0.233238 -0.0491,1.853629 -0.0491,1.62039 -0.0491,2.172796 0,1.743147 0.14731,2.577893 -1.37488,-0.122757 -1.35033,-0.122757 -0.15958,0 -1.350325,0.122757 0.245514,-1.497633 0.245514,-3.95277 0,-2.798856 -0.159584,-3.351262 -0.343719,-1.374876 -1.939558,-1.374876 -1.264396,0 -1.853628,1.203017 -0.355995,0.724265 -0.355995,2.762029 0,2.725202 0.147308,4.713862 -1.25212,-0.122757 -1.313498,-0.122757 -0.441925,0 -1.313498,0.122757 0.208686,-3.093472 0.208686,-5.585436 0,-2.663823 -0.171859,-4.431522 0.638335,0.110482 1.387152,0.110482 0.478752,0 1.153914,-0.110482 -0.110481,0.589233 -0.110481,1.730872 0.699714,-0.969779 1.33805,-1.362601 0.773368,-0.478752 1.890455,-0.478752 1.694047,0 2.590167,0.920676 0.9084,0.920677 0.9084,2.602445 z m -11.45321,1.681769 h -6.849831 q 0,3.940495 3.32671,3.940495 0.71199,0 1.583563,-0.355995 0.871574,-0.368271 1.374877,-0.957504 l 0.220962,0.147309 q -0.0491,0.135032 -0.159584,0.441924 l -0.196411,0.883849 q -0.208686,0.270065 -1.055709,0.589233 -1.141638,0.491028 -2.442861,0.491028 -2.430585,0 -3.805462,-1.399428 -1.374876,-1.399428 -1.374876,-3.977322 0,-2.442861 1.509909,-3.817737 1.33805,-1.227569 3.338986,-1.227569 2.87251,0 3.915943,1.890455 0.699714,1.264396 0.613784,3.351262 z m -6.813004,-1.031157 h 4.40697 q 0,-3.375813 -2.086866,-3.375813 -2.135969,0 -2.320104,3.375813 z m -7.242654,5.953706 0.0491,-1.436255 q -1.190741,1.730872 -3.167126,1.730872 -2.025488,0 -3.302159,-1.473082 -1.264395,-1.473082 -1.264395,-3.621327 0,-2.528791 1.374876,-3.965046 1.276671,-1.362601 3.302159,-1.362601 1.031158,0 1.816801,0.417373 0.478752,0.270065 1.16619,0.957504 0,-4.640209 -0.257789,-6.714799 0.699714,0.122757 1.485358,0.122757 0.662887,0 1.178465,-0.122757 -0.220962,3.891392 -0.220962,7.475891 0,6.469285 0.220962,7.99147 -0.613784,-0.122757 -1.178465,-0.122757 -0.208687,0 -1.203017,0.122757 z M 73.745981,68.8574 q 1.203017,0 1.890455,-1.031157 0.699714,-1.031158 0.699714,-3.04437 0,-3.989597 -2.504239,-3.989597 -1.399428,0 -2.062315,1.288947 -0.491027,1.006606 -0.491027,2.504239 0,4.271938 2.467412,4.271938 z M 57.186083,66.389988 q 0,-0.736542 0.03683,-2.197348 0.0491,-1.473082 0.0491,-2.209623 0,-1.08026 -0.135032,-2.185072 0.748816,0.110482 1.338049,0.110482 0.687438,0 1.362601,-0.110482 -0.245514,1.264396 -0.245514,4.542003 0,2.271002 0.147309,2.811132 0.171859,0.613784 0.675162,0.982055 0.515579,0.36827 1.153914,0.36827 1.362601,0 1.976385,-1.190741 0.34372,-0.699714 0.34372,-2.577894 0,-3.670429 -0.147309,-4.934825 0.761093,0.110482 1.215293,0.110482 0.564682,0 1.411704,-0.110482 -0.196411,3.081197 -0.196411,5.585436 0,2.602445 0.159584,4.431522 l -0.71199,-0.07365 q -0.392822,-0.0491 -0.601508,-0.0491 -0.270066,0 -1.178466,0.122757 0.07365,-0.773368 0.07365,-1.694044 -1.436255,1.927282 -3.375813,1.927282 -2.025488,0 -2.933888,-1.657217 -0.417374,-0.761092 -0.417374,-2.000936 z m -3.97732,-10.274748 0.135032,0.07365 q -0.07365,0.25779 -0.135032,3.75636 1.190741,0 1.436255,-0.01228 l 0.773368,-0.06138 q -0.06138,0.282341 -0.06138,0.515579 0,0.319168 0.06138,0.638336 -0.908401,-0.08593 -2.271002,-0.08593 0,0.466476 -0.03683,2.025488 -0.02455,1.546736 -0.02455,1.988661 0,2.467412 0.220962,3.15485 0.282341,0.834747 1.276671,0.834747 0.638336,0 1.25212,-0.441925 -0.08593,0.417373 -0.08593,0.491027 0,0.196411 0.08593,0.491028 -1.178466,0.613784 -2.356931,0.613784 -1.190742,0 -1.87818,-0.564681 -0.871574,-0.675163 -0.871574,-2.344656 0,-0.380546 0.06138,-2.847959 0.06138,-2.479688 0.06138,-3.400364 h -0.62606 q -0.233238,0 -0.982054,0.07365 0.06138,-0.319168 0.06138,-0.466476 0,-0.294616 -0.06138,-0.675163 0.576957,0.07365 0.711989,0.07365 h 0.908401 q 0,-1.411704 -0.03683,-2.369207 1.497633,-0.687439 2.381483,-1.460807 z m -14.19069,10.569364 h 0.294616 q 0.662887,1.436255 1.522185,1.976385 0.662887,0.429649 1.718596,0.429649 1.227568,0 1.976385,-0.724265 0.748816,-0.736541 0.748816,-1.890456 0,-1.669493 -1.70632,-2.406034 -0.797919,-0.319167 -2.148244,-0.871573 -1.485358,-0.650611 -2.062315,-1.509909 -0.564682,-0.859298 -0.564682,-2.185072 0,-1.669493 1.006606,-2.774305 1.288947,-1.399427 3.854565,-1.399427 1.571288,0 3.474019,0.859297 -0.429649,1.031158 -0.650612,1.976385 h -0.294616 q -0.245514,-0.883849 -0.982055,-1.350325 -0.724265,-0.466476 -1.767698,-0.466476 -1.178466,0 -1.816801,0.638336 -0.62606,0.62606 -0.62606,1.608114 0,1.055709 0.761092,1.632666 0.478752,0.380546 2.123693,1.018882 1.387153,0.54013 1.804526,0.761092 0.62606,0.319168 1.043433,0.773369 1.018882,1.092535 1.018882,2.749753 0,1.816801 -1.203017,3.093472 -1.448531,1.485358 -4.100079,1.485358 -1.767698,0 -3.903667,-1.067985 0.343719,-1.043433 0.478752,-2.356931 z M 112.92056,14.412027 c -28.092421,0 -53.510587,12.664459 -71.878618,33.087097 -18.368033,20.422638 -29.711177,48.608931 -29.711177,79.732166 0,31.12322 11.343144,59.30952 29.711177,79.73216 18.368031,20.42264 43.786197,33.0871 71.878618,33.0871 28.09242,0 53.51269,-12.66446 71.88072,-33.0871 18.36804,-20.42264 29.71119,-48.60894 29.71119,-79.73216 0,-31.123235 -11.34315,-59.309528 -29.71119,-79.732166 -18.36803,-20.422638 -43.7883,-33.087097 -71.88072,-33.087097 z m 0,0.928404 c 27.71675,0 52.82332,12.486253 71.02871,32.728066 18.2054,20.241813 29.48397,48.234161 29.48397,79.162793 0,30.92863 -11.27857,58.92097 -29.48397,79.16279 -18.20539,20.24181 -43.31196,32.72806 -71.02871,32.72806 -27.71675,0 -52.821204,-12.48625 -71.026603,-32.72806 -18.205399,-20.24182 -29.486075,-48.23416 -29.486075,-79.16279 0,-30.928632 11.280676,-58.92098 29.486075,-79.162793 C 60.099356,27.826684 85.20381,15.340431 112.92056,15.340431 Z m 72.3493,181.075079 h -3.62929 q 0,2.42892 1.76261,2.42892 0.37724,0 0.83904,-0.21943 0.46179,-0.227 0.72846,-0.59021 l 0.11708,0.0908 q -0.0261,0.0833 -0.0846,0.27241 l -0.10407,0.5448 q -0.11057,0.16647 -0.55935,0.36321 -0.60488,0.30267 -1.29432,0.30267 -1.28781,0 -2.01627,-0.86261 -0.72847,-0.86261 -0.72847,-2.45163 0,-1.50578 0.80001,-2.35324 0.70895,-0.75669 1.76912,-0.75669 1.52197,0 2.07481,1.16528 0.37073,0.77938 0.3252,2.06572 z m -3.60977,-0.63561 h 2.33497 q 0,-2.08085 -1.1057,-2.08085 -1.13171,0 -1.22927,2.08085 z m -5.12525,3.66987 0.0455,-1.26364 q 0.0196,-0.62047 0.0196,-2.05059 0,-1.27878 -0.0716,-2.86022 0.38374,0.0681 0.72846,0.0681 0.36423,0 0.6309,-0.0681 -0.0716,0.65073 -0.0716,1.34687 0.35123,-0.64317 0.59838,-0.908 0.45529,-0.50697 1.03416,-0.50697 0.1561,0 0.28618,0.0379 -0.0976,0.21944 -0.0976,0.92315 0,0.29509 0.0585,0.55993 l -0.0781,0.0605 q -0.18862,-0.17403 -0.65692,-0.17403 -0.70895,0 -0.98212,0.68857 -0.13008,0.3405 -0.13008,1.27878 0,1.67224 0.091,2.8678 l -0.28618,-0.0379 q -0.20813,-0.0379 -0.35123,-0.0379 -0.10406,0 -0.76748,0.0757 z m -2.10733,-8.44447 0.0716,0.0454 q -0.039,0.1589 -0.0716,2.31542 0.63089,0 0.76097,-0.008 l 0.40977,-0.0379 q -0.0326,0.17403 -0.0326,0.3178 0,0.19673 0.0326,0.39347 -0.48131,-0.053 -1.20327,-0.053 0,0.28753 -0.0196,1.24851 -0.013,0.95341 -0.013,1.22582 0,1.52091 0.11708,1.94465 0.14959,0.51454 0.67642,0.51454 0.33822,0 0.66343,-0.2724 -0.0455,0.25726 -0.0455,0.30266 0,0.12106 0.0455,0.30267 -0.6244,0.37834 -1.2488,0.37834 -0.63089,0 -0.99512,-0.34808 -0.4618,-0.41616 -0.4618,-1.44523 0,-0.23458 0.0325,-1.75549 0.0325,-1.52848 0.0325,-2.09599 h -0.33171 q -0.12358,0 -0.52033,0.0454 0.0325,-0.19673 0.0325,-0.28753 0,-0.18161 -0.0325,-0.41617 0.30569,0.0454 0.37724,0.0454 h 0.48131 q 0,-0.87017 -0.0196,-1.46038 0.79351,-0.42374 1.26181,-0.90044 z m -3.10246,4.37357 q 0,0.14377 -0.026,1.14257 -0.0261,0.99882 -0.0261,1.33932 0,1.07447 0.0781,1.58901 -0.72846,-0.0757 -0.71545,-0.0757 -0.0846,0 -0.71545,0.0757 0.13008,-0.92314 0.13008,-2.43649 0,-1.72522 -0.0845,-2.06572 -0.18212,-0.84747 -1.02765,-0.84747 -0.66992,0 -0.98213,0.74154 -0.18861,0.44643 -0.18861,1.70252 0,1.67981 0.0781,2.90562 -0.66341,-0.0757 -0.69594,-0.0757 -0.23414,0 -0.69594,0.0757 0.11057,-1.90682 0.11057,-3.44286 0,-1.64199 -0.091,-2.73159 0.33822,0.0681 0.73497,0.0681 0.25366,0 0.61139,-0.0681 -0.0585,0.3632 -0.0585,1.06691 0.37074,-0.59777 0.70895,-0.83991 0.40976,-0.2951 1.00163,-0.2951 0.89758,0 1.37238,0.5675 0.4813,0.56751 0.4813,1.60415 z m -6.06834,1.03664 h -3.62929 q 0,2.42892 1.76261,2.42892 0.37724,0 0.83903,-0.21943 0.46179,-0.227 0.72846,-0.59021 l 0.11707,0.0908 q -0.026,0.0833 -0.0846,0.27241 l -0.10406,0.5448 q -0.11057,0.16647 -0.55936,0.36321 -0.60489,0.30267 -1.29432,0.30267 -1.28781,0 -2.01627,-0.86261 -0.72846,-0.86261 -0.72846,-2.45163 0,-1.50578 0.80001,-2.35324 0.70895,-0.75669 1.76912,-0.75669 1.52195,0 2.07481,1.16528 0.37073,0.77938 0.3252,2.06572 z m -3.60979,-0.63561 h 2.33499 q 0,-2.08085 -1.10571,-2.08085 -1.13171,0 -1.22928,2.08085 z m -2.17236,-4.6157 -0.33172,1.25607 h -0.11057 q -0.52032,-1.21067 -2.11383,-1.21067 -1.37237,0 -2.10083,1.00637 -0.72846,1.00638 -0.72846,2.84509 0,1.65712 0.66993,2.6862 0.76748,1.17284 2.00977,1.17284 1.47643,0 2.54961,-1.46795 l 0.12358,0.0908 -0.12358,1.27878 q -1.2618,0.80964 -2.79678,0.80964 -1.69757,0 -2.79025,-1.14257 -1.16424,-1.21068 -1.16424,-3.31424 0,-2.05815 1.05367,-3.29153 1.13822,-1.36201 3.26506,-1.36201 1.35936,0 2.58864,0.64318 z m -10.08789,6.96139 0.18212,0.1135 q -0.11708,0.20431 -0.22114,0.90045 -0.75448,0.46913 -1.62603,0.46913 -1.29432,0 -2.06181,-0.99124 -0.69594,-0.89288 -0.69594,-2.14895 0,-1.38471 0.70896,-2.28515 0.78699,-1.00638 2.19188,-1.00638 0.77399,0 1.69107,0.43887 -0.18862,0.4086 -0.25366,1.21824 h -0.20813 q -0.0455,-0.28753 -0.23415,-0.55993 -0.34471,-0.51454 -0.9431,-0.51454 -0.74797,0 -1.17724,0.75667 -0.35122,0.58264 -0.35122,1.73278 0,1.09717 0.35122,1.78575 0.42277,0.84748 1.30732,0.84748 0.42278,0 0.76099,-0.21944 0.18862,-0.12864 0.57886,-0.53724 z m -7.06996,1.32418 0.0585,-1.39227 q 0.0325,-0.83235 0.0325,-1.58902 0,-1.90682 -0.11057,-3.19316 0.44228,0.0681 0.73497,0.0681 0.33821,0 0.68944,-0.0681 l -0.0196,0.57507 q -0.0716,1.74035 -0.0716,2.20191 0,0.49185 0.039,2.3457 0,0.0681 0.0195,0.5221 0.0196,0.454 0.0196,0.52967 -0.42277,-0.0757 -0.6374,-0.0757 -0.24716,0 -0.75448,0.0757 z m 0.68293,-7.36243 q -0.29268,0 -0.52683,-0.25727 -0.23416,-0.26484 -0.23416,-0.63561 0,-0.35563 0.22765,-0.62803 0.23415,-0.27241 0.53334,-0.27241 0.31219,0 0.54635,0.27241 0.23414,0.2724 0.23414,0.62803 0,0.37077 -0.24065,0.63561 -0.23415,0.25727 -0.53984,0.25727 z m -5.29436,5.90961 h 0.20164 q 0.35772,0.97612 1.35935,0.97612 0.38375,0 0.60489,-0.2724 0.22114,-0.2724 0.22114,-0.64317 0,-0.36321 -0.27317,-0.57508 -0.1561,-0.13621 -0.67644,-0.36321 -0.3317,-0.13619 -0.74797,-0.32536 -0.87155,-0.49941 -0.87155,-1.62685 0,-0.87017 0.51382,-1.42254 0.51384,-0.55995 1.4049,-0.55995 0.68943,0 1.48944,0.37834 -0.23415,0.51454 -0.27968,1.15015 h -0.17562 q -0.19512,-0.43887 -0.34471,-0.60535 -0.27317,-0.2951 -0.72196,-0.2951 -0.39675,0 -0.6504,0.23457 -0.24717,0.22701 -0.24717,0.61291 0,0.39347 0.29269,0.60534 0.19512,0.14377 0.91709,0.4313 0.72845,0.27997 1.00163,0.52968 0.49431,0.46156 0.49431,1.27877 0,0.75667 -0.4683,1.36202 -0.58537,0.76423 -1.64554,0.76423 -0.64391,0 -1.63903,-0.4994 0.0585,-0.18917 0.1626,-0.53724 0.039,-0.24214 0.0781,-0.59778 z m -6.20491,-0.6583 q 0,-0.454 0.0195,-1.35445 0.0261,-0.90801 0.0261,-1.36201 0,-0.66586 -0.0716,-1.34687 0.39674,0.0681 0.70894,0.0681 0.36423,0 0.72196,-0.0681 -0.13009,0.77938 -0.13009,2.79969 0,1.39985 0.0781,1.73278 0.091,0.37834 0.35772,0.60534 0.27317,0.227 0.61138,0.227 0.72196,0 1.04717,-0.73397 0.18211,-0.4313 0.18211,-1.58902 0,-2.26244 -0.0781,-3.04182 0.40325,0.0681 0.6439,0.0681 0.29919,0 0.74798,-0.0681 -0.10407,1.89924 -0.10407,3.44286 0,1.60415 0.0846,2.73159 l -0.37724,-0.0454 q -0.20813,-0.0303 -0.3187,-0.0303 -0.14309,0 -0.62439,0.0757 0.039,-0.4767 0.039,-1.04421 -0.76098,1.18798 -1.78863,1.18798 -1.07318,0 -1.55448,-1.02151 -0.22114,-0.46914 -0.22114,-1.23338 z m -8.77405,-6.71926 0.34472,0.81721 q 0.9496,2.26245 2.08782,4.60057 l 0.60488,1.24095 0.40326,-0.83234 q 1.2748,-2.61053 2.65368,-5.82639 0.13008,0.0379 0.24065,0.0379 0.13008,0 0.24065,-0.0379 l 0.091,1.06692 q 0.18212,2.22461 0.44229,4.48707 0.27317,2.39108 0.44228,3.27639 -0.53334,-0.0757 -0.80001,-0.0757 -0.23415,0 -0.75447,0.0757 l -0.0325,-0.4767 q -0.052,-0.68857 -0.0976,-1.63442 l -0.35122,-3.7304 q -1.7431,3.42774 -2.63416,5.84152 -0.15611,-0.0228 -0.22765,-0.0228 -0.0781,0 -0.20813,0.0228 -0.33821,-0.75668 -1.52196,-3.38989 -0.48131,-0.99882 -1.11221,-2.32299 -0.36422,3.3445 -0.46178,5.71288 -0.2992,-0.0757 -0.50733,-0.0757 -0.1756,0 -0.46179,0.0757 l 0.0585,-0.39347 q 0.18862,-1.16527 0.59187,-4.26764 0.37074,-3.01156 0.4748,-4.16927 0.13009,0.0379 0.25366,0.0379 0.006,0 0.24066,-0.0379 z m -5.30736,3.89687 0.54635,0.68101 q -0.50732,1.05177 -1.42441,2.25488 0.61139,0.75667 1.51547,1.81602 v 0.1816 q -0.98863,-0.0757 -1.05367,-0.0757 -0.24066,0 -0.70244,0.053 l -0.66343,-0.90044 q -1.25529,1.10473 -2.37399,1.10473 -0.74798,0 -1.28782,-0.37833 -0.28618,-0.18917 -0.52033,-0.55994 -0.35122,-0.5448 -0.35122,-1.18797 0,-1.74035 1.92521,-2.6862 -0.74797,-0.9307 -0.74797,-2.01274 0,-0.83234 0.52683,-1.39985 0.52684,-0.57508 1.39839,-0.57508 0.83903,0 1.24229,0.52211 0.3187,0.42374 0.3187,1.03664 0,1.07448 -1.40489,2.06573 0.53984,0.7718 1.86668,2.57268 0.91708,-1.26364 1.09269,-2.48945 z m -3.49921,4.28277 q 0.72196,0 1.39838,-0.71127 -1.1122,-1.47551 -2.04879,-2.89807 -0.9431,0.77182 -0.9431,1.81602 0,0.80965 0.53334,1.33932 0.4748,0.454 1.06017,0.454 z m -0.55935,-6.45442 q 0,0.55993 0.76098,1.73278 0.96261,-0.83235 0.96261,-1.71008 0,-0.46913 -0.22114,-0.77937 -0.22114,-0.31024 -0.6179,-0.31024 -0.37723,0 -0.6309,0.3178 -0.25365,0.31024 -0.25365,0.74911 z m -6.43907,-1.33931 0.0716,0.0454 q -0.039,0.1589 -0.0716,2.31542 0.6309,0 0.76098,-0.008 l 0.40976,-0.0379 q -0.0325,0.17403 -0.0325,0.3178 0,0.19673 0.0325,0.39347 -0.4813,-0.053 -1.20327,-0.053 0,0.28753 -0.0195,1.24851 -0.013,0.95341 -0.013,1.22582 0,1.52091 0.11707,1.94465 0.1496,0.51454 0.67644,0.51454 0.3382,0 0.66341,-0.2724 -0.0455,0.25726 -0.0455,0.30266 0,0.12106 0.0455,0.30267 -0.62439,0.37834 -1.24878,0.37834 -0.63091,0 -0.99514,-0.34808 -0.46179,-0.41616 -0.46179,-1.44523 0,-0.23458 0.0325,-1.75549 0.0325,-1.52848 0.0325,-2.09599 h -0.33171 q -0.12358,0 -0.52033,0.0454 0.0326,-0.19673 0.0326,-0.28753 0,-0.18161 -0.0326,-0.41617 0.3057,0.0454 0.37724,0.0454 h 0.4813 q 0,-0.87017 -0.0195,-1.46038 0.7935,-0.42374 1.2618,-0.90044 z m -5.8407,8.44447 0.0455,-1.26364 q 0.0195,-0.62047 0.0195,-2.05059 0,-1.27878 -0.0716,-2.86022 0.38374,0.0681 0.72845,0.0681 0.36424,0 0.63091,-0.0681 -0.0716,0.65073 -0.0716,1.34687 0.35123,-0.64317 0.59838,-0.908 0.45529,-0.50697 1.03416,-0.50697 0.1561,0 0.28617,0.0379 -0.0976,0.21944 -0.0976,0.92315 0,0.29509 0.0585,0.55993 l -0.0781,0.0605 q -0.18863,-0.17403 -0.65692,-0.17403 -0.70895,0 -0.98212,0.68857 -0.13008,0.3405 -0.13008,1.27878 0,1.67224 0.091,2.8678 l -0.28617,-0.0379 q -0.20813,-0.0379 -0.35123,-0.0379 -0.10407,0 -0.76748,0.0757 z m -2.406515,0 -0.461794,-1.43011 -0.468292,-1.35445 q -0.943103,-0.0605 -1.411395,-0.0605 -0.442277,0 -1.326841,0.0605 -0.656917,1.82359 -0.891063,2.78456 -0.42927,-0.0757 -0.526831,-0.0757 -0.03254,0 -0.500817,0.0757 l 1.287809,-3.31423 q 1.736604,-4.49464 2.022781,-5.64479 0.195123,0.0681 0.364231,0.0681 0.156101,0 0.351224,-0.0681 0.585371,1.90683 1.593502,4.64599 0.988634,2.65592 1.652051,4.31303 -0.878057,-0.0681 -0.884565,-0.0757 -0.169099,0 -0.42927,0.0379 -0.3187,0.0378 -0.37073,0.0378 z m -1.242287,-3.58663 -1.047164,-3.17046 -1.125209,3.17046 q 0.136585,0 0.578862,0.0228 0.351224,0.0226 0.572362,0.0226 0.331708,0 1.021149,-0.0454 z m -7.063466,3.26883 -1.476434,2.61052 -0.234148,-0.12863 0.676428,-2.99643 q 0.227644,-0.97611 0.734965,-0.97611 0.227644,0 0.39675,0.16647 0.18862,0.18916 0.18862,0.4994 0,0.31024 -0.286181,0.82478 z m -2.165868,-1.00638 0.182115,0.1135 q -0.117075,0.20431 -0.22114,0.90045 -0.754477,0.46913 -1.626028,0.46913 -1.294318,0 -2.061804,-0.99124 -0.69594,-0.89288 -0.69594,-2.14895 0,-1.38471 0.708948,-2.28515 0.786998,-1.00638 2.191886,-1.00638 0.77399,0 1.691069,0.43887 -0.188619,0.4086 -0.25366,1.21824 h -0.208131 q -0.04553,-0.28753 -0.234149,-0.55993 -0.344718,-0.51454 -0.943096,-0.51454 -0.747972,0 -1.177244,0.75667 -0.351222,0.58264 -0.351222,1.73278 0,1.09717 0.351222,1.78575 0.422767,0.84748 1.307326,0.84748 0.422768,0 0.760981,-0.21944 0.18862,-0.12864 0.578867,-0.53724 z m -7.06997,1.32418 0.05854,-1.39227 q 0.03252,-0.83235 0.03252,-1.58902 0,-1.90682 -0.110569,-3.19316 0.442279,0.0681 0.734964,0.0681 0.338215,0 0.689437,-0.0681 l -0.01952,0.57507 q -0.07155,1.74035 -0.07155,2.20191 0,0.49185 0.03902,2.3457 0,0.0681 0.01952,0.5221 0.01952,0.454 0.01952,0.52967 -0.422768,-0.0757 -0.637403,-0.0757 -0.247156,0 -0.754477,0.0757 z m 0.682932,-7.36243 q -0.292685,0 -0.526834,-0.25727 -0.234148,-0.26484 -0.234148,-0.63561 0,-0.35563 0.227644,-0.62803 0.234148,-0.27241 0.533338,-0.27241 0.312197,0 0.546345,0.27241 0.234148,0.2724 0.234148,0.62803 0,0.37077 -0.240653,0.63561 -0.234148,0.25727 -0.53984,0.25727 z m -8.982182,4.60057 q 0,1.86142 0.05854,2.76186 l -0.630898,-0.0757 q -0.07155,0 -0.728461,0.0757 0.07155,-1.61928 0.07155,-3.39747 0,-1.41497 -0.09105,-2.77698 0.513824,0.0681 0.773988,0.0681 0.253661,0 0.585371,-0.0681 -0.05203,0.28753 -0.07155,1.14257 0.611387,-1.19554 1.684565,-1.19554 0.747973,0 1.183748,0.4313 0.227645,0.25727 0.44228,0.76424 0.66342,-1.19554 1.801639,-1.19554 0.852039,0 1.320335,0.63561 0.357726,0.50696 0.357726,1.16527 0,0.2497 -0.01952,0.93828 -0.01301,0.68857 -0.01301,0.9534 0,1.98249 0.07155,2.53486 -0.123577,-0.0151 -0.390246,-0.0454 -0.201628,-0.0303 -0.299189,-0.0303 0.01952,0.008 -0.69594,0.0757 0.09105,-1.26364 0.09105,-2.27002 0,-1.51335 -0.01301,-1.71764 -0.07805,-1.33175 -0.949601,-1.33175 -0.786997,0 -1.034154,0.84748 -0.136586,0.52966 -0.136586,2.09597 0,0.54482 0.07805,2.37596 -0.669923,-0.0757 -0.676427,-0.0757 -0.07805,0 -0.721956,0.0757 0.09105,-0.77937 0.09105,-2.48946 0,-1.67225 -0.07805,-2.02788 -0.175611,-0.80207 -0.962609,-0.80207 -0.656915,0 -0.943096,0.74911 -0.156099,0.39346 -0.156099,1.80844 z m -2.543107,-0.2724 h -3.629294 q 0,2.42892 1.762615,2.42892 0.377238,0 0.839029,-0.21943 0.461793,-0.227 0.728462,-0.59021 l 0.117074,0.0908 q -0.02602,0.0833 -0.08455,0.27241 l -0.104065,0.5448 q -0.11057,0.16647 -0.559354,0.36321 -0.604882,0.30267 -1.294318,0.30267 -1.287814,0 -2.016275,-0.86261 -0.728461,-0.86261 -0.728461,-2.45163 0,-1.50578 0.800006,-2.35324 0.708948,-0.75669 1.769119,-0.75669 1.521962,0 2.074811,1.16528 0.370735,0.77938 0.325206,2.06572 z m -3.609782,-0.63561 h 2.334977 q 0,-2.08085 -1.1057,-2.08085 -1.131715,0 -1.229277,2.08085 z m -3.837427,3.66987 0.02602,-0.88531 q -0.630899,1.06691 -1.678062,1.06691 -1.073178,0 -1.749606,-0.90801 -0.669923,-0.908 -0.669923,-2.23218 0,-1.55875 0.72846,-2.44406 0.676428,-0.8399 1.749606,-0.8399 0.546346,0 0.962609,0.25727 0.25366,0.16647 0.617891,0.59021 0,-2.86024 -0.136587,-4.13901 0.370735,0.0757 0.786998,0.0757 0.351222,0 0.624395,-0.0757 -0.117074,2.39865 -0.117074,4.60814 0,3.98767 0.117074,4.92594 -0.325206,-0.0757 -0.624395,-0.0757 -0.11057,0 -0.637404,0.0757 z m -1.385375,-0.59021 q 0.637403,0 1.001633,-0.6356 0.370735,-0.6356 0.370735,-1.87655 0,-2.45919 -1.326839,-2.45919 -0.741469,0 -1.092691,0.79451 -0.260165,0.62047 -0.260165,1.54362 0,2.63321 1.307327,2.63321 z m -6.536632,-2.80726 0.377238,-0.1135 q 0.234148,-0.0681 0.448784,-0.13619 0.33171,-0.12107 0.383742,-0.31781 0.01301,-0.0605 0.01301,-0.1589 0,-1.36957 -1.079683,-1.36957 -0.995129,0 -1.190252,0.908 -0.110571,-0.0228 -0.169108,-0.0228 -0.06504,0 -0.175611,0.0228 0.05854,-0.4086 0.05854,-0.62804 0,-0.227 -0.01952,-0.34807 0.559354,-0.3859 0.845535,-0.5221 0.429272,-0.18917 0.910576,-0.18917 0.936592,0 1.476433,0.48427 0.539842,0.48427 0.539842,1.43768 0,0.2497 -0.01301,1.12745 -0.01301,0.87017 -0.01301,1.07447 0,1.00637 0.05203,1.26364 0.06504,0.30268 0.331709,0.30268 0.110571,0 0.312198,-0.10592 -0.03902,0.1589 -0.03902,0.24213 0,0.0757 0.03902,0.227 -0.630899,0.28754 -0.943096,0.28754 -0.442279,0 -0.650411,-0.2497 -0.136587,-0.1362 -0.266669,-0.53724 -0.565858,0.87775 -1.482937,0.87775 -0.839031,0 -1.235782,-0.59778 -0.286181,-0.41617 -0.286181,-0.97611 0,-0.96097 0.500817,-1.40741 0.312197,-0.27997 1.274806,-0.57507 z m 1.183748,1.54362 v -1.33931 q -1.06017,0.32537 -1.326839,0.52967 -0.383742,0.28753 -0.383742,0.93071 0,0.50697 0.195123,0.80964 0.195124,0.2951 0.526833,0.2951 0.44228,0 0.715452,-0.35564 0.273173,-0.35563 0.273173,-0.87017 z m -3.987021,0.52967 0.182115,0.1135 q -0.117074,0.20431 -0.22114,0.90045 -0.754477,0.46913 -1.626028,0.46913 -1.294318,0 -2.061803,-0.99124 -0.695941,-0.89288 -0.695941,-2.14895 0,-1.38471 0.708949,-2.28515 0.786997,-1.00638 2.191885,-1.00638 0.77399,0 1.69107,0.43887 -0.188619,0.4086 -0.25366,1.21824 h -0.208132 q -0.04553,-0.28753 -0.234148,-0.55993 -0.344719,-0.51454 -0.943096,-0.51454 -0.747973,0 -1.177245,0.75667 -0.351222,0.58264 -0.351222,1.73278 0,1.09717 0.351222,1.78575 0.422767,0.84748 1.307326,0.84748 0.422768,0 0.760982,-0.21944 0.188619,-0.12864 0.578866,-0.53724 z m -6.471592,1.32418 -0.461792,-1.43011 -0.468296,-1.35445 q -0.943096,-0.0605 -1.411392,-0.0605 -0.44228,0 -1.326839,0.0605 -0.656916,1.82359 -0.891064,2.78456 -0.429271,-0.0757 -0.526832,-0.0757 -0.03252,0 -0.500817,0.0757 l 1.287814,-3.31423 q 1.736597,-4.49464 2.022779,-5.64479 0.195123,0.0681 0.36423,0.0681 0.156099,0 0.351223,-0.0681 0.585369,1.90683 1.593507,4.64599 0.988624,2.65592 1.652044,4.31303 -0.878055,-0.0681 -0.884559,-0.0757 -0.169107,0 -0.429272,0.0379 -0.318701,0.0378 -0.370734,0.0378 z m -1.242285,-3.58663 -1.047163,-3.17046 -1.125211,3.17046 q 0.136587,0 0.578866,0.0228 0.351222,0.0226 0.572362,0.0226 0.33171,0 1.021146,-0.0454 z M 110.04513,73.251189 C 89.781763,80.612918 76.516639,85.261931 62.647085,84.41151 62.425142,85.456535 62.243423,86.473719 62.050949,87.498327 58.398077,89.203648 50.713372,91.15737 46.12228,100.87997 l -0.01837,0.0772 c -1.673442,1.86707 -3.017669,4.34416 -4.082774,7.18066 l 0.107981,-0.31185 c 5.641723,-13.780269 3.460916,-16.037202 1.299143,-19.669454 -2.264457,6.340024 -4.141041,13.033004 -1.909748,21.407654 -1.247087,3.76995 -2.049576,8.05599 -2.520914,12.33143 l 0.143608,-1.71613 c -1.152126,-0.12115 -0.919596,-5.0231 -0.757553,-7.94685 0.271012,-4.89001 -1.164603,-8.1755 -4.61156,-10.63977 -1.515493,8.77214 -1.853428,17.03653 5.038482,22.18535 -0.326849,3.72305 -0.402319,7.36074 -0.267175,10.58028 -1.795855,-1.41661 -2.396671,-4.78109 -3.29739,-8.01497 -1.400285,-5.02751 -5.553029,-6.61494 -7.786495,-8.10853 1.076503,3.17246 2.030723,6.39195 2.727972,9.5176 0.715464,3.20726 3.106956,6.12586 8.465012,8.57151 0.103231,1.41207 0.251196,2.71307 0.438056,3.87459 -3.329057,-2.78766 -8.35107,-4.91609 -10.730993,-5.50052 0.581602,3.94588 3.986356,9.41209 5.364103,10.60091 H 51.94949 c 0.09611,-1.45634 0.14334,-2.76424 0.167541,-3.34876 -0.521894,0.76116 -1.047801,1.2975 -1.573551,1.66958 0.07825,-2.50746 0.193782,-6.11193 0.859968,-11.23852 -3.242185,-0.28516 -8.738644,6.59947 -9.503097,11.20542 -0.331944,-0.73062 -0.841262,-1.44391 -1.475586,-2.12873 -0.296649,-1.41754 -0.528708,-3.17248 -0.675175,-5.17188 6.985307,-0.8787 7.085548,-6.8681 13.205705,-14.3239 -6.203054,-1.14447 -11.252958,4.52558 -13.38438,9.18657 -0.0023,-2.35278 0.09867,-4.85118 0.321169,-7.37977 6.664585,-0.32187 8.14022,-3.06866 15.462224,-11.54893 -6.368206,-1.40505 -12.307091,3.43277 -15.004689,7.53569 0.453609,-3.2097 1.119148,-6.36325 2.012722,-9.22351 3.36632,3.05456 9.781823,1.1467 17.738227,-6.1223 -0.616644,16.67014 3.004029,30.12466 8.884142,40.92311 l 0.09908,0.1564 -10.55566,4.86099 v 12.19086 6.02922 h 33.62348 1.696007 32.394473 1.69712 33.83053 v -6.29933 h -5.5e-4 v -12.18894 l -2.50199,-1.15384 -7.92398,-3.65342 -5.6e-4,-9.5e-4 -0.18702,-0.0864 0.10298,-0.15928 h 0.005 c 5.7424,-10.66874 9.28107,-23.91094 8.73608,-40.25959 7.7753,6.97605 14.03483,8.76776 17.34581,5.76343 0.89357,2.86026 1.55912,6.01381 2.01272,9.22351 -2.6976,-4.10292 -8.63648,-8.94074 -15.00468,-7.53569 7.322,8.48027 8.79762,11.22707 15.46222,11.54893 0.22249,2.5286 0.32347,5.02699 0.32117,7.37977 -2.13142,-4.66099 -7.18134,-10.33105 -13.38438,-9.18657 6.12014,7.4558 6.22039,13.4452 13.2057,14.3239 -0.14646,1.99939 -0.37852,3.75434 -0.67517,5.17188 -0.63433,0.68482 -1.14364,1.3981 -1.47559,2.12873 -0.76445,-4.60596 -6.26091,-11.49057 -9.5031,-11.20542 0.66619,5.12659 0.78173,8.73107 0.85997,11.23852 -0.52575,-0.37207 -1.05165,-0.90843 -1.57355,-1.66958 0.0225,0.54261 0.0699,1.75405 0.15196,3.07818 h 18.51247 c 1.5071,-1.57779 4.54577,-6.61688 5.09304,-10.32985 -2.37993,0.58443 -7.40194,2.71287 -10.73099,5.50052 0.18685,-1.16151 0.33482,-2.463 0.43805,-3.87507 5.35806,-2.44565 7.74955,-5.36377 8.46501,-8.57103 0.69725,-3.12565 1.65148,-6.34515 2.72798,-9.5176 -2.23346,1.49358 -6.38622,3.08054 -7.7865,8.10805 -0.90072,3.23388 -1.50154,6.59883 -3.29739,8.01545 0.13515,-3.21955 0.0597,-6.8577 -0.26718,-10.58076 6.89191,-5.14882 6.55398,-13.41273 5.03849,-22.18487 -3.44696,2.46427 -4.88258,5.74976 -4.61156,10.63977 0.16204,2.92375 0.39457,7.8257 -0.75756,7.94685 l 0.14361,1.71565 c -0.47133,-4.27543 -1.27382,-8.561 -2.52091,-12.33096 2.23129,-8.37464 0.35471,-15.067617 -1.90975,-21.407645 -2.16177,3.632252 -4.34258,5.88917 1.29914,19.669455 l 0.10798,0.31185 c -1.0651,-2.8365 -2.40933,-5.31359 -4.08277,-7.18066 l -0.0184,-0.0773 C 169.15898,91.506604 161.86813,89.355021 158.076,87.684345 c -0.20218,-1.084946 -0.39701,-2.165064 -0.63231,-3.272965 -13.86954,0.850421 -27.13511,-3.798592 -47.3986,-11.160321 z m -5.6e-4,2.437211 0.42526,0.154485 c 18.88265,6.893375 31.08203,11.158823 43.67985,10.382622 l 0.97185,-0.06141 0.17478,0.828554 c 5.3074,25.111369 1.52632,44.038249 -6.29755,58.166859 -0.004,0.008 -0.009,0.0149 -0.0128,0.0225 -0.49946,0.90123 -1.01379,1.78538 -1.54293,2.65023 -0.52779,0.85691 -1.06735,1.69876 -1.62365,2.51829 h -1.30527 c 0.32778,-0.47355 0.66164,-0.9384 0.98021,-1.4249 0.028,-0.0428 0.0556,-0.0862 0.0835,-0.12906 0.759,-1.16499 1.49007,-2.36566 2.18972,-3.60593 0.005,-0.009 0.0105,-0.0178 0.0156,-0.0269 C 155.66345,131.17899 159.5527,112.36021 154.22652,87.16 141.29828,87.956552 128.93338,83.601792 110.04516,76.706373 91.157044,83.601792 78.792038,87.956552 65.863796,87.16 c -5.357724,25.34946 -1.389192,44.24001 6.585319,58.24986 0.0013,0.002 0.0026,0.004 0.0039,0.007 0.983194,1.72684 2.045387,3.35287 3.139869,4.93392 h -1.322517 c -0.533881,-0.7867 -1.050782,-1.59604 -1.558527,-2.41706 -0.500386,-0.81686 -0.98727,-1.65089 -1.462226,-2.4991 -0.0039,-0.007 -0.0083,-0.0136 -0.01225,-0.0206 -7.921057,-14.15581 -11.78369,-33.15672 -6.44394,-58.421139 l 0.174222,-0.828554 0.974077,0.06141 c 12.5978,0.775971 24.797734,-3.489477 43.680377,-10.382852 z m 0.002,2.569628 15.79508,11.434748 -7.99244,3.532998 1.67151,0.541178 7.09908,-3.037399 0.0969,-0.04126 0.0991,0.04318 c 9.61902,4.343275 18.51909,9.17571 24.21611,12.725797 l 0.32618,0.20486 -0.37906,0.11994 c -4.58357,1.46631 -8.33673,2.14589 -11.51136,2.28849 l -28.7453,9.70519 -18.682802,-6.1933 1.063136,-0.33776 16.698466,-6.38905 c 5.28061,-2.02043 0.49567,-3.938429 -1.7923,-3.089209 l -17.024088,6.318999 c -0.543203,0.25052 -1.636927,1.21163 -2.643926,2.27073 l -0.0072,-0.002 c -0.281544,0.28838 -0.541076,0.58073 -0.78093,0.87654 -0.692154,0.8139 -1.229053,1.58585 -1.332538,2.06299 -0.176347,0.35526 -0.322699,0.7153 -0.454756,1.07756 1.040234,1.64399 2.247551,3.26602 4.287053,4.83988 -0.142057,-0.42934 -0.329094,-0.82076 -0.547708,-1.17447 -0.594731,-1.74905 0.236878,-2.14515 0.259939,-3.53636 l 20.957694,6.39577 23.90163,-7.44406 c 0.46156,-0.75071 0.92351,-1.50322 1.45443,-2.25729 l 0.1091,-0.15593 0.18313,0.0907 c 3.2123,1.58824 8.47834,4.50755 12.5745,11.05237 l 0.0924,0.14681 -16.30383,9.46866 -4.17517,-3.58049 c -0.39953,0.18782 -0.80221,0.36925 -1.2073,0.54406 l 4.04214,3.36844 -9.80367,6.06904 -9.59104,-5.93663 -0.17366,-0.10843 c -1.29011,0.03 -2.58502,8.8e-4 -3.87962,-0.0902 l 0.0618,0.0571 -9.793101,6.06376 -9.80367,-6.06904 4.724554,-3.93744 c -0.395539,-0.18747 -0.788716,-0.38326 -1.180582,-0.58436 l -4.885971,4.1898 -0.747536,-0.43419 c -0.03681,0.76651 -0.110082,1.47035 -0.221532,2.11002 l 0.789837,-0.45003 0.1219,-0.0686 10.27902,6.21057 -9.668971,6.165 -11.088894,-6.40632 0.580548,-0.33104 -1.231789,-0.65632 -0.679629,0.38909 -6.24634,-3.25665 -0.02727,-0.0489 c -0.787787,-1.38276 -1.530469,-3.33834 -1.954276,-6.58623 l -0.0045,-0.0398 0.01503,-0.0379 c 1.196288,-3.16306 2.107663,-3.91819 2.812579,-4.86531 l 0.118002,-0.15928 11.301523,6.52674 c 0.194757,-0.37465 0.365801,-0.76203 0.518209,-1.15912 l -10.967552,-6.37033 0.09239,-0.14873 c 3.710858,-5.92919 8.307191,-8.81231 11.541425,-10.49633 0.07415,-0.20728 0.147045,-0.41611 0.231553,-0.6117 0.274907,-0.63626 1.020057,-1.43931 1.64814,-2.04716 l -2.774173,-0.91971 c -3.410342,-0.011 -7.524802,-0.67293 -12.681374,-2.32255 l -0.378497,-0.12186 0.326176,-0.20294 c 5.697019,-3.550099 14.597095,-8.383971 24.216119,-12.727241 l 0.09685,-0.04366 7.847722,3.358365 1.83906,-0.584836 -8.834046,-3.923529 15.971526,-11.167997 z m -0.004,0.478807 -15.325857,10.716538 8.600267,3.819419 7.40577,-2.354212 6.58532,2.131601 7.7659,-3.431767 z m -4.13065,0.727327 0.2232,0.313287 -13.118869,9.117475 -4.946086,-3.21875 0.364025,-0.119462 c 5.428342,-1.785496 10.930883,-3.617432 17.47773,-6.09255 z m 7.98075,0.01391 c 6.54685,2.475116 12.0494,4.307536 17.47773,6.093031 l 0.3618,0.11946 -4.9433,3.220671 -13.11943,-9.117478 z m -9.163,0.798331 c -5.775033,2.149856 -10.883927,3.890021 -15.786176,5.503396 l 4.064407,2.643513 z m 10.34526,0.01583 11.72232,8.147391 4.06218,-2.645431 c -4.90077,-1.612897 -10.01148,-3.352907 -15.7845,-5.50196 z m -28.403539,5.86802 5.54723,3.686524 -0.286102,0.136254 C 87.1805,92.255462 82.400083,94.442353 77.193897,97.109 l -0.109655,0.05613 -10.760491,-5.4559 0.57888,-3.095453 0.176447,-0.0053 c 6.190075,-0.220327 11.838381,-0.163525 19.482658,-2.415624 z m 46.462369,0.01631 0.1091,0.0307 c 7.64428,2.252097 13.29258,2.1953 19.48266,2.415622 l 0.17477,0.0072 0.57833,3.093532 -10.75827,5.457821 -0.10965,-0.05613 c -5.20619,-2.666644 -9.98661,-4.854007 -14.73862,-7.126445 l -0.28611,-0.137694 5.45484,-3.624634 z M 86.584894,86.571897 C 79.01232,88.78473 73.348419,88.757702 67.272561,88.969289 l -0.47535,2.547558 10.286811,5.218899 c 5.069862,-2.592979 9.730802,-4.733661 14.351778,-6.93982 z m 46.634926,0.01439 -4.85369,3.225948 c 4.62097,2.206179 9.282,4.346462 14.35178,6.939338 l 10.28959,-5.220335 -0.47535,-2.54564 c -6.07664,-0.211663 -11.7389,-0.186232 -19.31233,-2.399311 z m -40.124192,4.504525 c -9.388848,4.244763 -18.02227,8.930098 -23.687889,12.435548 4.285836,1.33701 7.818312,1.98218 10.814482,2.13832 l -7.778146,-2.57875 27.933195,-8.879038 -7.281086,-3.11608 z m 33.612902,0.01439 -6.63653,2.840216 28.236,9.140502 -7.37182,2.48903 c 2.69642,-0.25986 5.8015,-0.89284 9.46024,-2.03421 -5.66577,-3.50544 -14.29906,-8.19077 -23.68789,-12.435538 z m -60.549201,1.68638 9.799216,4.957424 -9.06671,5.333074 -0.08238,0.0489 -1.874124,-0.4481 0.01057,-0.15017 c 0.363305,-4.939534 0.752489,-7.516696 1.158875,-9.478257 z m 87.485501,0.01439 0.0545,0.262911 c 0.40639,1.961561 0.79391,4.540172 1.15721,9.479697 l 0.0128,0.15065 -1.77783,0.42267 -0.0969,0.0235 -9.15132,-5.382014 z m -87.150974,0.585796 c -0.384337,1.894844 -0.750993,4.375647 -1.098204,9.015762 l 1.334208,0.31905 8.423263,-4.954068 z m 86.814224,0.01439 -8.65872,4.380744 8.42327,4.954068 1.33587,-0.31905 c -0.34715,-4.638396 -0.71616,-7.121279 -1.10042,-9.015762 z m -92.480014,1.942093 c -0.330759,2.716419 -0.569299,5.366399 -0.692986,7.930059 -4.224642,-0.091 -7.427473,0.16155 -8.08874,0.52246 -3.595404,1.96229 -2.958324,3.23311 -9.228686,5.35899 0.796753,-2.2672 1.746501,-4.31146 2.867683,-5.98508 7.824551,-1.50185 12.587317,-4.628472 15.142729,-7.826429 z m 98.494244,0.523904 c 2.64649,3.011155 7.30391,5.882875 14.70021,7.302525 1.12119,1.67362 2.07093,3.71788 2.86769,5.98508 -6.27035,-2.12587 -5.63328,-3.39671 -9.22869,-5.35899 -0.64162,-0.35018 -3.67035,-0.60053 -7.70857,-0.53206 -0.1156,-2.39517 -0.33465,-4.86811 -0.63064,-7.396555 z m -94.515558,7.686815 16.560984,5.10807 0.426925,0.13242 -0.389076,0.20294 c -6.801832,3.51328 -11.412631,8.58028 -14.486477,14.90154 l -0.271627,0.55845 -0.138598,-0.593 c -1.42033,-6.07919 -2.262191,-12.71507 -1.721054,-20.06382 z m 90.190648,0.0163 0.0189,0.24468 c 0.54113,7.34875 -0.30017,13.98464 -1.7205,20.06383 l -0.13915,0.59299 -0.27108,-0.55653 c -3.07384,-6.32125 -7.68464,-11.39017 -14.48647,-14.90346 l -0.3913,-0.2015 z m -89.778195,0.50568 c -0.483871,6.98428 0.295221,13.30688 1.615855,19.13787 3.042437,-6.00144 7.524391,-10.87918 14.002221,-14.31958 z m 89.364075,0.0163 -15.61641,4.81637 c 6.47783,3.4404 10.96035,8.31767 14.00278,14.3191 1.32028,-5.83 2.09714,-12.1526 1.61363,-19.13547 z m -18.24809,5.46357 c -0.54862,0.79468 -1.0329,1.60024 -1.53737,2.40555 v 10.61627 c -1.85579,1.31402 -3.8117,2.46509 -5.84446,3.44712 l 3.83508,3.2888 15.6704,-9.10309 c -3.97099,-6.25678 -8.94958,-9.07542 -12.12365,-10.65465 z m -54.118058,0.66496 c -3.141565,1.67711 -7.36542,4.45052 -10.871817,9.9753 l 10.522263,6.11222 c 0.420088,-1.23423 0.620388,-2.56296 0.437498,-3.98302 a 3.8273322,3.2989101 0 0 1 -2.145196,-2.96255 3.8273322,3.2989101 0 0 1 1.3125,-2.48423 c -0.06604,-2.12652 0.121465,-4.59881 0.744752,-6.65772 z m 3.390344,2.64255 c -0.337678,1.09056 -0.508773,2.20591 -0.527671,3.33822 a 3.8273322,3.2989101 0 0 1 2.734654,3.16118 3.8273322,3.2989101 0 0 1 -1.983222,2.88867 c 0.405573,2.66403 0.558592,4.83922 0.508189,6.65484 l 0.676844,0.39292 4.557014,-3.90865 c -0.902535,-0.4749 -1.794724,-0.98537 -2.674539,-1.53381 1.401965,-2.52253 1.64887,-4.53055 1.306934,-6.09064 -2.193917,-1.59799 -3.511139,-3.24938 -4.598203,-4.90273 z m 64.280194,8.4626 0.11967,0.15928 c 0.70491,0.94713 1.61685,1.70226 2.81314,4.86531 l 0.0145,0.0379 -0.006,0.0417 c -0.42377,3.24789 -1.16483,5.20298 -1.95261,6.58575 l -0.0273,0.0489 -6.24579,3.25522 -10.38199,-5.94575 15.4856,-8.94332 z m -79.850956,0.50232 c -0.708441,0.91305 -1.512512,1.65893 -2.625556,4.58416 0.417054,3.15949 1.132146,5.04821 1.885256,6.38089 l 5.892332,3.07339 0.288883,-0.16552 -1.043654,-0.55653 c 0.834462,-0.82783 4.565412,-3.32713 6.602019,-6.96429 z m 79.726836,0.0163 -14.76813,8.52976 9.61832,5.50676 5.89456,-3.07338 c 0.75268,-1.33232 1.46774,-3.22034 1.8847,-6.37754 -1.11397,-2.92867 -1.92062,-3.67189 -2.62945,-4.5856 z m -56.223188,4.51508 -4.447915,3.70619 9.121816,5.64685 9.130167,-5.65404 -0.0585,-0.0537 c -4.65949,-0.40279 -9.309545,-1.60068 -13.745618,-3.64526 z m 33.395828,0.5738 c -4.55307,1.90599 -9.43515,2.9913 -14.3952,3.19188 l 9.0489,5.60367 9.12182,-5.64877 z m 5.9363,4.01564 10.48107,5.96925 -11.08889,6.40632 -9.6712,-6.165 10.15935,-6.13812 z m -22.82792,0.0979 9.83929,6.09064 -9.83929,6.09111 -9.59104,-5.93855 -0.24603,-0.15256 z m -23.039431,0.33536 -1.009701,0.57524 c -0.743358,3.45968 -2.60195,5.11869 -4.97837,6.69706 l -3.499999,-1.86629 -0.205946,0.11754 10.297388,5.95102 8.945368,-5.7025 z m 45.875701,0.0163 -9.55097,5.76967 8.9476,5.70298 10.29794,-5.94958 z m -22.83627,0.11227 -9.08564,5.6267 9.08564,5.62478 9.08842,-5.62478 z m -41.590316,2.383 17.961429,9.90621 0.279977,0.15401 -2.517016,1.41243 -7.166424,4.02188 -0.121901,-0.14345 c -0.152334,-0.18041 -0.597569,-0.74273 -1.155531,-1.49591 -0.09447,-0.1278 -0.200138,-0.2752 -0.302799,-0.41692 -0.186809,-0.2579 -0.386466,-0.54045 -0.596136,-0.84151 -0.144877,-0.20813 -0.295643,-0.42917 -0.449189,-0.65632 -1.897062,-2.80698 -4.378309,-6.99625 -5.787132,-11.47601 z m 82.977466,0.0163 -0.14527,0.46393 c -1.39364,4.43145 -3.83563,8.57284 -5.72535,11.37958 -0.15882,0.23583 -0.31879,0.47591 -0.46867,0.69182 -0.20812,0.29965 -0.40145,0.57101 -0.58779,0.82904 -0.11568,0.16018 -0.23834,0.33338 -0.34399,0.4764 -0.56653,0.76542 -1.01342,1.32817 -1.16722,1.51031 l -0.11967,0.14153 -7.49149,-4.20371 h -5.6e-4 l -1.91197,-1.07276 -0.27942,-0.15784 z m -82.213788,0.84679 c 1.41047,4.21704 3.648457,7.9849 5.425332,10.64073 h -0.03674 c 0.370019,0.55708 0.654171,0.93992 0.969068,1.38221 0.189867,0.26699 0.345812,0.50522 0.508748,0.72588 0.497616,0.67638 0.885993,1.17688 1.04755,1.37118 l 6.253576,-3.50805 2.517015,-1.41148 z m 81.447888,0.0144 -16.68233,9.20048 2.18361,1.22484 6.58643,3.69468 c 0.16511,-0.19857 0.5615,-0.7079 1.07594,-1.40907 0.16278,-0.2212 0.33302,-0.48354 0.52155,-0.7494 0.35021,-0.4934 0.67502,-0.93556 1.08929,-1.56643 h -0.0334 c 1.75088,-2.6488 3.8939,-6.31424 5.2589,-10.3951 z m -52.170466,2.98846 9.591046,5.93663 0.24825,0.15401 -2.33333,1.44457 h -5.6e-4 l -7.505406,4.64654 -7.426364,-4.5976 -2.412373,-1.49351 z m 22.894716,0.0144 9.83929,6.09063 -2.18861,1.35486 -7.65068,4.73625 -7.57109,-4.68636 -2.01996,-1.25027 -0.24825,-0.15448 z m -22.894716,0.45002 -9.085636,5.62622 2.408475,1.49111 6.677161,4.13366 6.748406,-4.1778 2.33779,-1.44697 z m 22.894716,0.0158 -9.08564,5.62478 2.26431,1.40235 6.82133,4.22435 6.89424,-4.26944 2.19195,-1.35726 z m -11.3455,6.00044 9.83929,6.09063 -0.0234,0.0144 h -0.75088 l 0.0234,-0.0144 -9.08842,-5.62478 -9.08564,5.62478 0.0234,0.0144 h -0.75199 l -0.0228,-0.0144 z m -22.27798,0.17031 9.585476,5.93471 h -0.748647 l -8.836829,-5.47029 -8.839057,5.47029 h -0.747535 z m 44.3528,0.0144 9.56321,5.92031 h -0.75143 l -8.81178,-5.45446 -8.81011,5.45446 h -0.75088 z m 19.82999,0.84486 10.02854,4.62399 0.0757,0.0345 v 6.2643 5.82676 h 1.93925 4.73457 1.28578 21.66738 l -8.10266,-6.56272 -1.90919,-1.54629 3.19609,-2.691 h 5.6e-4 l 7.06734,-5.94959 h -5.90457 -18.27314 z m -123.584806,0.27059 10.264549,8.64011 -10.011845,8.10901 h 29.626977 v -12.09107 l 10.104243,-4.65805 z m 3.387005,5.4986 c 1.144092,2.11789 2.791113,3.64272 4.698393,4.56882 l 1.766698,-1.43115 -3.515029,-2.95871 c -1.285025,0.0621 -2.369104,-0.18754 -2.950062,-0.17896 z m 156.204701,0 c -0.54,-0.008 -1.51939,0.20247 -2.68511,0.18423 l -3.18996,2.68525 1.72996,1.4014 c 1.66986,-0.94289 3.11393,-2.362 4.14511,-4.27088 z M 67.164576,156.1735 c 0.102031,0 0.185966,0.004 0.252148,0.0125 0.06618,0.009 0.118358,0.0214 0.156966,0.0384 0.04136,0.0142 0.07084,0.0325 0.08739,0.0552 0.01655,0.0227 0.02449,0.0484 0.02449,0.0768 v 3.33198 l 1.092079,-1.51078 c 0.02206,-0.0341 0.04701,-0.0637 0.07459,-0.0892 0.02757,-0.0255 0.0633,-0.0453 0.107426,-0.0595 0.04688,-0.0142 0.103584,-0.0241 0.169767,-0.0298 0.06894,-0.009 0.155708,-0.0129 0.260498,-0.0129 0.102028,0 0.187658,0.004 0.2566,0.0129 0.0717,0.006 0.127845,0.0156 0.169211,0.0298 0.04412,0.0142 0.07474,0.0325 0.09128,0.0552 0.01655,0.0199 0.02449,0.0456 0.02449,0.0768 0,0.0426 -0.01078,0.088 -0.03284,0.13626 -0.0193,0.0482 -0.04992,0.0991 -0.09128,0.15305 l -1.079278,1.25986 1.249045,1.98719 c 0.03309,0.0567 0.05634,0.10617 0.07014,0.14873 0.01654,0.0397 0.02505,0.0768 0.02505,0.11083 0,0.0284 -0.0085,0.0541 -0.02505,0.0768 -0.01379,0.0199 -0.04102,0.0367 -0.08238,0.0508 -0.03861,0.0114 -0.09248,0.0198 -0.161417,0.0254 -0.06894,0.009 -0.158544,0.013 -0.268846,0.013 -0.113063,0 -0.205498,-0.003 -0.277195,-0.009 -0.06894,-0.006 -0.126785,-0.0141 -0.173663,-0.0254 -0.04412,-0.0142 -0.07871,-0.0325 -0.10353,-0.0552 -0.02482,-0.0227 -0.04694,-0.0528 -0.06624,-0.0897 l -1.228448,-2.00014 v 2.00878 c 0,0.0284 -0.0079,0.0541 -0.02449,0.0768 -0.01655,0.0199 -0.04603,0.0367 -0.08739,0.0509 -0.03861,0.0142 -0.09079,0.0241 -0.156966,0.0297 -0.06618,0.009 -0.150117,0.013 -0.252148,0.013 -0.102031,0 -0.186521,-0.004 -0.252704,-0.013 -0.06618,-0.006 -0.119498,-0.0156 -0.160861,-0.0297 -0.03861,-0.0142 -0.06639,-0.031 -0.08294,-0.0509 -0.01654,-0.0227 -0.02505,-0.0484 -0.02505,-0.0768 v -5.596 c 0,-0.0284 0.0085,-0.0541 0.02505,-0.0768 0.01655,-0.0227 0.04433,-0.041 0.08294,-0.0552 0.04136,-0.017 0.09468,-0.0299 0.160861,-0.0384 0.06618,-0.009 0.150673,-0.0125 0.252704,-0.0125 z m 6.146706,0 c 0.102031,0 0.185966,0.004 0.252148,0.0125 0.06618,0.009 0.118358,0.0214 0.156966,0.0384 0.04136,0.0142 0.07029,0.0325 0.08683,0.0552 0.01654,0.0227 0.02505,0.0484 0.02505,0.0768 v 5.596 c 0,0.0284 -0.0085,0.0541 -0.02505,0.0768 -0.01655,0.0199 -0.04547,0.0367 -0.08683,0.0509 -0.03861,0.0142 -0.09079,0.0241 -0.156966,0.0297 -0.06618,0.009 -0.150117,0.013 -0.252148,0.013 -0.102031,0 -0.186521,-0.004 -0.252704,-0.013 -0.06618,-0.006 -0.119498,-0.0156 -0.160861,-0.0297 -0.03861,-0.0142 -0.06639,-0.031 -0.08294,-0.0509 -0.01654,-0.0227 -0.02505,-0.0484 -0.02505,-0.0768 v -5.596 c 0,-0.0284 0.0085,-0.0541 0.02505,-0.0768 0.01655,-0.0227 0.04433,-0.041 0.08294,-0.0552 0.04136,-0.017 0.09468,-0.0299 0.160861,-0.0384 0.06618,-0.009 0.150673,-0.0125 0.252704,-0.0125 z m 2.080629,0 c 0.102031,0 0.185966,0.004 0.252148,0.0125 0.06618,0.009 0.118358,0.0214 0.156965,0.0384 0.04136,0.0142 0.07029,0.0325 0.08683,0.0552 0.01654,0.0227 0.02505,0.0484 0.02505,0.0768 v 5.596 c 0,0.0284 -0.0085,0.0541 -0.02505,0.0768 -0.01655,0.0199 -0.04547,0.0367 -0.08683,0.0509 -0.03861,0.0142 -0.09078,0.0241 -0.156965,0.0297 -0.06618,0.009 -0.150117,0.013 -0.252148,0.013 -0.102031,0 -0.186521,-0.004 -0.252704,-0.013 -0.06618,-0.006 -0.119498,-0.0156 -0.160861,-0.0297 -0.03861,-0.0142 -0.06639,-0.031 -0.08294,-0.0509 -0.01654,-0.0227 -0.02505,-0.0484 -0.02505,-0.0768 v -5.596 c 0,-0.0284 0.0085,-0.0541 0.02505,-0.0768 0.01655,-0.0227 0.04433,-0.041 0.08294,-0.0552 0.04136,-0.017 0.09468,-0.0299 0.160861,-0.0384 0.06618,-0.009 0.150673,-0.0125 0.252704,-0.0125 z m 29.496169,0 c 0.10204,0 0.18653,0.004 0.25271,0.0125 0.0662,0.009 0.11836,0.0214 0.15696,0.0384 0.0414,0.0142 0.0703,0.0325 0.0868,0.0552 0.0165,0.0227 0.025,0.0484 0.025,0.0768 v 5.596 c 0,0.0284 -0.009,0.0541 -0.025,0.0768 -0.0166,0.0199 -0.0455,0.0367 -0.0868,0.0509 -0.0386,0.0142 -0.0908,0.0241 -0.15696,0.0297 -0.0662,0.009 -0.15067,0.013 -0.25271,0.013 -0.10203,0 -0.18596,-0.004 -0.25214,-0.013 -0.0662,-0.006 -0.12006,-0.0156 -0.16142,-0.0297 -0.0386,-0.0142 -0.0664,-0.031 -0.0829,-0.0509 -0.0165,-0.0227 -0.0245,-0.0484 -0.0245,-0.0768 v -5.596 c 0,-0.0284 0.008,-0.0541 0.0245,-0.0768 0.0165,-0.0227 0.0443,-0.041 0.0829,-0.0552 0.0414,-0.017 0.0952,-0.0299 0.16142,-0.0384 0.0662,-0.009 0.15011,-0.0125 0.25214,-0.0125 z m 36.61529,0 c 0.10203,0 0.18597,0.004 0.25215,0.0125 0.0662,0.009 0.11891,0.0214 0.15752,0.0384 0.0414,0.0142 0.0703,0.0325 0.0868,0.0552 0.0166,0.0227 0.0245,0.0484 0.0245,0.0768 v 5.596 c 0,0.0284 -0.008,0.0541 -0.0245,0.0768 -0.0165,0.0199 -0.0455,0.0367 -0.0868,0.0509 -0.0386,0.0142 -0.0913,0.0241 -0.15752,0.0297 -0.0662,0.009 -0.15012,0.013 -0.25215,0.013 -0.10203,0 -0.18596,-0.004 -0.25215,-0.013 -0.0662,-0.006 -0.12005,-0.0156 -0.16141,-0.0297 -0.0386,-0.0142 -0.0664,-0.031 -0.0829,-0.0509 -0.0165,-0.0227 -0.0245,-0.0484 -0.0245,-0.0768 v -5.596 c 0,-0.0284 0.008,-0.0541 0.0245,-0.0768 0.0165,-0.0227 0.0443,-0.041 0.0829,-0.0552 0.0414,-0.017 0.0952,-0.0299 0.16141,-0.0384 0.0662,-0.009 0.15012,-0.0125 0.25215,-0.0125 z m -27.80907,0.0125 c 0.10203,0 0.18652,0.004 0.2527,0.0129 0.0662,0.009 0.11836,0.0214 0.15697,0.0384 0.0386,0.0142 0.0664,0.0325 0.0829,0.0552 0.0165,0.0227 0.0245,0.0484 0.0245,0.0768 v 5.58304 c 0,0.0312 -0.007,0.0584 -0.0206,0.0811 -0.0138,0.0199 -0.037,0.0367 -0.0701,0.0508 -0.0331,0.0142 -0.0785,0.0241 -0.13637,0.0298 -0.0551,0.006 -0.12434,0.009 -0.20706,0.009 -0.0883,0 -0.1597,-0.003 -0.21486,-0.009 -0.0551,-0.006 -0.10108,-0.0156 -0.13693,-0.0298 -0.0331,-0.0142 -0.0575,-0.031 -0.074,-0.0508 -0.0138,-0.0227 -0.0206,-0.0499 -0.0206,-0.0811 v -0.42124 c -0.19027,0.20994 -0.39046,0.37305 -0.60003,0.48936 -0.20682,0.11632 -0.43706,0.17464 -0.69076,0.17464 -0.28127,0 -0.52002,-0.0554 -0.71581,-0.166 -0.19303,-0.11348 -0.35126,-0.26522 -0.47535,-0.4553 -0.12133,-0.19008 -0.2098,-0.4115 -0.26495,-0.66399 -0.0551,-0.25534 -0.0829,-0.52323 -0.0829,-0.80409 0,-0.33761 0.0346,-0.64156 0.10353,-0.91108 0.0717,-0.26952 0.17547,-0.49934 0.31059,-0.68942 0.13512,-0.19008 0.30299,-0.3359 0.50429,-0.43803 0.20131,-0.10213 0.43325,-0.15353 0.69521,-0.15353 0.20682,0 0.39397,0.044 0.56219,0.13194 0.16821,0.0851 0.3355,0.21163 0.50095,0.37902 v -2.05532 c 0,-0.0284 0.007,-0.0541 0.0206,-0.0768 0.0165,-0.0227 0.0438,-0.041 0.0824,-0.0552 0.0414,-0.017 0.0952,-0.0299 0.16142,-0.0384 0.0662,-0.009 0.15012,-0.0129 0.25215,-0.0129 z m 13.77846,0.12761 c 0.28955,0 0.53907,0.0287 0.74865,0.0854 0.20958,0.0567 0.38197,0.13731 0.5171,0.24229 0.13512,0.10213 0.23606,0.23013 0.30224,0.38333 0.0662,0.15036 0.0991,0.32039 0.0991,0.51047 0,0.17022 -0.0289,0.32788 -0.0868,0.47257 -0.0551,0.14469 -0.14078,0.2821 -0.2566,0.4126 -0.11306,0.1305 -0.25484,0.25654 -0.42581,0.37853 -0.17097,0.11916 -0.37115,0.23976 -0.60003,0.36175 0.0745,0.088 0.15725,0.18184 0.24825,0.28114 l 0.28555,0.29362 0.29779,0.2893 c 0.0993,0.0965 0.19568,0.18591 0.28943,0.26819 0.0359,-0.0567 0.0676,-0.12199 0.0952,-0.19575 0.0303,-0.0738 0.0553,-0.15185 0.0746,-0.23412 0.0221,-0.0823 0.0385,-0.16581 0.0495,-0.25092 0.0138,-0.0851 0.0206,-0.16912 0.0206,-0.2514 v -0.13193 c 0,-0.0312 0.006,-0.0579 0.0167,-0.0806 0.011,-0.0227 0.0331,-0.0415 0.0662,-0.0557 0.0359,-0.0142 0.0852,-0.0241 0.14862,-0.0297 0.0662,-0.009 0.15067,-0.0125 0.2527,-0.0125 0.0965,0 0.17648,0.003 0.2399,0.009 0.0634,0.003 0.11277,0.0112 0.14862,0.0254 0.0386,0.0142 0.0647,0.034 0.0785,0.0595 0.0165,0.0227 0.025,0.0523 0.025,0.0892 v 0.13626 c 0,0.13617 -0.01,0.27358 -0.0289,0.41259 -0.0193,0.13902 -0.0482,0.27543 -0.0868,0.40877 -0.0358,0.1305 -0.0812,0.25654 -0.13637,0.37853 -0.0551,0.11916 -0.11583,0.23135 -0.18201,0.33632 0.0965,0.0766 0.17875,0.14036 0.2477,0.19143 0.0717,0.0511 0.13237,0.0921 0.18201,0.12329 0.0496,0.0284 0.091,0.0486 0.12412,0.06 0.0331,0.0113 0.0609,0.0168 0.0829,0.0168 h 0.0829 c 0.0276,0 0.0497,0.01 0.0662,0.0297 0.0165,0.0199 0.0285,0.0554 0.0367,0.10651 0.008,0.0511 0.0128,0.12619 0.0128,0.22549 0,0.10497 -0.003,0.1875 -0.008,0.24708 -0.003,0.0596 -0.01,0.10357 -0.0206,0.13194 -0.008,0.0284 -0.0253,0.0506 -0.0501,0.0676 -0.0221,0.0199 -0.0606,0.0371 -0.11578,0.0513 -0.0551,0.017 -0.12094,0.0254 -0.19815,0.0254 -0.0607,0 -0.12418,-0.008 -0.19036,-0.0254 -0.0634,-0.0142 -0.13772,-0.0424 -0.2232,-0.0849 -0.0855,-0.0454 -0.18473,-0.10371 -0.29779,-0.17464 -0.11307,-0.0738 -0.24407,-0.16766 -0.39298,-0.28114 -0.1296,0.0908 -0.26344,0.17332 -0.40131,0.24708 -0.13788,0.0709 -0.28306,0.13025 -0.43472,0.17847 -0.14891,0.0482 -0.30317,0.0853 -0.46311,0.11083 -0.15994,0.0255 -0.33064,0.0384 -0.51264,0.0384 -0.17924,0 -0.35447,-0.0143 -0.52544,-0.0427 -0.17097,-0.0284 -0.33259,-0.0709 -0.48426,-0.12762 -0.14891,-0.0596 -0.28502,-0.13322 -0.40911,-0.22117 -0.1241,-0.0879 -0.23014,-0.19173 -0.31839,-0.31089 -0.0882,-0.12199 -0.15742,-0.25939 -0.20706,-0.4126 -0.0496,-0.15603 -0.0746,-0.32754 -0.0746,-0.51478 0,-0.15888 0.0221,-0.30813 0.0662,-0.44715 0.0469,-0.14185 0.11606,-0.27481 0.20706,-0.39964 0.091,-0.12483 0.20272,-0.24443 0.33509,-0.35791 0.13512,-0.11348 0.29051,-0.22371 0.467,-0.33152 -0.0993,-0.1305 -0.18605,-0.25258 -0.2605,-0.36606 -0.0717,-0.11631 -0.13237,-0.22702 -0.18201,-0.33199 -0.0469,-0.10498 -0.0826,-0.20432 -0.10743,-0.29794 -0.0221,-0.0965 -0.0334,-0.19136 -0.0334,-0.28498 0,-0.19859 0.0346,-0.38443 0.10353,-0.55749 0.0689,-0.17589 0.17668,-0.32763 0.32283,-0.4553 0.14615,-0.12766 0.33217,-0.22849 0.55829,-0.30225 0.22612,-0.0766 0.49776,-0.11515 0.81488,-0.11515 z m -56.238211,0.004 c 0.231638,0 0.388726,0.041 0.471455,0.1233 0.08273,0.0794 0.124126,0.22277 0.124126,0.42987 -3e-6,0.21562 -0.04254,0.36487 -0.128022,0.44715 -0.08548,0.0823 -0.244271,0.1233 -0.475909,0.1233 -0.234393,0 -0.392621,-0.0395 -0.475347,-0.11899 -0.07997,-0.0794 -0.12023,-0.22276 -0.12023,-0.42987 0,-0.21561 0.0414,-0.36486 0.124126,-0.44714 0.08548,-0.0851 0.245408,-0.12762 0.479801,-0.12762 z m -6.96994,0.17464 c 0.126848,0 0.253875,0.01 0.380726,0.0297 0.126848,0.0199 0.245374,0.047 0.355675,0.0811 0.110305,0.034 0.208409,0.0721 0.293894,0.11467 0.08549,0.0426 0.142194,0.0781 0.169769,0.10651 0.02758,0.0284 0.04516,0.0526 0.05343,0.0724 0.01103,0.0199 0.01953,0.0466 0.02505,0.0806 0.0083,0.0312 0.01338,0.0722 0.01614,0.1233 0.0028,0.0482 0.0045,0.10951 0.0045,0.18327 0,0.0823 -0.0028,0.15148 -0.0083,0.20822 -0.0028,0.0567 -0.0096,0.10369 -0.0206,0.14057 -0.0083,0.0369 -0.02189,0.0641 -0.04119,0.0811 -0.01655,0.017 -0.04036,0.0254 -0.07069,0.0254 -0.03033,0 -0.07854,-0.0198 -0.144719,-0.0595 -0.06618,-0.0397 -0.147281,-0.0822 -0.243798,-0.12762 -0.09651,-0.0482 -0.208234,-0.0912 -0.335082,-0.12809 -0.126848,-0.0397 -0.266352,-0.0595 -0.418019,-0.0595 -0.118575,0 -0.221792,0.0158 -0.310035,0.047 -0.08824,0.0284 -0.162534,0.0694 -0.223202,0.1233 -0.05791,0.0511 -0.102142,0.11335 -0.132473,0.18711 -0.02758,0.0738 -0.04175,0.15185 -0.04175,0.23412 0,0.122 0.03176,0.22827 0.09518,0.31905 0.06618,0.088 0.153505,0.16752 0.261051,0.23844 0.110304,0.0681 0.23394,0.13333 0.37182,0.19575 0.137879,0.0596 0.278521,0.12334 0.421915,0.19143 0.143394,0.0681 0.284035,0.14617 0.421915,0.23412 0.137879,0.0851 0.260934,0.1889 0.36848,0.31089 0.107545,0.11916 0.194312,0.261 0.260495,0.42555 0.06618,0.16171 0.09908,0.353 0.09908,0.57428 0,0.28938 -0.05218,0.54342 -0.156966,0.76187 -0.104786,0.21845 -0.247123,0.40133 -0.426366,0.54885 -0.179243,0.14469 -0.388509,0.25392 -0.62842,0.32768 -0.23991,0.0738 -0.496242,0.11083 -0.769243,0.11083 -0.184757,0 -0.357154,-0.0158 -0.517095,-0.047 -0.157181,-0.0312 -0.296686,-0.0678 -0.418019,-0.11034 -0.121333,-0.0454 -0.22341,-0.0924 -0.306139,-0.14058 -0.07997,-0.0482 -0.137814,-0.0907 -0.173662,-0.12761 -0.03585,-0.0369 -0.06194,-0.0893 -0.07848,-0.15736 -0.01379,-0.0709 -0.0206,-0.17176 -0.0206,-0.30226 0,-0.088 0.0028,-0.16159 0.0084,-0.22117 0.0055,-0.0596 0.01346,-0.10801 0.02449,-0.14489 0.01379,-0.0369 0.03023,-0.0626 0.04954,-0.0768 0.02206,-0.017 0.04701,-0.0254 0.07458,-0.0254 0.03861,0 0.09248,0.0242 0.16142,0.0724 0.0717,0.0454 0.162437,0.0963 0.272741,0.15305 0.110304,0.0567 0.241304,0.10913 0.392972,0.15736 0.154423,0.0454 0.332489,0.0681 0.533792,0.0681 0.132365,0 0.250891,-0.0153 0.355678,-0.0465 0.10479,-0.034 0.193253,-0.081 0.26495,-0.14057 0.07446,-0.0596 0.130604,-0.13322 0.169211,-0.22117 0.03861,-0.088 0.05789,-0.18581 0.05789,-0.29362 0,-0.12483 -0.03289,-0.23157 -0.09908,-0.31952 -0.06618,-0.0908 -0.15295,-0.16988 -0.260495,-0.23797 -0.10479,-0.0709 -0.225009,-0.13616 -0.360133,-0.19574 -0.135121,-0.0624 -0.274066,-0.12766 -0.417461,-0.19575 -0.143394,-0.0681 -0.282898,-0.14469 -0.418019,-0.22981 -0.135121,-0.0879 -0.25648,-0.19173 -0.364025,-0.31088 -0.10479,-0.12199 -0.189862,-0.26533 -0.256044,-0.42987 -0.06618,-0.16455 -0.09963,-0.36175 -0.09963,-0.59155 0,-0.26385 0.04707,-0.49467 0.140823,-0.69327 0.09652,-0.20143 0.224681,-0.36749 0.384622,-0.49799 0.162699,-0.13334 0.353238,-0.23269 0.571088,-0.29794 0.220606,-0.0652 0.453127,-0.0979 0.698552,-0.0979 z m 20.772893,0.0724 c 0.107548,0 0.196011,0.004 0.264949,0.0125 0.06894,0.009 0.123953,0.0199 0.165316,0.0341 0.04136,0.0142 0.07029,0.033 0.08683,0.0557 0.01655,0.0227 0.02505,0.0494 0.02505,0.0806 v 2.34462 l 1.567429,-2.3403 c 0.0193,-0.0369 0.04311,-0.0665 0.07069,-0.0892 0.02757,-0.0255 0.0633,-0.0453 0.107425,-0.0595 0.04412,-0.0142 0.100829,-0.0246 0.169767,-0.0302 0.06894,-0.006 0.156849,-0.008 0.264394,-0.008 0.110302,0 0.2016,0.004 0.273297,0.0125 0.0717,0.009 0.127848,0.0214 0.169211,0.0384 0.04412,0.0142 0.07474,0.0325 0.09128,0.0552 0.01655,0.0227 0.02449,0.0484 0.02449,0.0768 0,0.0482 -0.01192,0.0981 -0.03674,0.14921 -0.02482,0.0511 -0.07188,0.13164 -0.140824,0.24228 l -1.468351,1.97904 1.600828,2.48951 c 0.06067,0.11631 0.0964,0.1944 0.107425,0.23412 0.01379,0.0369 0.0206,0.0665 0.0206,0.0892 0,0.0312 -0.0085,0.0594 -0.02505,0.0849 -0.01379,0.0227 -0.04271,0.0425 -0.08683,0.0595 -0.04136,0.0142 -0.09921,0.0255 -0.173665,0.0341 -0.07445,0.009 -0.168029,0.013 -0.281092,0.013 -0.179242,0 -0.309102,-0.007 -0.389073,-0.0211 -0.07721,-0.0142 -0.133362,-0.0354 -0.169211,-0.0638 -0.03309,-0.0284 -0.05918,-0.0625 -0.07848,-0.10219 l -1.617525,-2.61329 v 2.61329 c 0,0.0312 -0.0085,0.0579 -0.02505,0.0806 -0.01655,0.0227 -0.04547,0.0425 -0.08683,0.0595 -0.04136,0.0142 -0.09637,0.0255 -0.165316,0.0341 -0.06894,0.009 -0.157401,0.013 -0.264949,0.013 -0.104787,0 -0.192694,-0.004 -0.264392,-0.013 -0.06894,-0.009 -0.123949,-0.0199 -0.165315,-0.0341 -0.04136,-0.017 -0.07198,-0.0368 -0.09128,-0.0595 -0.01655,-0.0227 -0.02505,-0.0494 -0.02505,-0.0806 v -5.18772 c 0,-0.0312 0.0085,-0.0579 0.02505,-0.0806 0.0193,-0.0227 0.04992,-0.0415 0.09128,-0.0557 0.04137,-0.0142 0.09638,-0.0255 0.165315,-0.0341 0.0717,-0.009 0.159605,-0.0125 0.264392,-0.0125 z m 47.899558,0.0254 h 3.77218 c 0.0248,0 0.0469,0.008 0.0662,0.0254 0.0221,0.0142 0.0402,0.0399 0.054,0.0768 0.0138,0.0341 0.0234,0.0805 0.0289,0.14009 0.008,0.0596 0.0122,0.13222 0.0122,0.21734 0,0.0823 -0.004,0.15295 -0.0122,0.21253 -0.006,0.0567 -0.0152,0.10369 -0.0289,0.14057 -0.0138,0.034 -0.0319,0.0597 -0.054,0.0768 -0.0193,0.017 -0.0414,0.0254 -0.0662,0.0254 h -1.34033 v 4.43832 c 0,0.0284 -0.01,0.0541 -0.0289,0.0768 -0.0165,0.0227 -0.0455,0.041 -0.0868,0.0552 -0.0414,0.0142 -0.0975,0.0255 -0.16921,0.0341 -0.0689,0.009 -0.1557,0.013 -0.26049,0.013 -0.10479,0 -0.19325,-0.004 -0.26495,-0.013 -0.0689,-0.009 -0.12395,-0.0199 -0.16532,-0.0341 -0.0414,-0.0142 -0.072,-0.0325 -0.0913,-0.0552 -0.0166,-0.0227 -0.0245,-0.0484 -0.0245,-0.0768 v -4.43832 h -1.34033 c -0.0276,0 -0.0508,-0.008 -0.0701,-0.0254 -0.0193,-0.017 -0.0363,-0.0427 -0.0501,-0.0768 -0.0138,-0.0369 -0.0246,-0.0838 -0.0328,-0.14057 -0.006,-0.0596 -0.008,-0.13026 -0.008,-0.21253 0,-0.0851 0.003,-0.15776 0.008,-0.21734 0.008,-0.0596 0.0191,-0.10604 0.0328,-0.14009 0.0138,-0.0369 0.0308,-0.0626 0.0501,-0.0768 0.0193,-0.017 0.0426,-0.0254 0.0701,-0.0254 z m 19.55279,0.39581 c 0.10203,0 0.18596,0.004 0.25215,0.0125 0.0689,0.006 0.12281,0.017 0.16141,0.0341 0.0386,0.0142 0.0658,0.0329 0.0824,0.0557 0.0165,0.0227 0.025,0.0479 0.025,0.0763 v 0.84679 h 0.80264 c 0.0276,0 0.0508,0.007 0.0701,0.0216 0.0221,0.0142 0.0402,0.0384 0.054,0.0724 0.0138,0.0312 0.0234,0.0752 0.0289,0.13194 0.008,0.0567 0.0122,0.12594 0.0122,0.20822 0,0.15603 -0.0136,0.26822 -0.0412,0.33631 -0.0276,0.0652 -0.0678,0.0979 -0.12023,0.0979 h -0.80654 v 1.78329 c 0,0.2071 0.0318,0.3628 0.0952,0.46777 0.0634,0.10213 0.17628,0.15352 0.33898,0.15352 0.0551,0 0.10505,-0.004 0.14917,-0.0129 0.0441,-0.0113 0.0827,-0.0227 0.11578,-0.0341 0.0359,-0.0142 0.0648,-0.0256 0.0868,-0.0341 0.0248,-0.0113 0.0469,-0.0168 0.0662,-0.0168 0.0165,0 0.0319,0.005 0.0456,0.0168 0.0165,0.009 0.0285,0.0283 0.0367,0.0595 0.008,0.0284 0.0156,0.0684 0.0212,0.11947 0.008,0.0511 0.0122,0.1163 0.0122,0.19574 0,0.12483 -0.008,0.22121 -0.025,0.2893 -0.0138,0.0652 -0.0331,0.11172 -0.0579,0.14009 -0.0248,0.0255 -0.0617,0.0497 -0.11132,0.0725 -0.0469,0.0199 -0.10359,0.0371 -0.16977,0.0513 -0.0634,0.017 -0.13374,0.0299 -0.21096,0.0384 -0.0744,0.009 -0.15044,0.0125 -0.22765,0.0125 -0.20682,0 -0.38603,-0.0267 -0.53769,-0.0806 -0.15167,-0.0539 -0.277,-0.13643 -0.37628,-0.24708 -0.0993,-0.11348 -0.17242,-0.25533 -0.2193,-0.42555 -0.0469,-0.17022 -0.0701,-0.37139 -0.0701,-0.60402 v -1.94497 h -0.44251 c -0.0524,0 -0.0926,-0.0326 -0.12022,-0.0979 -0.0276,-0.0681 -0.0412,-0.18028 -0.0412,-0.33631 0,-0.0823 0.003,-0.15148 0.008,-0.20822 0.008,-0.0567 0.019,-0.10073 0.0328,-0.13194 0.0138,-0.034 0.0302,-0.0583 0.0495,-0.0724 0.0221,-0.0142 0.047,-0.0216 0.0746,-0.0216 h 0.43861 v -0.84679 c 0,-0.0284 0.007,-0.0536 0.0206,-0.0763 0.0165,-0.0227 0.0438,-0.0415 0.0824,-0.0557 0.0414,-0.017 0.0952,-0.0284 0.16142,-0.0341 0.0689,-0.009 0.15343,-0.0125 0.2527,-0.0125 z m -25.07052,0.15736 c -0.11582,0 -0.21562,0.0143 -0.29835,0.0427 -0.08,0.0255 -0.14576,0.0636 -0.19815,0.11466 -0.0524,0.0482 -0.091,0.10655 -0.11578,0.17464 -0.0248,0.0652 -0.0373,0.13594 -0.0373,0.21254 0,0.0596 0.01,0.12233 0.0289,0.18759 0.0193,0.0624 0.0454,0.12913 0.0785,0.20006 0.0359,0.0681 0.0801,0.14173 0.13248,0.22117 0.0524,0.0766 0.11138,0.16013 0.17756,0.25092 0.1627,-0.0908 0.29822,-0.17432 0.40577,-0.25092 0.1103,-0.0766 0.19821,-0.15025 0.26439,-0.22117 0.0662,-0.0738 0.11325,-0.14641 0.14083,-0.21734 0.0276,-0.0738 0.0412,-0.14889 0.0412,-0.22549 0,-0.0681 -0.0125,-0.13185 -0.0373,-0.19142 -0.0248,-0.0596 -0.0634,-0.11049 -0.11577,-0.15305 -0.0524,-0.0454 -0.11705,-0.081 -0.19426,-0.10651 -0.0772,-0.0255 -0.16796,-0.0384 -0.27274,-0.0384 z m -49.165301,0.77002 c 0.115819,0 0.227536,0.009 0.335082,0.0259 0.110304,0.017 0.209548,0.0383 0.297789,0.0638 0.08824,0.0255 0.162536,0.0537 0.223205,0.0849 0.06067,0.0284 0.103758,0.0541 0.128577,0.0768 0.02758,0.0199 0.04686,0.0411 0.05789,0.0638 0.01103,0.0199 0.01898,0.0456 0.02449,0.0768 0.0055,0.0284 0.01005,0.065 0.0128,0.11034 0.0055,0.0426 0.0084,0.0964 0.0084,0.16168 0,0.0766 -0.0028,0.13888 -0.0084,0.18711 -0.0028,0.0482 -0.0096,0.0868 -0.02059,0.11515 -0.0083,0.0284 -0.02075,0.0481 -0.03729,0.0595 -0.01655,0.009 -0.03583,0.013 -0.05789,0.013 -0.02482,0 -0.06338,-0.0143 -0.115776,-0.0427 -0.05239,-0.0312 -0.11874,-0.0638 -0.19871,-0.0979 -0.07721,-0.034 -0.16851,-0.0652 -0.2733,-0.0936 -0.102031,-0.0312 -0.218859,-0.047 -0.351224,-0.047 -0.09376,0 -0.175415,0.01 -0.244353,0.0297 -0.06894,0.0199 -0.12509,0.0485 -0.169212,0.0854 -0.04412,0.0369 -0.07757,0.0809 -0.09963,0.13194 -0.02206,0.0482 -0.03284,0.10062 -0.03284,0.15736 0,0.0879 0.02609,0.16159 0.07848,0.22117 0.05239,0.0596 0.121575,0.11197 0.20706,0.15737 0.08549,0.0454 0.181893,0.0884 0.289439,0.12809 0.110304,0.0397 0.220326,0.0837 0.33063,0.13194 0.11306,0.0454 0.223641,0.0993 0.331187,0.16168 0.110304,0.0624 0.207852,0.13902 0.293337,0.22981 0.08548,0.0908 0.154665,0.20001 0.20706,0.32768 0.05239,0.12483 0.07848,0.2736 0.07848,0.44666 0,0.21561 -0.0397,0.40542 -0.119672,0.56996 -0.07721,0.16455 -0.187792,0.30244 -0.331186,0.41308 -0.143394,0.11065 -0.312959,0.1927 -0.508748,0.2466 -0.195789,0.0567 -0.407888,0.0854 -0.636767,0.0854 -0.13788,0 -0.270575,-0.0114 -0.397423,-0.0341 -0.124092,-0.0199 -0.23581,-0.0456 -0.335085,-0.0768 -0.09927,-0.034 -0.182067,-0.0681 -0.24825,-0.10219 -0.06618,-0.034 -0.114385,-0.0652 -0.144719,-0.0936 -0.03033,-0.0312 -0.05359,-0.0782 -0.07013,-0.14057 -0.01654,-0.0652 -0.02505,-0.16015 -0.02505,-0.28498 0,-0.0823 0.0028,-0.14752 0.0083,-0.19575 0.0055,-0.0511 0.01402,-0.0906 0.02505,-0.11898 0.01103,-0.0312 0.02465,-0.051 0.04119,-0.0595 0.01655,-0.0113 0.03752,-0.0173 0.06234,-0.0173 0.03033,0 0.07401,0.0183 0.131918,0.0552 0.06067,0.0341 0.135517,0.0726 0.22376,0.11514 0.08824,0.0426 0.19032,0.0821 0.306139,0.11899 0.118575,0.0369 0.251852,0.0557 0.400763,0.0557 0.09376,0 0.176553,-0.0104 0.24825,-0.0302 0.07446,-0.0198 0.137968,-0.048 0.190363,-0.0849 0.05515,-0.0369 0.09655,-0.0838 0.124126,-0.14058 0.02757,-0.0567 0.04119,-0.12198 0.04119,-0.19574 0,-0.0851 -0.02609,-0.15728 -0.07848,-0.21685 -0.04964,-0.0624 -0.117124,-0.11629 -0.202608,-0.16169 -0.08273,-0.0454 -0.177998,-0.0879 -0.285543,-0.12761 -0.10479,-0.0397 -0.213672,-0.0837 -0.326735,-0.13194 -0.110302,-0.0482 -0.219187,-0.10358 -0.326732,-0.166 -0.10479,-0.0624 -0.200058,-0.13902 -0.285543,-0.22981 -0.08273,-0.0908 -0.150214,-0.20001 -0.202609,-0.32768 -0.04964,-0.12766 -0.07403,-0.28088 -0.07403,-0.45961 0,-0.18157 0.03404,-0.34764 0.102974,-0.498 0.06894,-0.1532 0.168183,-0.28368 0.297789,-0.39149 0.129607,-0.10781 0.287253,-0.19134 0.47201,-0.25092 0.187516,-0.0596 0.396782,-0.0897 0.62842,-0.0897 z m 12.88899,0 c 0.250939,0 0.461901,0.043 0.632873,0.1281 0.173726,0.0851 0.31323,0.20127 0.418017,0.34879 0.107545,0.14469 0.184674,0.31472 0.231552,0.51048 0.04688,0.19575 0.07014,0.4315 0.07014,0.70669 v 2.34462 c 0,0.0284 -0.0085,0.0541 -0.02505,0.0768 -0.01655,0.0199 -0.04377,0.0367 -0.08238,0.0509 -0.0386,0.0142 -0.09248,0.0241 -0.161416,0.0297 -0.06618,0.009 -0.148977,0.013 -0.248253,0.013 -0.102028,0 -0.187658,-0.004 -0.256599,-0.013 -0.06618,-0.006 -0.118358,-0.0156 -0.156965,-0.0297 -0.0386,-0.0142 -0.06639,-0.031 -0.08293,-0.0509 -0.01655,-0.0227 -0.02449,-0.0484 -0.02449,-0.0768 v -2.16615 c 0,-0.1844 -0.01417,-0.32873 -0.04175,-0.4337 -0.02482,-0.10498 -0.06169,-0.19443 -0.111322,-0.26819 -0.04964,-0.0766 -0.114288,-0.13492 -0.194259,-0.17464 -0.07721,-0.0425 -0.16851,-0.0638 -0.273299,-0.0638 -0.132363,0 -0.266198,0.0494 -0.401319,0.14873 -0.135121,0.0993 -0.275762,0.24411 -0.421915,0.43419 v 2.52357 c 0,0.0284 -0.0079,0.0541 -0.02449,0.0768 -0.01654,0.0199 -0.04547,0.0367 -0.08683,0.0509 -0.03861,0.0142 -0.09134,0.0241 -0.157524,0.0297 -0.06618,0.009 -0.150114,0.013 -0.252145,0.013 -0.102031,0 -0.185966,-0.004 -0.252148,-0.013 -0.06618,-0.006 -0.120054,-0.0156 -0.161417,-0.0297 -0.03861,-0.0142 -0.06639,-0.031 -0.08294,-0.0509 -0.01655,-0.0227 -0.02449,-0.0484 -0.02449,-0.0768 v -3.79591 c 0,-0.0284 0.0068,-0.0526 0.0206,-0.0725 0.01379,-0.0227 0.03874,-0.041 0.07459,-0.0552 0.03585,-0.0142 0.08122,-0.0241 0.136369,-0.0298 0.05791,-0.009 0.12937,-0.0129 0.214855,-0.0129 0.08824,0 0.161397,0.004 0.219306,0.0129 0.05791,0.006 0.102143,0.0156 0.132474,0.0298 0.03309,0.0142 0.05635,0.0325 0.07014,0.0552 0.01379,0.0199 0.02059,0.0441 0.02059,0.0725 v 0.4385 c 0.204062,-0.22696 0.411051,-0.39747 0.620628,-0.51095 0.212333,-0.11348 0.432936,-0.17032 0.661815,-0.17032 z m 4.173503,0 c 0.33091,0 0.617861,0.047 0.86053,0.14058 0.242667,0.0908 0.442292,0.22571 0.599473,0.40444 0.159941,0.17873 0.279023,0.39867 0.356234,0.65968 0.07721,0.26101 0.115776,0.56003 0.115776,0.89764 0,0.32342 -0.0414,0.61849 -0.124126,0.88517 -0.08273,0.26668 -0.208613,0.49651 -0.376827,0.68942 -0.168214,0.19292 -0.379175,0.34218 -0.632871,0.44715 -0.253698,0.10497 -0.549734,0.15736 -0.888918,0.15736 -0.328151,0 -0.613962,-0.047 -0.856628,-0.14057 -0.24267,-0.0936 -0.44399,-0.22955 -0.603931,-0.40828 -0.159938,-0.17873 -0.278464,-0.39867 -0.355675,-0.65968 -0.07721,-0.26101 -0.115776,-0.55904 -0.115776,-0.89381 0,-0.32342 0.0414,-0.61848 0.124126,-0.88517 0.08549,-0.26951 0.212512,-0.49934 0.380723,-0.68942 0.168213,-0.19292 0.377479,-0.34169 0.628419,-0.44666 0.253699,-0.10497 0.550291,-0.15785 0.889471,-0.15785 z m 12.798268,0 c 0.30885,0 0.57198,0.047 0.78983,0.14058 0.22061,0.0936 0.40151,0.2241 0.54215,0.39149 0.14063,0.16454 0.24385,0.36027 0.31003,0.58723 0.0662,0.22696 0.0991,0.47408 0.0991,0.74076 v 0.16984 c 0,0.1305 -0.0289,0.22736 -0.0868,0.28977 -0.0552,0.0624 -0.13228,0.0936 -0.23155,0.0936 h -2.24595 c 0,0.16171 0.0176,0.309 0.0534,0.44234 0.0386,0.13051 0.0981,0.2427 0.17811,0.33632 0.0827,0.0908 0.18764,0.16047 0.31449,0.2087 0.12961,0.0482 0.28386,0.072 0.4631,0.072 0.18201,0 0.34193,-0.0124 0.47981,-0.0379 0.13788,-0.0284 0.2564,-0.0585 0.35567,-0.0897 0.10204,-0.0341 0.18597,-0.0637 0.25215,-0.0892 0.0662,-0.0284 0.12006,-0.0427 0.16142,-0.0427 0.0248,0 0.0458,0.006 0.0623,0.0173 0.0165,0.009 0.0302,0.0253 0.0412,0.0509 0.011,0.0255 0.0178,0.0626 0.0206,0.11082 0.006,0.0454 0.008,0.10371 0.008,0.17464 0,0.0624 -10e-4,0.11629 -0.004,0.16168 -0.003,0.0426 -0.007,0.0791 -0.0128,0.11035 -0.006,0.0312 -0.0135,0.0584 -0.0245,0.0811 -0.011,0.0198 -0.0263,0.0396 -0.0456,0.0595 -0.0165,0.0199 -0.0648,0.0465 -0.14472,0.0806 -0.08,0.034 -0.18204,0.0681 -0.30614,0.10219 -0.12409,0.0312 -0.26587,0.0584 -0.42581,0.0811 -0.15994,0.0255 -0.3312,0.0384 -0.5132,0.0384 -0.32815,0 -0.61624,-0.0425 -0.86442,-0.12762 -0.24543,-0.0851 -0.45072,-0.21459 -0.61618,-0.38765 -0.16545,-0.17306 -0.28964,-0.39152 -0.37237,-0.65536 -0.08,-0.26384 -0.12023,-0.57276 -0.12023,-0.92739 0,-0.33761 0.0431,-0.64108 0.12858,-0.91059 0.0855,-0.27236 0.20968,-0.50219 0.37238,-0.68943 0.16269,-0.19008 0.35948,-0.33489 0.59112,-0.43419 0.23439,-0.0993 0.49809,-0.14921 0.7904,-0.14921 z m 12.73592,0 c 0.30885,0 0.57199,0.047 0.78983,0.14058 0.22061,0.0936 0.40095,0.2241 0.54159,0.39149 0.14064,0.16454 0.24441,0.36027 0.31059,0.58723 0.0662,0.22696 0.0991,0.47408 0.0991,0.74076 v 0.16984 c 0,0.1305 -0.0289,0.22736 -0.0868,0.28977 -0.0551,0.0624 -0.13228,0.0936 -0.23155,0.0936 h -2.24595 c 0,0.16171 0.0176,0.309 0.0534,0.44234 0.0386,0.13051 0.0981,0.2427 0.17811,0.33632 0.0827,0.0908 0.18764,0.16047 0.31449,0.2087 0.12961,0.0482 0.28386,0.072 0.4631,0.072 0.18201,0 0.34193,-0.0124 0.47981,-0.0379 0.13788,-0.0284 0.2564,-0.0585 0.35567,-0.0897 0.10204,-0.0341 0.18597,-0.0637 0.25215,-0.0892 0.0662,-0.0284 0.12006,-0.0427 0.16142,-0.0427 0.0248,0 0.0458,0.006 0.0623,0.0173 0.0165,0.009 0.0302,0.0253 0.0412,0.0509 0.011,0.0255 0.0178,0.0626 0.0206,0.11082 0.006,0.0454 0.008,0.10371 0.008,0.17464 0,0.0624 -0.001,0.11629 -0.004,0.16168 -0.003,0.0426 -0.007,0.0791 -0.0128,0.11035 -0.006,0.0312 -0.0135,0.0584 -0.0245,0.0811 -0.011,0.0198 -0.0263,0.0396 -0.0456,0.0595 -0.0165,0.0199 -0.0648,0.0465 -0.14472,0.0806 -0.08,0.034 -0.18204,0.0681 -0.30614,0.10219 -0.12409,0.0312 -0.26587,0.0584 -0.42581,0.0811 -0.15994,0.0255 -0.33119,0.0384 -0.5132,0.0384 -0.32815,0 -0.61624,-0.0425 -0.86442,-0.12762 -0.24542,-0.0851 -0.45072,-0.21459 -0.61617,-0.38765 -0.16546,-0.17306 -0.28965,-0.39152 -0.37238,-0.65536 -0.08,-0.26384 -0.12023,-0.57276 -0.12023,-0.92739 0,-0.33761 0.0431,-0.64108 0.12858,-0.91059 0.0855,-0.27236 0.20968,-0.50219 0.37238,-0.68943 0.16269,-0.19008 0.35948,-0.33489 0.59112,-0.43419 0.2344,-0.0993 0.49809,-0.14921 0.7904,-0.14921 z m 17.46381,0 c 0.28955,0 0.53624,0.0301 0.7403,0.0897 0.20682,0.0567 0.37638,0.1462 0.50875,0.26819 0.13236,0.11916 0.22877,0.27338 0.28944,0.46345 0.0607,0.19009 0.0907,0.41595 0.0907,0.67695 v 2.55332 c 0,0.0397 -0.0136,0.0709 -0.0412,0.0936 -0.0276,0.0227 -0.0718,0.038 -0.13247,0.0465 -0.0579,0.0113 -0.14468,0.0173 -0.26049,0.0173 -0.1241,0 -0.21484,-0.006 -0.27275,-0.0173 -0.0551,-0.009 -0.0954,-0.0238 -0.12023,-0.0465 -0.0221,-0.0227 -0.0328,-0.0538 -0.0328,-0.0936 v -0.30225 c -0.15166,0.16738 -0.32576,0.29787 -0.52154,0.39149 -0.19304,0.0936 -0.40797,0.14057 -0.64512,0.14057 -0.19579,0 -0.37613,-0.0272 -0.54159,-0.0811 -0.1627,-0.0511 -0.30503,-0.12768 -0.42637,-0.22981 -0.11857,-0.10497 -0.21101,-0.23397 -0.27719,-0.38717 -0.0662,-0.1532 -0.0991,-0.33211 -0.0991,-0.53638 0,-0.22129 0.0414,-0.41257 0.12413,-0.57428 0.0855,-0.16455 0.21081,-0.29947 0.37627,-0.40444 0.16821,-0.10781 0.37634,-0.1869 0.62452,-0.23796 0.24818,-0.0511 0.53627,-0.0768 0.86443,-0.0768 h 0.36012 v -0.22981 c 0,-0.11915 -0.0125,-0.22294 -0.0373,-0.31089 -0.0221,-0.0908 -0.0606,-0.16591 -0.11577,-0.22548 -0.0524,-0.0596 -0.12386,-0.10357 -0.21486,-0.13194 -0.0882,-0.0284 -0.19882,-0.0422 -0.33119,-0.0422 -0.17372,0 -0.32967,0.0198 -0.46755,0.0595 -0.13512,0.0397 -0.25479,0.0837 -0.35958,0.13194 -0.10478,0.0482 -0.19325,0.0922 -0.26495,0.13193 -0.0689,0.0397 -0.12508,0.0595 -0.16921,0.0595 -0.0303,0 -0.0581,-0.01 -0.0829,-0.0297 -0.0221,-0.0199 -0.0413,-0.0485 -0.0579,-0.0854 -0.0138,-0.0369 -0.0251,-0.0819 -0.0334,-0.13577 -0.008,-0.0539 -0.0123,-0.11371 -0.0123,-0.17896 0,-0.088 0.007,-0.15763 0.0206,-0.20869 0.0138,-0.0511 0.0399,-0.0961 0.0785,-0.13578 0.0386,-0.0426 0.10665,-0.088 0.20316,-0.13625 0.0965,-0.0511 0.20937,-0.098 0.33898,-0.14057 0.12961,-0.0426 0.27025,-0.0767 0.42192,-0.1022 0.15442,-0.0284 0.3132,-0.0427 0.4759,-0.0427 z m 6.41499,0 c 0.30885,0 0.57255,0.047 0.7904,0.14058 0.22061,0.0936 0.40095,0.2241 0.54159,0.39149 0.14063,0.16454 0.24441,0.36027 0.31059,0.58723 0.0662,0.22696 0.0991,0.47408 0.0991,0.74076 v 0.16984 c 0,0.1305 -0.0289,0.22736 -0.0868,0.28977 -0.0551,0.0624 -0.13227,0.0936 -0.23155,0.0936 h -2.24594 c 0,0.16171 0.0176,0.309 0.0534,0.44234 0.0386,0.13051 0.0982,0.2427 0.17812,0.33632 0.0827,0.0908 0.18764,0.16047 0.31449,0.2087 0.1296,0.0482 0.28386,0.072 0.4631,0.072 0.182,0 0.34193,-0.0124 0.4798,-0.0379 0.13788,-0.0284 0.25641,-0.0585 0.35568,-0.0897 0.10203,-0.0341 0.18597,-0.0637 0.25215,-0.0892 0.0662,-0.0284 0.12005,-0.0427 0.16142,-0.0427 0.0248,0 0.0458,0.006 0.0623,0.0173 0.0165,0.009 0.0302,0.0253 0.0412,0.0509 0.011,0.0255 0.0178,0.0626 0.0206,0.11082 0.006,0.0454 0.008,0.10371 0.008,0.17464 0,0.0624 -0.001,0.11629 -0.004,0.16168 -0.003,0.0426 -0.007,0.0791 -0.0128,0.11035 -0.006,0.0312 -0.0135,0.0584 -0.0245,0.0811 -0.011,0.0198 -0.0263,0.0396 -0.0456,0.0595 -0.0165,0.0199 -0.0648,0.0465 -0.14472,0.0806 -0.08,0.034 -0.18205,0.0681 -0.30614,0.10219 -0.12409,0.0312 -0.26643,0.0584 -0.42637,0.0811 -0.15994,0.0255 -0.33064,0.0384 -0.51264,0.0384 -0.32815,0 -0.61624,-0.0425 -0.86442,-0.12762 -0.24543,-0.0851 -0.45072,-0.21459 -0.61618,-0.38765 -0.16545,-0.17306 -0.28964,-0.39152 -0.37237,-0.65536 -0.08,-0.26384 -0.12023,-0.57276 -0.12023,-0.92739 0,-0.33761 0.0431,-0.64108 0.12858,-0.91059 0.0855,-0.27236 0.20912,-0.50219 0.37182,-0.68943 0.16269,-0.19008 0.36004,-0.33489 0.59168,-0.43419 0.23439,-0.0993 0.49753,-0.14921 0.78983,-0.14921 z m 4.76964,0 c 0.25094,0 0.46191,0.043 0.63287,0.1281 0.17373,0.0851 0.31268,0.20127 0.41747,0.34879 0.10754,0.14469 0.18467,0.31472 0.23155,0.51048 0.0469,0.19575 0.0707,0.4315 0.0707,0.70669 v 2.34462 c 0,0.0284 -0.008,0.0541 -0.025,0.0768 -0.0165,0.0199 -0.0438,0.0367 -0.0824,0.0509 -0.0386,0.0142 -0.0925,0.0241 -0.16141,0.0297 -0.0662,0.009 -0.14898,0.013 -0.24826,0.013 -0.10203,0 -0.18765,-0.004 -0.2566,-0.013 -0.0662,-0.006 -0.11835,-0.0156 -0.15696,-0.0297 -0.0386,-0.0142 -0.0664,-0.031 -0.0829,-0.0509 -0.0165,-0.0227 -0.0245,-0.0484 -0.0245,-0.0768 v -2.16615 c 0,-0.1844 -0.0142,-0.32873 -0.0417,-0.4337 -0.0248,-0.10498 -0.0617,-0.19443 -0.11133,-0.26819 -0.0496,-0.0766 -0.11484,-0.13492 -0.19481,-0.17464 -0.0772,-0.0425 -0.16796,-0.0638 -0.27274,-0.0638 -0.13237,0 -0.2662,0.0494 -0.40132,0.14873 -0.13512,0.0993 -0.27577,0.24411 -0.42192,0.43419 v 2.52357 c 0,0.0284 -0.008,0.0541 -0.025,0.0768 -0.0165,0.0199 -0.0455,0.0367 -0.0868,0.0509 -0.0386,0.0142 -0.0908,0.0241 -0.15696,0.0297 -0.0662,0.009 -0.15012,0.013 -0.25215,0.013 -0.10203,0 -0.18652,-0.004 -0.2527,-0.013 -0.0662,-0.006 -0.1195,-0.0156 -0.16087,-0.0297 -0.0386,-0.0142 -0.0664,-0.031 -0.0829,-0.0509 -0.0166,-0.0227 -0.0251,-0.0484 -0.0251,-0.0768 v -3.79591 c 0,-0.0284 0.007,-0.0526 0.0206,-0.0725 0.0138,-0.0227 0.0387,-0.041 0.0746,-0.0552 0.0359,-0.0142 0.0812,-0.0241 0.13637,-0.0298 0.0579,-0.009 0.12993,-0.0129 0.21541,-0.0129 0.0882,0 0.1614,0.004 0.21931,0.0129 0.0579,0.006 0.10214,0.0156 0.13247,0.0298 0.0331,0.0142 0.0564,0.0325 0.0701,0.0552 0.0138,0.0199 0.0206,0.0441 0.0206,0.0725 v 0.4385 c 0.20406,-0.22696 0.41105,-0.39747 0.62063,-0.51095 0.21233,-0.11348 0.43294,-0.17032 0.66181,-0.17032 z m 6.53523,0 c 0.11582,0 0.22753,0.009 0.33508,0.0259 0.1103,0.017 0.20955,0.0383 0.29779,0.0638 0.0882,0.0255 0.16309,0.0537 0.22376,0.0849 0.0607,0.0284 0.1032,0.0541 0.12802,0.0768 0.0276,0.0199 0.0469,0.0411 0.0579,0.0638 0.011,0.0199 0.0195,0.0456 0.025,0.0768 0.006,0.0284 0.009,0.065 0.0122,0.11034 0.006,0.0426 0.008,0.0964 0.008,0.16168 0,0.0766 -0.003,0.13888 -0.008,0.18711 -0.003,0.0482 -0.01,0.0868 -0.0206,0.11515 -0.008,0.0284 -0.0207,0.0481 -0.0373,0.0595 -0.0165,0.009 -0.0358,0.013 -0.0579,0.013 -0.0248,0 -0.0634,-0.0143 -0.11577,-0.0427 -0.0524,-0.0312 -0.11874,-0.0638 -0.19871,-0.0979 -0.0772,-0.034 -0.16851,-0.0652 -0.2733,-0.0936 -0.10203,-0.0312 -0.21886,-0.047 -0.35123,-0.047 -0.0937,0 -0.17541,0.01 -0.24435,0.0297 -0.0689,0.0199 -0.12509,0.0485 -0.16921,0.0854 -0.0441,0.0369 -0.0776,0.0809 -0.0996,0.13194 -0.0221,0.0482 -0.0328,0.10062 -0.0328,0.15736 0,0.0879 0.0261,0.16159 0.0785,0.22117 0.0524,0.0596 0.12157,0.11197 0.20706,0.15737 0.0855,0.0454 0.18189,0.0884 0.28944,0.12809 0.1103,0.0397 0.22032,0.0837 0.33063,0.13194 0.11306,0.0454 0.22364,0.0993 0.33119,0.16168 0.1103,0.0624 0.20785,0.13902 0.29333,0.22981 0.0855,0.0908 0.15467,0.20001 0.20706,0.32768 0.0524,0.12483 0.0785,0.2736 0.0785,0.44666 0,0.21561 -0.0397,0.40542 -0.11968,0.56996 -0.0772,0.16455 -0.18779,0.30244 -0.33118,0.41308 -0.1434,0.11065 -0.31296,0.1927 -0.50875,0.2466 -0.19579,0.0567 -0.40789,0.0854 -0.63677,0.0854 -0.13788,0 -0.27057,-0.0114 -0.39742,-0.0341 -0.12409,-0.0199 -0.23581,-0.0456 -0.33508,-0.0768 -0.0993,-0.034 -0.18152,-0.0681 -0.2477,-0.10219 -0.0662,-0.034 -0.11494,-0.0652 -0.14527,-0.0936 -0.0303,-0.0312 -0.0536,-0.0782 -0.0701,-0.14057 -0.0165,-0.0652 -0.0245,-0.16015 -0.0245,-0.28498 0,-0.0823 0.002,-0.14752 0.008,-0.19575 0.006,-0.0511 0.014,-0.0906 0.0251,-0.11898 0.011,-0.0312 0.0246,-0.051 0.0412,-0.0595 0.0165,-0.0113 0.0375,-0.0173 0.0623,-0.0173 0.0303,0 0.0746,0.0183 0.13248,0.0552 0.0607,0.0341 0.13496,0.0726 0.2232,0.11514 0.0882,0.0426 0.19032,0.0821 0.30614,0.11899 0.11857,0.0369 0.25241,0.0557 0.40132,0.0557 0.0937,0 0.17599,-0.0104 0.24769,-0.0302 0.0745,-0.0198 0.13797,-0.048 0.19036,-0.0849 0.0552,-0.0369 0.0966,-0.0838 0.12413,-0.14058 0.0276,-0.0567 0.0417,-0.12198 0.0417,-0.19574 0,-0.0851 -0.0266,-0.15728 -0.079,-0.21685 -0.0496,-0.0624 -0.11713,-0.11629 -0.20261,-0.16169 -0.0827,-0.0454 -0.178,-0.0879 -0.28555,-0.12761 -0.10479,-0.0397 -0.21367,-0.0837 -0.32673,-0.13194 -0.1103,-0.0482 -0.21919,-0.10358 -0.32673,-0.166 -0.10479,-0.0624 -0.19951,-0.13902 -0.28499,-0.22981 -0.0827,-0.0908 -0.15077,-0.20001 -0.20316,-0.32768 -0.0496,-0.12766 -0.074,-0.28088 -0.074,-0.45961 0,-0.18157 0.034,-0.34764 0.10298,-0.498 0.0689,-0.1532 0.16874,-0.28368 0.29835,-0.39149 0.1296,-0.10781 0.28669,-0.19134 0.47145,-0.25092 0.18751,-0.0596 0.39678,-0.0897 0.62842,-0.0897 z m -39.40727,0.0173 c 0.11582,0 0.22639,0.007 0.33118,0.0211 0.10755,0.0142 0.20679,0.034 0.29779,0.0595 h 1.17057 c 0.0469,0 0.0843,0.0316 0.11188,0.094 0.0303,0.0624 0.0451,0.1672 0.0451,0.31473 0,0.13618 -0.0147,0.237 -0.0451,0.30225 -0.0303,0.0652 -0.0678,0.0979 -0.11188,0.0979 h -0.43417 c 0.0607,0.0681 0.10321,0.14618 0.12803,0.23413 0.0276,0.0851 0.0412,0.17409 0.0412,0.26771 0,0.22129 -0.0357,0.41849 -0.10743,0.59155 -0.0717,0.17022 -0.17491,0.31503 -0.31003,0.43419 -0.13237,0.11632 -0.29399,0.20577 -0.48426,0.26819 -0.18752,0.0596 -0.39678,0.0892 -0.62842,0.0892 -0.11858,0 -0.23199,-0.0138 -0.33953,-0.0422 -0.10755,-0.0312 -0.19035,-0.0668 -0.24826,-0.10651 -0.0331,0.0369 -0.0631,0.0809 -0.0907,0.13193 -0.0248,0.0511 -0.0373,0.10791 -0.0373,0.17032 0,0.0823 0.0346,0.15 0.10353,0.2039 0.0717,0.0511 0.17094,0.0797 0.29779,0.0854 l 0.89727,0.0341 c 0.20957,0.009 0.39614,0.0396 0.55884,0.0936 0.16545,0.0511 0.30326,0.12471 0.41356,0.22117 0.11307,0.0936 0.1987,0.20729 0.25661,0.34063 0.0607,0.13334 0.0907,0.28508 0.0907,0.4553 0,0.18725 -0.0397,0.3632 -0.11967,0.52775 -0.08,0.16738 -0.20019,0.31171 -0.36013,0.4337 -0.15994,0.122 -0.36126,0.21886 -0.60393,0.28978 -0.23991,0.0709 -0.52119,0.10603 -0.84383,0.10603 -0.31436,0 -0.58317,-0.0252 -0.80653,-0.0763 -0.22061,-0.0511 -0.40265,-0.12223 -0.54604,-0.21302 -0.14064,-0.0908 -0.24385,-0.20001 -0.31004,-0.32768 -0.0634,-0.12483 -0.0952,-0.26223 -0.0952,-0.4126 0,-0.0936 0.0108,-0.18308 0.0328,-0.26819 0.0248,-0.0851 0.0594,-0.16764 0.10353,-0.24708 0.0469,-0.0766 0.10359,-0.15024 0.16977,-0.22117 0.0662,-0.0709 0.14161,-0.13913 0.2271,-0.20438 -0.11858,-0.0652 -0.21046,-0.15275 -0.27664,-0.26339 -0.0634,-0.11348 -0.0952,-0.23704 -0.0952,-0.37038 0,-0.16738 0.0369,-0.31912 0.11132,-0.4553 0.0745,-0.13901 0.17086,-0.26405 0.28944,-0.3747 -0.0965,-0.0993 -0.17364,-0.21841 -0.23155,-0.35742 -0.0579,-0.13902 -0.0868,-0.31201 -0.0868,-0.51911 0,-0.22129 0.0374,-0.41849 0.11188,-0.59155 0.0772,-0.1759 0.18326,-0.32319 0.31838,-0.44234 0.13512,-0.122 0.29674,-0.21442 0.48426,-0.27683 0.18751,-0.0652 0.39394,-0.0979 0.62007,-0.0979 z m -45.396456,0.0552 c 0.102031,0 0.185965,0.004 0.252145,0.0129 0.06618,0.009 0.118361,0.0214 0.156968,0.0384 0.04136,0.0142 0.07084,0.0325 0.08739,0.0552 0.01654,0.0199 0.02449,0.0441 0.02449,0.0724 v 3.78728 c 0,0.0284 -0.0079,0.0541 -0.02449,0.0768 -0.01655,0.0199 -0.04603,0.0367 -0.08739,0.0509 -0.03861,0.0142 -0.09079,0.0241 -0.156968,0.0297 -0.06618,0.009 -0.150114,0.013 -0.252145,0.013 -0.102032,0 -0.186522,-0.004 -0.252704,-0.013 -0.06618,-0.006 -0.119498,-0.0156 -0.160861,-0.0297 -0.03861,-0.0142 -0.06639,-0.031 -0.08294,-0.0509 -0.01655,-0.0227 -0.02505,-0.0484 -0.02505,-0.0768 v -3.78728 c 0,-0.0284 0.0085,-0.0526 0.02505,-0.0724 0.01655,-0.0227 0.04433,-0.041 0.08294,-0.0552 0.04136,-0.017 0.09468,-0.0299 0.160861,-0.0384 0.06618,-0.009 0.150672,-0.0129 0.252704,-0.0129 z m 26.969137,0 c 0.110305,0 0.199907,0.003 0.268846,0.009 0.06894,0.006 0.122812,0.0156 0.161419,0.0297 0.03861,0.0142 0.0647,0.034 0.07848,0.0595 0.01655,0.0227 0.02902,0.0514 0.03729,0.0854 l 0.73195,2.78744 0.0083,0.0509 0.0084,-0.0509 0.686314,-2.78744 c 0.008,-0.034 0.0207,-0.0627 0.0373,-0.0854 0.0193,-0.0255 0.0471,-0.0453 0.0829,-0.0595 0.0358,-0.0142 0.0852,-0.0241 0.14861,-0.0297 0.0662,-0.006 0.15067,-0.009 0.25271,-0.009 0.10203,0 0.18482,0.004 0.24825,0.0129 0.0634,0.006 0.11276,0.0156 0.14861,0.0298 0.0386,0.0113 0.0647,0.0282 0.0785,0.0509 0.0165,0.0198 0.029,0.0441 0.0373,0.0724 l 0.7364,2.80855 0.0122,0.047 0.008,-0.0509 0.703,-2.78744 c 0.006,-0.034 0.0168,-0.0627 0.0334,-0.0854 0.0165,-0.0255 0.0443,-0.0453 0.0829,-0.0595 0.0386,-0.0142 0.0908,-0.0241 0.15697,-0.0297 0.0662,-0.006 0.15012,-0.009 0.25215,-0.009 0.10203,0 0.18482,0.003 0.24825,0.009 0.0662,0.006 0.11722,0.0156 0.15307,0.0297 0.0386,0.0113 0.0647,0.0286 0.0785,0.0513 0.0138,0.0199 0.0206,0.0436 0.0206,0.072 0,0.0312 -0.004,0.0697 -0.0122,0.11515 -0.008,0.0454 -0.0236,0.11063 -0.0456,0.19574 l -0.9841,3.43417 c -0.0138,0.0482 -0.0319,0.0878 -0.054,0.11898 -0.0221,0.0284 -0.0567,0.0511 -0.10353,0.0681 -0.0441,0.017 -0.10878,0.0284 -0.19426,0.0341 -0.0827,0.006 -0.19161,0.009 -0.32673,0.009 -0.13513,0 -0.24515,-0.004 -0.33063,-0.013 -0.0855,-0.006 -0.15353,-0.017 -0.20317,-0.0341 -0.0469,-0.017 -0.0809,-0.0398 -0.10297,-0.0681 -0.0221,-0.0312 -0.0391,-0.0693 -0.0501,-0.11466 l -0.62007,-2.30672 -0.008,-0.0379 -0.008,0.0379 -0.57108,2.30672 c -0.011,0.0482 -0.0275,0.0878 -0.0495,0.11898 -0.0193,0.0284 -0.05334,0.0511 -0.102982,0.0681 -0.04964,0.017 -0.11768,0.0284 -0.203165,0.0341 -0.08548,0.006 -0.195506,0.009 -0.330627,0.009 -0.13788,0 -0.249598,-0.004 -0.335083,-0.013 -0.08273,-0.006 -0.149076,-0.017 -0.198713,-0.0341 -0.04688,-0.017 -0.08147,-0.0398 -0.10353,-0.0681 -0.02206,-0.0312 -0.03851,-0.0693 -0.04954,-0.11466 l -0.975748,-3.43417 c -0.02482,-0.0823 -0.04182,-0.14603 -0.05009,-0.19143 -0.0055,-0.0482 -0.0084,-0.0883 -0.0084,-0.11946 0,-0.0284 0.0074,-0.0521 0.02115,-0.072 0.01655,-0.0227 0.04377,-0.04 0.08238,-0.0513 0.04136,-0.0142 0.09523,-0.0241 0.161417,-0.0297 0.06894,-0.006 0.154568,-0.009 0.256599,-0.009 z m 9.889949,0.68511 c -0.13237,0 -0.24806,0.0257 -0.34733,0.0768 -0.0965,0.0511 -0.17817,0.12075 -0.24436,0.2087 -0.0634,0.0851 -0.11276,0.18693 -0.14861,0.30609 -0.0331,0.11632 -0.0524,0.24135 -0.0579,0.3747 h 1.55519 c 0.008,-0.30073 -0.0513,-0.53648 -0.17812,-0.7067 -0.12409,-0.17306 -0.31691,-0.25955 -0.57888,-0.25955 z m 8.52512,0 c -0.10203,0 -0.19163,0.0188 -0.26884,0.0557 -0.0772,0.0341 -0.14187,0.082 -0.19426,0.14441 -0.0496,0.0596 -0.0871,0.13074 -0.11188,0.21302 -0.0248,0.0794 -0.0373,0.16297 -0.0373,0.25091 0,0.19292 0.055,0.34614 0.16532,0.45962 0.1103,0.11064 0.26342,0.166 0.45921,0.166 0.10478,0 0.19608,-0.0168 0.2733,-0.0509 0.0772,-0.034 0.14072,-0.081 0.19036,-0.14057 0.0524,-0.0596 0.091,-0.12778 0.11577,-0.20438 0.0276,-0.0794 0.0412,-0.16149 0.0412,-0.2466 0,-0.20426 -0.055,-0.3634 -0.16531,-0.47689 -0.1103,-0.11348 -0.26625,-0.17031 -0.46756,-0.17031 z m 4.2108,0 c -0.13237,0 -0.24806,0.0257 -0.34733,0.0768 -0.0965,0.0511 -0.17817,0.12075 -0.24435,0.2087 -0.0634,0.0851 -0.11277,0.18693 -0.14862,0.30609 -0.0331,0.11632 -0.0524,0.24135 -0.0579,0.3747 h 1.55519 c 0.008,-0.30073 -0.0513,-0.53648 -0.17812,-0.7067 -0.12409,-0.17306 -0.31691,-0.25955 -0.57888,-0.25955 z m 23.87937,0 c -0.13237,0 -0.24806,0.0257 -0.34733,0.0768 -0.0965,0.0511 -0.17818,0.12075 -0.24436,0.2087 -0.0634,0.0851 -0.11277,0.18693 -0.14861,0.30609 -0.0331,0.11632 -0.0524,0.24135 -0.0579,0.3747 h 1.55518 c 0.008,-0.30073 -0.0513,-0.53648 -0.17811,-0.7067 -0.1241,-0.17306 -0.31692,-0.25955 -0.57888,-0.25955 z m -49.425802,0.0897 c -0.154423,0 -0.289395,0.0297 -0.405214,0.0892 -0.115819,0.0567 -0.21109,0.14176 -0.285543,0.25524 -0.07446,0.11064 -0.130607,0.24557 -0.169211,0.40444 -0.03585,0.15604 -0.05399,0.33447 -0.05399,0.5359 0,0.18724 0.01531,0.36071 0.04564,0.51958 0.03033,0.15604 0.07854,0.29197 0.144719,0.40829 0.06894,0.11631 0.161377,0.20725 0.277196,0.2725 0.115818,0.0624 0.259292,0.0936 0.430262,0.0936 0.157184,0 0.293294,-0.0287 0.409113,-0.0854 0.115819,-0.0596 0.21109,-0.14459 0.285543,-0.25524 0.07446,-0.11064 0.129467,-0.24409 0.165315,-0.40012 0.03585,-0.15888 0.05399,-0.33879 0.05399,-0.54022 0,-0.18724 -0.01531,-0.35875 -0.04564,-0.51479 -0.02758,-0.15887 -0.07578,-0.29676 -0.14472,-0.41308 -0.06894,-0.11632 -0.161377,-0.20677 -0.277195,-0.27202 -0.113061,-0.0653 -0.256537,-0.0979 -0.430266,-0.0979 z m 17.041902,0.0595 c -0.13512,0 -0.25195,0.0356 -0.35123,0.10651 -0.0965,0.0681 -0.17533,0.16003 -0.236,0.27635 -0.0579,0.11631 -0.10214,0.2468 -0.13248,0.39149 -0.0276,0.14185 -0.0412,0.28814 -0.0412,0.4385 0,0.15888 0.0125,0.31358 0.0373,0.46394 0.0248,0.15036 0.0645,0.2848 0.11967,0.40396 0.0579,0.11632 0.1339,0.21022 0.22766,0.28114 0.0937,0.0709 0.21228,0.10603 0.35568,0.10603 0.0717,0 0.14087,-0.01 0.20706,-0.0297 0.0689,-0.0227 0.13756,-0.0578 0.2065,-0.10603 0.0717,-0.0482 0.14485,-0.11099 0.21931,-0.18759 0.0744,-0.0794 0.15611,-0.17582 0.24435,-0.2893 v -1.25939 c -0.14891,-0.19292 -0.29238,-0.34069 -0.43026,-0.44282 -0.13513,-0.10213 -0.27746,-0.15305 -0.42637,-0.15305 z m 14.50652,0.85975 c -0.0965,0.0624 -0.17818,0.12765 -0.24436,0.19574 -0.0634,0.0653 -0.1156,0.13149 -0.15697,0.19958 -0.0414,0.0681 -0.0714,0.13778 -0.0907,0.2087 -0.0193,0.0709 -0.0295,0.14309 -0.0295,0.21686 0,0.12199 0.0221,0.23418 0.0662,0.33631 0.0441,0.10213 0.10764,0.19011 0.19037,0.26387 0.0827,0.0738 0.1848,0.13208 0.30613,0.17464 0.1241,0.0397 0.26643,0.0595 0.42637,0.0595 0.0827,0 0.16383,-0.007 0.2438,-0.0211 0.0827,-0.017 0.16269,-0.0383 0.2399,-0.0638 0.08,-0.0284 0.15427,-0.061 0.2232,-0.0979 0.0717,-0.0397 0.13805,-0.0827 0.19872,-0.1281 -0.1241,-0.10213 -0.24943,-0.20988 -0.37628,-0.32336 -0.12409,-0.11632 -0.24545,-0.23247 -0.36402,-0.34879 -0.11858,-0.11632 -0.23313,-0.23099 -0.34344,-0.34448 -0.10754,-0.11631 -0.20395,-0.22554 -0.28943,-0.32767 z m 11.69783,0.65919 c -0.16821,0 -0.31169,0.0128 -0.43026,0.0384 -0.11858,0.0255 -0.21555,0.0641 -0.29,0.11515 -0.0745,0.0511 -0.12947,0.11335 -0.16532,0.18711 -0.0331,0.0709 -0.0495,0.15298 -0.0495,0.2466 0,0.15887 0.0482,0.28391 0.14472,0.3747 0.0993,0.0908 0.23595,0.13625 0.40967,0.13625 0.14615,0 0.27999,-0.0385 0.40132,-0.11514 0.1241,-0.0766 0.24943,-0.18831 0.37627,-0.33584 v -0.64721 z m -57.520658,0.52775 c 0.09652,0 0.179311,0.006 0.248252,0.0173 0.06894,0.009 0.12509,0.0283 0.169211,0.0595 0.04688,0.0312 0.08033,0.0767 0.09963,0.13625 0.02206,0.0596 0.03284,0.13767 0.03284,0.23413 0,0.11348 -0.0051,0.21679 -0.01614,0.31041 -0.01103,0.0908 -0.02917,0.17728 -0.05399,0.25955 -0.02482,0.0823 -0.05658,0.16184 -0.09518,0.23845 -0.0386,0.0794 -0.08681,0.16048 -0.144719,0.24276 l -0.554388,0.81704 c -0.0193,0.0284 -0.04142,0.0521 -0.06624,0.072 -0.02206,0.0199 -0.04929,0.0357 -0.08238,0.047 -0.03309,0.0113 -0.07335,0.0198 -0.120228,0.0254 -0.04688,0.009 -0.105864,0.0129 -0.177561,0.0129 -0.07997,0 -0.145178,-0.004 -0.194814,-0.0129 -0.04964,-0.006 -0.08537,-0.0156 -0.107426,-0.0298 -0.02206,-0.0142 -0.03454,-0.0325 -0.03729,-0.0552 0,-0.0227 0.0068,-0.0499 0.02059,-0.0811 l 0.504852,-1.17447 v -0.67215 c 0,-0.0965 0.01078,-0.17455 0.03284,-0.23413 0.02206,-0.0596 0.05665,-0.10504 0.103531,-0.13625 0.04688,-0.0312 0.106419,-0.051 0.178116,-0.0595 0.0717,-0.0113 0.158468,-0.0173 0.260496,-0.0173 z m 35.188128,1.05548 c -0.0717,0.0539 -0.12955,0.1063 -0.17367,0.15737 -0.0414,0.0482 -0.0759,0.0952 -0.10353,0.14057 -0.0248,0.0454 -0.0413,0.0894 -0.0495,0.13193 -0.008,0.0426 -0.0122,0.0866 -0.0122,0.13194 0,0.14185 0.0686,0.2496 0.2065,0.32336 0.14064,0.0738 0.33799,0.11083 0.59169,0.11083 0.15718,0 0.28932,-0.0173 0.39686,-0.0513 0.10755,-0.0312 0.19432,-0.0737 0.2605,-0.12762 0.0662,-0.0539 0.11325,-0.1147 0.14082,-0.18279 0.0276,-0.0653 0.0412,-0.13493 0.0412,-0.20869 0,-0.12767 -0.0493,-0.22553 -0.14861,-0.29362 -0.0993,-0.0681 -0.23594,-0.10515 -0.40967,-0.11083 z m 45.86067,0.34879 v 6.54401 h -3.91746 c 0.32863,0.63623 0.76935,1.24036 1.38541,1.81304 -2.88688,1.9445 -5.84393,3.34923 -8.79062,4.34093 1.48012,-2.09958 2.70765,-4.20186 3.35416,-6.15397 h -6.51964 c -0.63882,3.40314 -0.91243,5.93169 -0.38852,7.16243 -2.90078,0.67183 -5.76334,0.984 -8.50898,1.05501 2.41767,-1.48376 5.4846,-4.72576 6.97718,-8.21744 h -7.30447 c -2.27218,2.76262 -3.621,5.03906 -2.40792,8.21168 -3.60038,-0.10691 -6.92589,-0.58549 -9.79532,-1.1452 3.78617,-1.08653 8.74987,-3.71697 11.13899,-7.06648 h -9.6801 c -0.11283,0.075 -0.22572,0.14896 -0.33842,0.22933 -1.39424,0.73883 -2.58058,1.48236 -3.48163,2.36237 -4.58548,2.95041 -9.12227,5.29765 -13.23743,7.1039 l -0.49428,0.21781 -0.49205,-0.21781 c -5.25875,-2.3082 -11.205339,-5.47468 -17.063604,-9.6956 h -10.05693 c 2.389125,3.34948 7.352279,5.97996 11.138434,7.06648 -2.869439,0.5597 -6.194949,1.03829 -9.79532,1.1452 1.212991,-3.17241 -0.135455,-5.44929 -2.407364,-8.21168 h -7.305022 c 1.492646,3.49153 4.559606,6.73374 6.977176,8.21744 -2.745635,-0.071 -5.608198,-0.38318 -8.508982,-1.05501 0.523914,-1.23073 0.250292,-3.75934 -0.388518,-7.16243 h -6.51964 c 0.64653,1.95206 1.874081,4.05446 3.354168,6.15397 -2.946702,-0.9917 -5.903743,-2.39644 -8.790632,-4.34093 0.61596,-0.57258 1.056781,-1.17689 1.385417,-1.81304 h -3.327448 v -6.2739 h -2.559874 c -0.09096,1.71842 0.07711,3.43032 0.421915,4.91473 -1.6084,-1.42944 -3.178343,-3.06624 -4.698393,-4.91473 h -1.299698 c 1.706597,2.13371 3.48187,3.99901 5.306774,5.61471 -6.382974,-4.56267 -16.276729,-4.54897 -17.559553,-0.66784 1.511227,0.0223 5.792296,1.19109 9.892728,4.08041 2.380721,1.67755 9.145917,1.52574 12.248328,0.12378 0,-0.011 -0.0017,-0.0212 -0.0022,-0.0321 2.380592,1.55718 4.808683,2.76881 7.242126,3.69276 -0.994446,0.008 -2.222379,0.0735 -4.194655,-0.40109 -7.218837,-1.73722 -12.082571,1.38922 -12.741487,3.05276 2.212818,-0.95598 6.491806,3.39906 12.231072,2.99806 4.48437,-0.31332 7.278863,-2.80979 8.529019,-4.17973 0.272619,0.0304 0.509013,0.008 0.712468,-0.0643 2.829544,0.69232 5.622455,1.04928 8.310272,1.17111 -1.059323,0.20418 -2.455282,0.51761 -4.72845,0.92931 -7.422834,1.34437 -8.892997,4.48809 -10.493872,6.88561 2.768696,-0.0758 7.150023,1.15506 12.498802,-0.68271 4.442816,-1.52648 6.51591,-5.5954 7.154737,-7.12837 1.60331,-0.0688 3.148598,-0.20768 4.619907,-0.39053 -8.347494,4.78904 -6.861599,9.62462 -8.325855,11.34263 3.114226,0.22602 10.220536,-2.93928 13.355993,-7.27997 2.806491,-3.88525 3.518047,-4.67658 4.059397,-5.79653 0.127432,-0.0312 0.264822,-0.0639 0.388518,-0.0945 l -0.148618,-0.44618 5.58e-4,-4.8e-4 c -0.0011,-0.002 -0.0014,-0.003 -0.0022,-0.005 l -0.07681,-0.23172 c 4.042806,2.42641 8.008296,4.42214 11.659986,6.01722 3.50802,-1.53232 7.30566,-3.43453 11.18296,-5.73176 l -0.13247,0.39868 c 0.12369,0.0306 0.26108,0.0633 0.38852,0.0945 0.54134,1.11996 1.25291,1.91127 4.05939,5.79653 3.13546,4.34069 10.24177,7.50599 13.35599,7.27997 -1.46425,-1.71803 0.0216,-6.5536 -8.32585,-11.34263 1.47133,0.18284 3.01659,0.32175 4.61991,0.39053 0.63881,1.53297 2.71192,5.60187 7.15473,7.12837 5.34878,1.83777 9.7301,0.60695 12.49881,0.68271 -1.60088,-2.39752 -3.07104,-5.54124 -10.49388,-6.88561 -2.27317,-0.4117 -3.66911,-0.72513 -4.72845,-0.92931 2.68783,-0.12183 5.48072,-0.4788 8.31027,-1.17111 0.20345,0.0724 0.43985,0.0948 0.71247,0.0643 1.25016,1.36994 4.04465,3.8664 8.52902,4.17973 5.73927,0.401 10.01826,-3.95404 12.23107,-2.99806 -0.65891,-1.66353 -5.52265,-4.78998 -12.74148,-3.05276 -1.97228,0.47463 -3.20022,0.40917 -4.19466,0.40109 2.43344,-0.92395 4.86154,-2.13558 7.24213,-3.69276 -5.8e-4,0.0109 -0.002,0.0211 -0.002,0.0321 3.10241,1.40196 9.8676,1.55329 12.24833,-0.12426 4.10043,-2.88932 8.3815,-4.05813 9.89272,-4.08041 -1.28282,-3.88112 -11.17659,-3.89435 -17.55955,0.66831 1.90103,-1.68309 3.74772,-3.63868 5.5194,-5.88529 h -1.29023 c -1.58877,1.96129 -3.2337,3.68573 -4.92048,5.18484 0.36291,-1.56238 0.52729,-3.37602 0.40187,-5.18484 z m -67.854225,6.54401 c 5.455102,3.81013 10.950405,6.71211 15.845735,8.86081 4.89537,-2.1487 10.39063,-5.05068 15.84573,-8.86081 h -3.51781 c -4.15077,2.23363 -8.24475,4.68396 -12.3179,6.02203 l -0.0863,0.0274 -0.0818,-0.0326 c -4.42341,-1.77037 -6.64646,-3.0237 -11.664993,-6.01675 z m 4.781885,0 c 4.62012,2.74835 6.81309,3.95901 11.00039,5.63966 3.77622,-1.25435 7.62312,-3.50974 11.54978,-5.63966 h -4.62325 c -1.74535,1.29228 -3.8013,2.55073 -6.76678,3.69181 l -0.0985,0.0384 -0.0952,-0.0437 c -2.69645,-1.22799 -4.71605,-2.45834 -6.49403,-3.68653 z m 5.20436,0 c 1.63481,1.10065 3.47247,2.20015 5.87173,3.30032 2.64435,-1.02804 4.53274,-2.14607 6.14894,-3.30032 z" />
    </g>
  </g>
</svg>
