<?xml version="1.0" encoding="UTF-8" standalone="no"?>
<!-- Uploaded to: SVG Repo, www.svgrepo.com, Generator: SVG Repo Mixer Tools -->

<svg
   fill="#000000"
   height="731.37134"
   width="769.57336"
   version="1.1"
   id="Capa_1"
   viewBox="0 0 588.72555 559.5009"
   xml:space="preserve"
   xmlns="http://www.w3.org/2000/svg"
   xmlns:svg="http://www.w3.org/2000/svg"><defs
   id="defs840" />
<g
   id="g835"
   transform="rotate(-92.971465,295.23079,284.53641)">
	<path
   d="M 590.267,4.223 C 506.53984,118.56046 371.9214,136.11476 221.31374,223.89926 193.47087,240.128 174.61039,270.15524 160.715,299.233 144.72313,332.69788 137.068,407.96 137.068,407.96 c -2.039,9.417 -1.642,18.367 0.988,26.078 96.5516,-84.42641 145.83618,-76.90135 292.61535,-226.67831 -86.80782,149.27108 -152.01137,130.43578 -282.65666,246.67489 -41.05565,36.52846 -80.789138,73.21102 -142.4335013,106.2749 0,0 26.7721223,9.43422 47.3948473,0.59851 C 111.93415,542.97068 140.77126,467.13937 186.535,457.423 c 0,0 69.44069,-8.45837 132.62401,-36.29442 9.23227,-4.06737 -30.86743,14.09386 -50.62188,-1.5565 C 365.75007,424.81125 622.54503,155.35287 590.267,4.223 Z"
   id="path833" />
</g>
</svg>
