<?xml version="1.0" encoding="UTF-8" standalone="no"?>
<svg
   width="90.483536mm"
   height="43.607937mm"
   version="1.1"
   viewBox="0 0 90.483536 43.607938"
   id="svg7171"
   sodipodi:docname="LogoTextLeftWhite.svg"
   inkscape:version="1.1.2 (b8e25be833, 2022-02-05)"
   inkscape:export-filename="C:\Users\argon\Downloads\DarkBlueLockup.png"
   inkscape:export-xdpi="329.99524"
   inkscape:export-ydpi="329.99524"
   xmlns:inkscape="http://www.inkscape.org/namespaces/inkscape"
   xmlns:sodipodi="http://sodipodi.sourceforge.net/DTD/sodipodi-0.dtd"
   xmlns:xlink="http://www.w3.org/1999/xlink"
   xmlns="http://www.w3.org/2000/svg"
   xmlns:svg="http://www.w3.org/2000/svg">
  <sodipodi:namedview
     id="namedview7173"
     pagecolor="#505050"
     bordercolor="#eeeeee"
     borderopacity="1"
     inkscape:pageshadow="0"
     inkscape:pageopacity="0"
     inkscape:pagecheckerboard="0"
     inkscape:document-units="mm"
     showgrid="false"
     inkscape:zoom="1.0183535"
     inkscape:cx="11.292739"
     inkscape:cy="66.283466"
     inkscape:window-width="1440"
     inkscape:window-height="878"
     inkscape:window-x="-6"
     inkscape:window-y="-6"
     inkscape:window-maximized="1"
     inkscape:current-layer="svg7171" />
  <defs
     id="defs7103">
    <radialGradient
       id="radialGradient16626-9-5-5-9-9-5-5-6"
       cx="-62.826"
       cy="38.674999"
       r="62.849998"
       gradientTransform="matrix(0.90162,0.60578,-0.58626,0.87258,10.798,34.317)"
       gradientUnits="userSpaceOnUse">
      <stop
         stop-color="#f35e5e"
         offset="0"
         id="stop7052" />
      <stop
         stop-color="#f03737"
         offset="1"
         id="stop7054" />
    </radialGradient>
    <linearGradient
       id="linearGradient39939"
       x1="-11.942"
       x2="-76.394997"
       y1="73.220001"
       y2="-11.117"
       gradientUnits="userSpaceOnUse">
      <stop
         stop-color="#001498"
         offset="0"
         id="stop7057" />
      <stop
         stop-color="#b4007a"
         offset="1"
         id="stop7059" />
    </linearGradient>
    <linearGradient
       id="linearGradient39937"
       x1="-86.053001"
       x2="-23.153"
       y1="7.8832002"
       y2="74.710999"
       gradientUnits="userSpaceOnUse"
       xlink:href="#Paired_with_Light_Blue_Clarinet" />
    <linearGradient
       id="Paired_with_Light_Blue_Clarinet">
      <stop
         stop-color="#0b32b0"
         offset="0"
         id="stop7063" />
      <stop
         stop-color="#4caeff"
         offset="1"
         id="stop7065" />
    </linearGradient>
    <linearGradient
       id="linearGradient39943"
       x1="-7.7529998"
       x2="144.89999"
       y1="18.666"
       y2="-26.424"
       gradientUnits="userSpaceOnUse"
       xlink:href="#linearGradient5360" />
    <linearGradient
       id="linearGradient5360">
      <stop
         stop-color="#00a8b4"
         offset="0"
         id="stop7069" />
      <stop
         stop-color="#90e0ef"
         offset="1"
         id="stop7071" />
    </linearGradient>
    <linearGradient
       id="linearGradient39941"
       x1="79.050003"
       x2="126.04"
       y1="40.539001"
       y2="-32.618999"
       gradientUnits="userSpaceOnUse"
       xlink:href="#Light_Blue_Gradient" />
    <linearGradient
       id="Light_Blue_Gradient">
      <stop
         stop-color="#65e9ff"
         offset="0"
         id="stop7075" />
      <stop
         stop-color="#b2eff0"
         offset="1"
         id="stop7077" />
    </linearGradient>
    <linearGradient
       id="linearGradient39947"
       x1="15.056"
       x2="117.36"
       y1="67"
       y2="-0.88132"
       gradientUnits="userSpaceOnUse"
       xlink:href="#linearGradient5360" />
    <linearGradient
       id="linearGradient39945"
       x2="138.44"
       y1="104.27"
       y2="-27.177999"
       gradientUnits="userSpaceOnUse"
       xlink:href="#Light_Blue_Gradient" />
    <linearGradient
       id="linearGradient39949"
       x1="11.448"
       x2="-78.149002"
       y1="-78.487"
       y2="84.490997"
       gradientUnits="userSpaceOnUse"
       xlink:href="#Paired_with_Light_Blue_Clarinet" />
    <linearGradient
       id="linearGradient39953"
       x1="-129.75999"
       x2="32.405998"
       y1="52.285"
       y2="29.621"
       gradientUnits="userSpaceOnUse"
       xlink:href="#linearGradient5360" />
    <linearGradient
       id="linearGradient39951"
       x1="-106.78"
       x2="62.125"
       y1="97.519997"
       y2="-23.360001"
       gradientUnits="userSpaceOnUse"
       xlink:href="#Light_Blue_Gradient" />
    <linearGradient
       id="linearGradient39955"
       x2="1"
       gradientTransform="matrix(1,0,0,-1,0,4.4337e-5)"
       gradientUnits="userSpaceOnUse">
      <stop
         stop-color="#ecdb9e"
         offset="0"
         id="stop7085" />
      <stop
         stop-color="#ecdb9e"
         offset=".07"
         id="stop7087" />
      <stop
         stop-color="#fbb36a"
         offset=".3"
         id="stop7089" />
      <stop
         stop-color="#eb9053"
         offset=".58"
         id="stop7091" />
      <stop
         stop-color="#e76a4c"
         offset=".88"
         id="stop7093" />
      <stop
         stop-color="#e76a4c"
         offset="1"
         id="stop7095" />
    </linearGradient>
    <linearGradient
       id="linearGradient39959"
       x2="17.261"
       y1="0.88749999"
       y2="0.88749999"
       gradientUnits="userSpaceOnUse"
       xlink:href="#Light_Blue_Gradient" />
    <linearGradient
       id="linearGradient39963"
       x2="8.6309996"
       y1="5.4805002"
       y2="5.4805002"
       gradientUnits="userSpaceOnUse"
       xlink:href="#Light_Blue_Gradient" />
    <linearGradient
       id="linearGradient39965"
       x1="-63.271"
       x2="-96.143997"
       y1="161.07001"
       y2="71.083"
       gradientUnits="userSpaceOnUse"
       xlink:href="#Paired_with_Light_Blue_Clarinet" />
    <linearGradient
       id="linearGradient39969"
       x1="735.47998"
       x2="1350"
       y1="2209.7"
       y2="1884.5"
       gradientUnits="userSpaceOnUse"
       xlink:href="#linearGradient5360" />
    <linearGradient
       id="linearGradient39967"
       x1="918.37"
       x2="965.66998"
       y1="1725.3"
       y2="2248.8"
       gradientUnits="userSpaceOnUse"
       xlink:href="#Light_Blue_Gradient" />
    <linearGradient
       id="_Linear1"
       x1="0"
       y1="0"
       x2="1"
       y2="0"
       gradientUnits="userSpaceOnUse"
       gradientTransform="matrix(1,0,0,-1,0,4.43368e-5)">
      <stop
         offset="0"
         style="stop-color:rgb(236,219,158);stop-opacity:1"
         id="stop4675" />
      <stop
         offset="0.07"
         style="stop-color:rgb(236,219,158);stop-opacity:1"
         id="stop4677" />
      <stop
         offset="0.3"
         style="stop-color:rgb(251,179,106);stop-opacity:1"
         id="stop4679" />
      <stop
         offset="0.58"
         style="stop-color:rgb(235,144,83);stop-opacity:1"
         id="stop4681" />
      <stop
         offset="0.88"
         style="stop-color:rgb(231,106,76);stop-opacity:1"
         id="stop4683" />
      <stop
         offset="1"
         style="stop-color:rgb(231,106,76);stop-opacity:1"
         id="stop4685" />
    </linearGradient>
  </defs>
  <g
     aria-label="FRC 7902"
     id="text6211-1-8-9-4-4-8-5-7"
     style="font-size:12.8938px;line-height:1.25;font-family:'Bebas Neue';-inkscape-font-specification:'Bebas Neue, Normal';letter-spacing:0px;fill:#ffffff;stroke-width:0.322346"
     transform="translate(-7.5490868,-5.6426576)">
    <path
       d="M 7.5490868,5.7973832 H 12.100598 V 6.9642721 H 8.8513606 V 9.4592223 H 11.874957 V 10.619664 H 8.8513606 v 3.687627 H 7.5490868 Z"
       style="font-weight:500;font-family:'League Spartan';-inkscape-font-specification:'League Spartan, Medium'"
       id="path5443" />
    <path
       d="m 13.473769,5.7973832 h 3.094512 q 0.702712,0 1.270039,0.2965574 0.567327,0.2901105 0.902566,0.8509908 0.341686,0.5544333 0.341686,1.347402 0,0.7929687 -0.309452,1.3087207 -0.309451,0.5157519 -0.741393,0.7800749 -0.425495,0.257876 -0.786522,0.283664 l 2.095243,3.642498 h -1.469893 l -1.940517,-3.545795 h -1.153995 v 3.545795 h -1.302274 z m 1.302274,4.0228655 h 1.334508 q 0.696265,0 1.166889,-0.3481326 0.470623,-0.3481326 0.470623,-1.1411013 0,-0.7929687 -0.470623,-1.1282074 -0.464177,-0.3352388 -1.160442,-0.3352388 h -1.340955 z"
       style="font-weight:500;font-family:'League Spartan';-inkscape-font-specification:'League Spartan, Medium'"
       id="path5445" />
    <path
       d="m 24.704259,13.179084 q 0.747841,0 1.308721,-0.206301 0.56088,-0.212748 0.805862,-0.412602 l 0.560881,1.115314 q -0.290111,0.257876 -1.012164,0.522199 -0.722052,0.264323 -1.727769,0.264323 -0.941247,0 -1.753556,-0.335239 -0.81231,-0.335239 -1.424765,-0.934801 -0.606009,-0.599561 -0.947695,-1.398977 -0.341685,-0.799416 -0.341685,-1.727769 0,-0.9348006 0.341685,-1.7342162 0.341686,-0.8058625 0.947695,-1.4054241 0.612455,-0.6060086 1.424765,-0.9412474 0.812309,-0.3416857 1.753556,-0.3416857 1.005717,0 1.727769,0.2643229 0.722053,0.2643229 1.012164,0.5221989 L 26.818842,7.544493 Q 26.57386,7.3446391 26.01298,7.1383384 25.4521,6.9255907 24.704259,6.9255907 q -0.9348,0 -1.637512,0.4126015 -0.702712,0.4126016 -1.095973,1.1217606 -0.393261,0.7027121 -0.393261,1.5859372 0,0.889672 0.393261,1.598831 0.393261,0.702712 1.095973,1.121761 0.702712,0.412602 1.637512,0.412602 z"
       style="font-weight:500;font-family:'League Spartan';-inkscape-font-specification:'League Spartan, Medium'"
       id="path5447" />
    <path
       d="M 31.989216,5.7973832 H 37.6367 V 6.712843 l -4.319423,7.594448 h -1.450552 l 4.24206,-7.3494658 h -4.119569 z"
       id="path5449" />
    <path
       d="m 41.208271,11.367505 q -0.709159,0 -1.328061,-0.348133 -0.618903,-0.354579 -1.005717,-0.986376 -0.380367,-0.6382427 -0.380367,-1.4892335 0,-0.838097 0.412602,-1.4892338 0.412602,-0.6575838 1.095973,-1.031504 0.689818,-0.3803671 1.521468,-0.3803671 0.850991,0 1.534362,0.3739202 0.683372,0.3674733 1.08308,1.0379509 0.406154,0.6704775 0.406154,1.5859373 0,0.967035 -0.328792,1.637513 -0.322345,0.670477 -0.760734,1.212017 l -2.269309,2.817295 h -1.547255 l 2.759273,-3.320153 q -0.128938,0.135384 -0.43839,0.257876 -0.303004,0.122491 -0.754287,0.122491 z m 0.303004,-4.6353213 q -0.489964,0 -0.896119,0.2449822 -0.399707,0.2385353 -0.64469,0.6446899 -0.238535,0.4061547 -0.238535,0.902566 0,0.4899644 0.238535,0.8961191 0.244983,0.3997078 0.64469,0.6382431 0.406155,0.238535 0.896119,0.238535 0.496412,0 0.902566,-0.238535 0.406155,-0.2385353 0.64469,-0.6382431 0.244983,-0.4061547 0.244983,-0.8961191 0,-0.4964113 -0.244983,-0.902566 Q 42.819996,7.2157012 42.413841,6.9771659 42.007687,6.7321837 41.511275,6.7321837 Z"
       id="path5451" />
    <path
       d="m 45.559925,10.058784 q 0,-1.5021277 0.470624,-2.4820565 0.470624,-0.9799287 1.218464,-1.4569993 0.754288,-0.4770706 1.579491,-0.4770706 0.838097,0 1.57949,0.4770706 0.747841,0.4770706 1.212017,1.4569993 0.470624,0.9799288 0.470624,2.4820565 0,1.547256 -0.470624,2.520738 -0.464176,0.973482 -1.212017,1.431212 -0.741393,0.451283 -1.57949,0.451283 -0.825203,0 -1.579491,-0.451283 -0.74784,-0.45773 -1.218464,-1.431212 -0.470624,-0.973482 -0.470624,-2.520738 z m 1.315168,0 q 0,1.631066 0.567327,2.436928 0.567327,0.799416 1.386084,0.799416 0.825203,0 1.386083,-0.799416 0.560881,-0.805862 0.560881,-2.436928 0,-1.5923843 -0.560881,-2.4175875 -0.56088,-0.83165 -1.386083,-0.83165 -0.818757,0 -1.386084,0.83165 -0.567327,0.8252032 -0.567327,2.4175875 z"
       id="path5453" />
    <path
       d="m 56.19086,6.777312 q -0.509305,0 -0.889672,0.2127477 -0.380367,0.2127477 -0.638243,0.4964112 -0.251429,0.2836636 -0.386814,0.515752 -0.135385,0.2256415 -0.141832,0.257876 L 52.999645,7.7572407 q 0.01289,-0.064469 0.122491,-0.2901105 0.109597,-0.2320883 0.341686,-0.5350926 0.232088,-0.3094512 0.599561,-0.5995617 0.367474,-0.2965574 0.896119,-0.4899644 0.528646,-0.1998539 1.231358,-0.1998539 0.99927,0 1.611725,0.3610264 0.612456,0.3610264 0.896119,0.9605881 0.283664,0.5995616 0.283664,1.3151675 0,0.5479865 -0.251429,1.1024199 -0.251429,0.5544334 -0.651137,1.0766325 -0.393261,0.522199 -0.850991,0.986375 -0.45773,0.45773 -0.883225,0.818757 -0.425496,0.361026 -0.7285,0.593115 -0.303004,0.232088 -0.386814,0.29011 h 3.68118 v 1.160442 h -5.686166 v -1.057292 q 0.16762,-0.135384 0.554434,-0.438389 0.393261,-0.303004 0.896119,-0.715606 0.502858,-0.419048 1.025057,-0.902566 0.522199,-0.489964 0.967035,-0.999269 0.444836,-0.5157521 0.715606,-1.0057165 0.277216,-0.4964113 0.277216,-0.9219067 0,-0.8252032 -0.386814,-1.153995 Q 56.893572,6.777312 56.19086,6.777312 Z"
       id="path5455" />
  </g>
  <g
     aria-label="MARKHAM FIREBIRDS"
     id="text6211-2-1-6-3-0-5-9-8-8"
     style="font-size:20.5799px;line-height:1.25;font-family:'Bebas Neue';-inkscape-font-specification:'Bebas Neue, Normal';letter-spacing:0.133479px;fill:#ffffff;stroke-width:0.514504"
     transform="translate(-7.5490868,-5.6426576)">
    <path
       d="m 21.183271,18.036711 v 13.582735 h -2.541618 v -8.715588 l 0.11319,-1.965381 -0.463048,2.23292 -2.675387,7.480793 H 13.10566 l -2.665097,-7.480793 -0.4630479,-2.23292 0.1234789,1.965381 v 8.715588 H 7.5490868 V 18.036711 H 11.08883 l 3.107565,9.693134 0.164639,0.926095 0.164639,-0.926095 3.128145,-9.693134 z"
       id="path5458" />
    <path
       d="m 27.730074,18.036711 h 2.562198 l 5.227295,13.582735 H 32.80302 L 31.732865,28.67652 h -5.433094 l -1.080445,2.942926 h -2.737127 z m -0.596817,8.38631 h 3.766122 l -1.862481,-5.289035 h -0.03087 z"
       id="path5460" />
    <path
       d="m 36.35543,18.036711 h 5.227295 q 1.142184,0 2.05799,0.483628 0.926096,0.473338 1.461173,1.389143 0.535077,0.905516 0.535077,2.19176 0,1.275954 -0.473337,2.08886 -0.473338,0.812906 -1.142185,1.234794 -0.658557,0.411598 -1.224504,0.473337 l 3.333944,5.721213 h -2.881186 l -3.025245,-5.525704 h -1.317114 v 5.525704 H 36.35543 Z m 2.551908,6.246 h 1.759581 q 0.977546,0 1.656682,-0.483627 0.689427,-0.483628 0.689427,-1.625813 0,-1.142184 -0.679137,-1.615522 -0.679136,-0.473338 -1.646392,-0.473338 h -1.780161 z"
       id="path5462" />
    <path
       d="m 52.585078,24.663439 5.309615,6.956007 h -3.056115 l -4.527579,-6.071071 v 6.071071 H 47.759092 V 18.036711 h 2.551907 v 5.824112 l 4.1983,-5.824112 h 2.901766 z"
       id="path5464" />
    <path
       d="m 66.797882,25.939393 h -5.412514 v 5.680053 H 58.843751 V 18.036711 h 2.541617 v 5.649183 h 5.412514 v -5.649183 h 2.531328 v 13.582735 h -2.531328 z"
       id="path5466" />
    <path
       d="m 75.762792,18.036711 h 2.562198 l 5.227294,13.582735 H 80.835737 L 79.765583,28.67652 h -5.433094 l -1.080445,2.942926 h -2.737127 z m -0.596817,8.38631 h 3.766122 l -1.862481,-5.289035 h -0.03087 z"
       id="path5468" />
    <path
       d="m 98.032625,18.036711 v 13.582735 h -2.541618 v -8.715588 l 0.11319,-1.965381 -0.463048,2.23292 -2.675387,7.480793 h -2.510748 l -2.665097,-7.480793 -0.463048,-2.23292 0.123479,1.965381 v 8.715588 H 84.398441 V 18.036711 h 3.539743 l 3.107565,9.693134 0.164639,0.926095 0.164639,-0.926095 3.128145,-9.693134 z"
       id="path5470" />
    <path
       d="M 7.7961061,35.420899 H 15.33864 v 2.253499 h -5.000916 v 3.395684 h 4.640767 v 2.253499 h -4.640767 v 5.680053 H 7.7961061 Z"
       style="font-weight:600;font-family:'League Spartan';-inkscape-font-specification:'League Spartan, Semi-Bold';letter-spacing:0.252746px"
       id="path5472" />
    <path
       d="m 17.79342,35.420899 h 2.562198 V 49.003634 H 17.79342 Z"
       style="font-weight:600;font-family:'League Spartan';-inkscape-font-specification:'League Spartan, Semi-Bold';letter-spacing:0.252746px"
       id="path5474" />
    <path
       d="m 23.149953,35.420899 h 5.227295 q 1.142185,0 2.05799,0.483628 0.926096,0.473338 1.461173,1.389143 0.535078,0.905516 0.535078,2.19176 0,1.275954 -0.473338,2.08886 -0.473338,0.812906 -1.142185,1.234794 -0.658556,0.411598 -1.224504,0.473337 l 3.333944,5.721213 H 30.04422 L 27.018975,43.47793 h -1.317114 v 5.525704 h -2.551908 z m 2.551908,6.246 h 1.759582 q 0.977545,0 1.656682,-0.483628 0.689426,-0.483627 0.689426,-1.625812 0,-1.142184 -0.679136,-1.615522 -0.679137,-0.473338 -1.646392,-0.473338 h -1.780162 z"
       style="font-weight:600;font-family:'League Spartan';-inkscape-font-specification:'League Spartan, Semi-Bold';letter-spacing:0.252746px"
       id="path5476" />
    <path
       d="m 35.308171,35.420899 h 8.417179 v 2.253499 h -5.875561 v 3.426554 h 5.793242 v 2.191759 h -5.793242 v 3.457424 h 5.875561 v 2.253499 h -8.417179 z"
       style="font-weight:600;font-family:'League Spartan';-inkscape-font-specification:'League Spartan, Semi-Bold';letter-spacing:0.252746px"
       id="path5478" />
    <path
       d="m 46.540258,35.420899 h 4.311489 q 1.131895,0 2.11973,0.308699 0.998125,0.308698 1.605232,1.039285 0.607107,0.720296 0.607107,1.95509 0,0.833486 -0.318988,1.492043 -0.318988,0.658557 -0.823196,1.080445 -0.493918,0.421888 -1.028995,0.524787 0.627687,0.07203 1.265664,0.452758 0.637977,0.370438 1.070155,1.080445 0.432178,0.710007 0.432178,1.800741 0,1.708132 -1.101025,2.778287 -1.090735,1.070155 -3.189885,1.070155 h -4.949466 z m 2.541618,5.628603 h 1.656682 q 0.956965,0 1.430303,-0.545367 0.473338,-0.555658 0.473338,-1.327404 0,-0.967255 -0.565948,-1.327403 -0.555657,-0.360149 -1.512622,-0.360149 h -1.481753 z m 0,5.885852 h 1.883061 q 1.183344,0 1.656682,-0.555658 0.473338,-0.565947 0.473338,-1.420013 0,-0.905515 -0.576238,-1.389143 -0.576237,-0.493918 -1.636102,-0.493918 h -1.800741 z"
       style="font-weight:600;font-family:'League Spartan';-inkscape-font-specification:'League Spartan, Semi-Bold';letter-spacing:0.252746px"
       id="path5480" />
    <path
       d="m 58.153071,35.420899 h 2.562197 v 13.582735 h -2.562197 z"
       style="font-weight:600;font-family:'League Spartan';-inkscape-font-specification:'League Spartan, Semi-Bold';letter-spacing:0.252746px"
       id="path5482" />
    <path
       d="m 63.509603,35.420899 h 5.227295 q 1.142184,0 2.05799,0.483628 0.926095,0.473338 1.461173,1.389143 0.535077,0.905516 0.535077,2.19176 0,1.275954 -0.473337,2.08886 -0.473338,0.812906 -1.142185,1.234794 -0.658557,0.411598 -1.224504,0.473337 l 3.333944,5.721213 H 70.40387 L 67.378624,43.47793 h -1.317113 v 5.525704 h -2.551908 z m 2.551908,6.246 h 1.759581 q 0.977546,0 1.656682,-0.483628 0.689427,-0.483627 0.689427,-1.625812 0,-1.142184 -0.679137,-1.615522 -0.679136,-0.473338 -1.646392,-0.473338 h -1.780161 z"
       style="font-weight:600;font-family:'League Spartan';-inkscape-font-specification:'League Spartan, Semi-Bold';letter-spacing:0.252746px"
       id="path5484" />
    <path
       d="m 75.667821,35.420899 h 3.735252 q 2.171179,0 3.580902,0.874646 1.420014,0.864356 2.11973,2.397558 0.699717,1.533203 0.699717,3.508874 0,1.98596 -0.699717,3.519163 -0.689427,1.533202 -2.10944,2.407848 -1.420013,0.874646 -3.591192,0.874646 h -3.735252 z m 2.541617,2.284369 v 9.013997 h 0.967256 q 1.327403,0 2.191759,-0.586527 0.874646,-0.586528 1.296534,-1.594943 0.432178,-1.018705 0.432178,-2.315239 0,-1.296533 -0.421888,-2.315238 -0.421888,-1.018705 -1.296534,-1.605233 -0.864356,-0.596817 -2.202049,-0.596817 z"
       style="font-weight:600;font-family:'League Spartan';-inkscape-font-specification:'League Spartan, Semi-Bold';letter-spacing:0.252746px"
       id="path5486" />
    <path
       d="m 92.693167,35.17394 q 1.224504,0 2.130019,0.277829 0.915806,0.267539 1.450883,0.576237 0.545368,0.308699 0.658557,0.401308 l -1.255374,2.07857 q -0.154349,-0.133769 -0.555657,-0.370438 -0.391018,-0.236669 -0.956965,-0.432178 -0.555658,-0.195509 -1.203925,-0.195509 -0.936385,0 -1.502332,0.349858 -0.555658,0.349859 -0.555658,1.039285 0,0.679137 0.658557,1.152475 0.668847,0.473338 1.944801,0.967255 0.977545,0.380728 1.841901,0.946676 0.864356,0.555657 1.399433,1.378853 0.535077,0.823196 0.535077,1.99625 0,1.296534 -0.689426,2.17118 -0.689427,0.864356 -1.821321,1.306824 -1.121605,0.432178 -2.438719,0.432178 -1.347983,0 -2.407848,-0.308699 -1.059865,-0.318988 -1.718422,-0.668847 -0.658557,-0.360148 -0.771746,-0.473337 l 1.306824,-2.16089 q 0.164639,0.123479 0.710006,0.432178 0.555658,0.298408 1.317114,0.555657 0.771746,0.257249 1.584652,0.257249 1.121605,0 1.687552,-0.463048 0.565947,-0.463048 0.565947,-1.203924 0,-0.843776 -0.792326,-1.389143 -0.792326,-0.555658 -2.140309,-1.101025 -0.905516,-0.380728 -1.687552,-0.884936 -0.771747,-0.514497 -1.245084,-1.255374 -0.473338,-0.751166 -0.473338,-1.841901 0,-1.080445 0.607107,-1.883061 0.617397,-0.802616 1.625812,-1.245084 1.008415,-0.442468 2.19176,-0.442468 z"
       style="font-weight:600;font-family:'League Spartan';-inkscape-font-specification:'League Spartan, Semi-Bold';letter-spacing:0.252746px"
       id="path5488" />
  </g>
</svg>
